<?xml version="1.0" encoding="utf-8"?>
<!-- Generator: Adobe Illustrator 24.2.3, SVG Export Plug-In . SVG Version: 6.00 Build 0)  -->
<svg version="1.1" id="Layer_1" xmlns="http://www.w3.org/2000/svg" xmlns:xlink="http://www.w3.org/1999/xlink" x="0px" y="0px"
	 viewBox="0 0 50 50" style="enable-background:new 0 0 50 50;" xml:space="preserve">
<style type="text/css">
	.st0{fill:#FFFFFF;}
</style>
<g>
	<g>
		<path class="st0" d="M25,4.1c-6.2,0-11.2,5-11.2,11.2s5,11.2,11.2,11.2s11.2-5,11.2-11.2S31.2,4.1,25,4.1z"/>
	</g>
</g>
<g>
	<g>
		<path class="st0" d="M39,33.9c-3.1-3.1-7.2-4.8-11.5-4.8h-5c-4.3,0-8.4,1.7-11.5,4.8C8,37,6.3,41.1,6.3,45.5
			c0,0.7,0.6,1.2,1.2,1.2h35c0.7,0,1.2-0.6,1.2-1.2C43.7,41.1,42,37,39,33.9z"/>
	</g>
</g>
</svg>
