<?xml version="1.0" encoding="utf-8"?>
<!-- Generator: Adobe Illustrator 25.4.1, SVG Export Plug-In . SVG Version: 6.00 Build 0)  -->
<svg version="1.1" id="Layer_1" xmlns="http://www.w3.org/2000/svg" xmlns:xlink="http://www.w3.org/1999/xlink" x="0px" y="0px"
	 viewBox="0 0 50 50" style="enable-background:new 0 0 50 50;" xml:space="preserve">
<path d="M25,0C11.2,0,0,11.2,0,25c0,13.8,11.2,25,25,25s25-11.2,25-25C50,11.2,38.8,0,25,0z M31.6,24.9h-4.3c0,6.9,0,15.4,0,15.4
	h-6.4c0,0,0-8.4,0-15.4h-3.1v-5.5h3.1v-3.5c0-2.5,1.2-6.5,6.5-6.5l4.8,0v5.3c0,0-2.9,0-3.4,0c-0.6,0-1.4,0.3-1.4,1.5v3.2h4.9
	L31.6,24.9z"/>
</svg>
