<?xml version="1.0" encoding="utf-8"?>
<!-- Generator: Adobe Illustrator 25.3.1, SVG Export Plug-In . SVG Version: 6.00 Build 0)  -->
<svg version="1.1" id="圖層_1" xmlns="http://www.w3.org/2000/svg" xmlns:xlink="http://www.w3.org/1999/xlink" x="0px" y="0px"
	 viewBox="0 0 28.4 28.4" style="enable-background:new 0 0 28.4 28.4;" xml:space="preserve">
<style type="text/css">
	.st0{fill:#0492D2;}
</style>
<path class="st0" d="M14.2,2.7c-2.6,0-4.7,1.6-4.7,5.1c0,3.5,2.1,6.4,4.7,6.4c2.5,0,4.7-2.9,4.7-6.4C18.8,4.3,16.7,2.7,14.2,2.7
	L14.2,2.7z M8.8,16.5c1.7-0.6,3.7-0.9,5.4-0.9c1.7,0,3.7,0.2,5.4,0.9c1.5,0.5,2.8,1.4,3.6,2.6c0.2,0.2,0.3,0.5,0.3,0.8v4.3
	c0,0.8-0.6,1.4-1.4,1.4h-7.9H6.3c-0.8,0-1.4-0.6-1.4-1.4v-4.3c0-0.3,0.1-0.6,0.2-0.8C5.9,17.9,7.2,17,8.8,16.5z"/>
</svg>
