<?xml version="1.0" encoding="utf-8"?>
<!-- Generator: Adobe Illustrator 25.3.1, SVG Export Plug-In . SVG Version: 6.00 Build 0)  -->
<svg version="1.1" id="Icons" xmlns="http://www.w3.org/2000/svg" xmlns:xlink="http://www.w3.org/1999/xlink" x="0px" y="0px"
	 viewBox="0 0 32 32" style="enable-background:new 0 0 32 32;" xml:space="preserve">
<style type="text/css">
	.st0{fill:#07726C;}
</style>
<path class="st0" d="M15,29V8c0-1.7-1.3-3-3-3H3C1.9,5,1,5.9,1,7v17c0,1.1,0.9,2,2,2h9C13.7,26,15,27.3,15,29L15,29"/>
<path class="st0" d="M17,29V8c0-1.7,1.3-3,3-3h9c1.1,0,2,0.9,2,2v17c0,1.1-0.9,2-2,2h-9C18.3,26,17,27.3,17,29L17,29"/>
</svg>
