<svg xmlns="http://www.w3.org/2000/svg" width="14.999" height="15.001" viewBox="0 0 14.03 14.031">
  <defs>
    <style>
      .cls-1 {
        fill: #fff;
        fill-rule: evenodd;
      }
    </style>
  </defs>
  <path id="形狀_1" data-name="形狀 1" class="cls-1" d="M1423.74,11.866a7.02,7.02,0,1,0,7.02,7.021,7.025,7.025,0,0,0-7.02-7.021h0Zm-2.64,11.061c-0.58-.381-1.75-1.522-1.75-2.286a0.441,0.441,0,0,1,.44-0.439h7.9a0.441,0.441,0,0,1,.44.439c0,0.764-1.17,1.9-1.75,2.286a4.83,4.83,0,0,1-5.28,0h0Zm5.28-7.551a1.1,1.1,0,1,1-1.1,1.1,1.095,1.095,0,0,1,1.1-1.1h0Zm-5.27,0a1.1,1.1,0,1,1-1.1,1.1A1.1,1.1,0,0,1,1421.11,15.376Z" transform="translate(-1416.72 -11.875)"/>
</svg>
