<svg id="圖層_1" data-name="圖層 1" xmlns="http://www.w3.org/2000/svg" xmlns:xlink="http://www.w3.org/1999/xlink" viewBox="0 0 2000 4691.59"><defs><style>.cls-1{fill:url(#未命名漸層_4);}.cls-2{fill:url(#未命名漸層_4-2);}.cls-3{fill:url(#未命名漸層_9);}</style><linearGradient id="未命名漸層_4" x1="-192.25" y1="2065.79" x2="741.55" y2="2338.24" gradientUnits="userSpaceOnUse"><stop offset="0" stop-color="#fff2e6"/><stop offset="1" stop-color="#f49388"/></linearGradient><linearGradient id="未命名漸層_4-2" x1="1097.31" y1="1207.93" x2="1914.68" y2="1773.8" xlink:href="#未命名漸層_4"/><linearGradient id="未命名漸層_9" x1="1000" y1="3024" x2="1000" y2="3890.42" gradientUnits="userSpaceOnUse"><stop offset="0" stop-color="#cdefe9"/><stop offset="1" stop-color="#44c6b0"/></linearGradient></defs><path class="cls-1" d="M0,2605.4s154.43-207.09,289.19-207c158.61.14,368.75,165.05,450.26,207S911.77,2642.66,893.14,2489s-97.81-500.66-351.63-656.68S0,1676.26,0,1676.26Z"/><path class="cls-2" d="M2000,1240.8s-220,132.22-368.67,83.83c-200.27-65.2-307.39-223.55-414.51-172.32S1077.1,1322.3,1112,1497s154.92,430.77,335.33,544.91C1675.57,2186.24,2000,2102.4,2000,2102.4Z"/><path class="cls-3" d="M0,2889.49s313.3,337.66,688.22,377.25,642.71-18.63,831.33-128.08,293.85-134.17,379.57-130.4c44.27,1.94,100.88,16.3,100.88,16.3v880.23s-238.27,44.25-431.55-93.14-449.17-370.26-672.85-342.32S474,3646.31,357.54,3734.8,146.84,3866.41,84.29,3887C48.83,3898.59,0,3902.47,0,3902.47Z"/></svg>