<svg id="圖層_1" data-name="圖層 1" xmlns="http://www.w3.org/2000/svg" xmlns:xlink="http://www.w3.org/1999/xlink" viewBox="0 0 2000 891.5"><defs><style>.cls-1{fill:#e1f5f4;}.cls-2{fill:url(#未命名漸層_5);}.cls-3{fill:url(#未命名漸層_8);}</style><linearGradient id="未命名漸層_5" x1="1000" y1="-26.32" x2="1000" y2="738.87" gradientUnits="userSpaceOnUse"><stop offset="0" stop-color="#cff0e9"/><stop offset="1" stop-color="#008c8f"/></linearGradient><linearGradient id="未命名漸層_8" x1="942.58" y1="43.87" x2="942.58" y2="442.89" gradientUnits="userSpaceOnUse"><stop offset="0" stop-color="#008c8f"/><stop offset="1" stop-color="#086b74"/></linearGradient></defs><path class="cls-1" d="M0,616.71s175.91,123.42,439.05,34.93S1247.1,379.19,1545.17,539.87,2000,891.5,2000,891.5V0H0Z"/><path class="cls-2" d="M2000,0V688.9s-252.24-235.19-499.08-274.78S784.21,515.73,609,511.92C180.57,502.61,0,344.45,0,344.45V0Z"/><path class="cls-3" d="M0,0V103.86S185.6,428.72,699.82,453.2c635.72,30.27,828.18-117.31,938.49-193C1806,145.11,1885.15,0,1885.15,0Z"/></svg>