<svg xmlns="http://www.w3.org/2000/svg" width="32.001" height="33.41" viewBox="0 0 22.03 23">
  <defs>
    <style>
      .cls-1 {
        fill: #6e5d5d;
        fill-rule: evenodd;
      }
    </style>
  </defs>
  <path id="形狀_61" data-name="形狀 61" class="cls-1" d="M1255.87,622.406v3.548a1.023,1.023,0,0,1-.18.677,0.876,0.876,0,0,1-1.14.264c-0.6-.271-1.2-0.55-1.8-0.827-2.09-.958-4.17-1.917-6.26-2.875a4.091,4.091,0,0,1-2.43-3.107,4.474,4.474,0,0,1-.05-0.732c0-4.176.01-8.351-.01-12.527a2.82,2.82,0,0,1,2.83-2.826c3.31,0.017,6.62,0,9.93.006a2.755,2.755,0,0,1,2.82,2.823q0.015,0.852,0,1.7a0.917,0.917,0,1,1-1.83.006c-0.01-.555,0-1.11-0.01-1.665a0.914,0.914,0,0,0-1-1.027q-3.675,0-7.33,0c-0.05,0-.1.006-0.21,0.012l0.18,0.1c1.95,0.9,3.89,1.8,5.83,2.691a1.01,1.01,0,0,1,.66,1.026v10.867a8.515,8.515,0,0,0,1.11-.01,0.879,0.879,0,0,0,.72-0.905v-1.781a0.927,0.927,0,0,1,.63-0.907,0.894,0.894,0,0,1,1.19.77c0.02,0.761.03,1.525-.01,2.283a2.742,2.742,0,0,1-2.28,2.371,6.349,6.349,0,0,1-.64.042C1256.36,622.412,1256.13,622.406,1255.87,622.406Zm-9.97-16.02c-0.02.2-.06,0.368-0.06,0.532v12.368a3.438,3.438,0,0,0,.04.557,2.312,2.312,0,0,0,1.37,1.687q3.33,1.529,6.66,3.052c0.05,0.023.1,0.041,0.17,0.068V610.308a0.249,0.249,0,0,0-.18-0.268q-3.03-1.379-6.06-2.768Zm14.99,7.74h0.24c1.3,0,2.59,0,3.89,0a0.94,0.94,0,0,0,.92-0.578,0.921,0.921,0,0,0-.88-1.26c-1.31-.006-2.62,0-3.93,0h-0.24c0.08-.081.11-0.127,0.16-0.17,0.31-.321.63-0.639,0.95-0.961a0.933,0.933,0,0,0,.01-1.3,0.893,0.893,0,0,0-1.28.01c-0.89.888-1.79,1.779-2.67,2.679a0.9,0.9,0,0,0,.05,1.4c0.84,0.842,1.67,1.681,2.51,2.52a3.1,3.1,0,0,0,.31.288,0.909,0.909,0,0,0,1.23-.141,0.928,0.928,0,0,0-.04-1.219c-0.34-.355-0.69-0.7-1.03-1.046A2.751,2.751,0,0,1,1260.89,614.126Z" transform="translate(-1244 -604)"/>
</svg>
