<svg xmlns="http://www.w3.org/2000/svg" width="32" height="32" viewBox="0 0 23 23">
  <defs>
    <style>
      .cls-1 {
        fill: #6e5d5d;
        fill-rule: evenodd;
      }
    </style>
  </defs>
  <path id="形狀_59" data-name="形狀 59" class="cls-1" d="M550.491,625A11.5,11.5,0,1,1,562,613.516,11.516,11.516,0,0,1,550.491,625Zm9.2-11.488a9.2,9.2,0,1,0-9.2,9.18A9.163,9.163,0,0,0,559.693,613.512Zm-10.344-1.165v-1.013c0-1.193-.009-2.386,0-3.579a1.146,1.146,0,1,1,2.292-.015q0.018,2.886,0,5.772a1.113,1.113,0,0,1-1.159,1.134q-2.482.017-4.965,0a1.148,1.148,0,1,1,.018-2.295c1.139-.012,2.278,0,3.417,0h0.392Z" transform="translate(-539 -602)"/>
</svg>
