<svg xmlns="http://www.w3.org/2000/svg" width="13.88" height="13.69" viewBox="0 0 13.88 13.69">
  <defs>
    <style>
      .cls-1 {
        fill: #ea6428;
        fill-rule: evenodd;
      }
    </style>
  </defs>
  <path id="形狀_30" data-name="形狀 30" class="cls-1" d="M1171.57,1200.63h6.21s-1.88,1.87-2.24,2.22a1.7,1.7,0,0,0,0,2.43,1.744,1.744,0,0,0,2.45,0l5.2-5.15a1.708,1.708,0,0,0,0-2.42l-5.2-5.15a1.744,1.744,0,0,0-2.45,0,1.7,1.7,0,0,0,0,2.43c0.36,0.35,2.24,2.21,2.24,2.21h-6.21A1.715,1.715,0,1,0,1171.57,1200.63Z" transform="translate(-1169.84 -1192.09)"/>
</svg>
