<svg xmlns="http://www.w3.org/2000/svg" width="31.999" height="31.999" viewBox="0 0 22 22">
  <defs>
    <style>
      .cls-1 {
        fill: #6e5d5d;
        fill-rule: evenodd;
      }
    </style>
  </defs>
  <path id="形狀_60" data-name="形狀 60" class="cls-1" d="M1003.83,611.323V609.63a1.991,1.991,0,0,1,.22-0.985,1.8,1.8,0,0,1,1.48-.972l0.14-.014v-0.206c0-.521-0.01-1.042,0-1.563a1.814,1.814,0,0,1,1.88-1.889c3.63,0,7.25,0,10.88,0a1.815,1.815,0,0,1,1.84,1.431,2.336,2.336,0,0,1,.05.592c0.01,0.539,0,1.079,0,1.6a5.047,5.047,0,0,1,.78.217,1.784,1.784,0,0,1,1.06,1.75v1.678a5.949,5.949,0,0,1,.87.3,1.737,1.737,0,0,1,.96,1.427,2.762,2.762,0,0,1,.01.288v10.767a1.925,1.925,0,0,1-.38,1.227,1.78,1.78,0,0,1-1.27.71,3.025,3.025,0,0,1-.31.012q-9.045,0-18.08,0a1.779,1.779,0,0,1-1.77-1.057,1.923,1.923,0,0,1-.18-0.817q-0.015-5.46-.01-10.921a1.822,1.822,0,0,1,1.71-1.866Zm0.01,12.828h18.31V613.182h-18.31v10.969Zm1.83-12.833h14.65v-1.8h-14.65v1.8Zm1.84-3.723h10.95v-1.748h-10.95V607.6Zm4.57,10.624v2.2a0.913,0.913,0,0,1-1,.993q-2.205,0-4.41,0a0.922,0.922,0,0,1-1.01-1.008v-4.4a0.93,0.93,0,0,1,1.01-1.01c1.47,0,2.93,0,4.4,0a0.921,0.921,0,0,1,1.01,1.006v2.218Zm-4.57,1.353h2.73v-2.724h-2.73v2.724Zm9.62-4.574h2.24a0.917,0.917,0,0,1,.96.892,0.9,0.9,0,0,1-.93.941c-1.52.007-3.03,0.007-4.55,0a0.9,0.9,0,0,1-.93-0.939,0.911,0.911,0,0,1,.96-0.894Q1016.005,615,1017.13,615Zm-0.01,5.5c-0.75,0-1.5.006-2.25,0a0.918,0.918,0,1,1-.06-1.834c1.55,0,3.09,0,4.64,0a0.915,0.915,0,0,1,.1,1.819,1.88,1.88,0,0,1-.27.015h-2.16Z" transform="translate(-1002 -604)"/>
</svg>
