<?xml version="1.0" encoding="utf-8"?>
<!-- Generator: Adobe Illustrator 24.2.3, SVG Export Plug-In . SVG Version: 6.00 Build 0)  -->
<svg version="1.1" id="圖層_1" xmlns="http://www.w3.org/2000/svg" xmlns:xlink="http://www.w3.org/1999/xlink" x="0px" y="0px"
	 viewBox="0 0 13.9 13.7" style="enable-background:new 0 0 13.9 13.7;" xml:space="preserve">
<style type="text/css">
	.st0{fill-rule:evenodd;clip-rule:evenodd;fill:#FFFFFF;}
</style>
<path id="形狀_30" class="st0" d="M1.7,8.5h6.2c0,0-1.9,1.9-2.2,2.2c-0.7,0.7-0.7,1.7,0,2.4c0,0,0,0,0,0c0.7,0.7,1.8,0.7,2.4,0
	L13.3,8c0.7-0.7,0.7-1.7,0-2.4c0,0,0,0,0,0L8.1,0.5c-0.7-0.7-1.8-0.7-2.4,0C5,1.1,5,2.2,5.7,2.9c0,0,0,0,0,0
	c0.4,0.3,2.2,2.2,2.2,2.2H1.7C0.8,5.1,0,5.9,0,6.8C0,7.8,0.8,8.5,1.7,8.5L1.7,8.5z"/>
</svg>
