<?xml version="1.0" encoding="utf-8"?>
<!-- Generator: Adobe Illustrator 25.4.1, SVG Export Plug-In . SVG Version: 6.00 Build 0)  -->
<svg version="1.1" id="圖層_1" xmlns="http://www.w3.org/2000/svg" xmlns:xlink="http://www.w3.org/1999/xlink" x="0px" y="0px"
	 viewBox="0 0 180.7 34.4" style="enable-background:new 0 0 180.7 34.4;" xml:space="preserve">
<style type="text/css">
	.st0{fill:#0082CA;}
	.st1{fill:#009383;}
	.st2{fill:#1A1A1A;}
	.st3{fill:#010101;}
	.st4{fill:#060606;}
</style>
<g>
	<g>
		<g>
			<path class="st0" d="M17.5,2.7C9.5,2.7,3,9.2,3,17.2s6.5,14.5,14.5,14.5s14.5-6.5,14.5-14.5S25.5,2.7,17.5,2.7z M17.6,30.5
				c-0.4,0-0.7,0-1.1,0c0-0.1,0-0.2,0-0.3V17c0,0,0-0.1-0.1-0.1c0,0,0,0-0.1,0h0l-7.4,3c-0.1,0.1-0.2,0.2-0.1,0.2l0.3,0.7
				c0.1,0.1,0.2,0,0.2,0c0.4-0.2,5.9-2.4,5.9-2.4l0,0h0c0,0,0,0,0.1,0c0,0,0.1,0.1,0.1,0.1l0,0v10v1.1v0.2c0,0.1-0.1,0.3-0.2,0.4
				c-5.3-0.9-9.5-5-10.7-10.2c0.2,0,0.4,0,0.7-0.1c0.4-0.1,7.3-2.8,7.4-2.9c3.9-1.7,3.9-4.8,3.9-6.1c0-1.4,0-3,0-3
				c0-0.1,0-0.1-0.1-0.1c0,0-0.1-0.1-0.1-0.1l-0.7,0l0,0c-0.1,0-0.1,0-0.1,0.1c0,0-0.1,0.1-0.1,0.1c0,1.1,0,2,0,3
				c0,1.3,0,3.7-3.3,5.1c-0.2,0.1-7.3,2.9-7.3,2.9c-0.2,0.1-0.6-0.2-0.6-0.6c-0.1-0.5-0.1-0.8-0.1-1.3c0-7.3,5.9-13.3,13.2-13.4
				c0,0.2,0,0.4,0,0.6c0,0,0,2.4,0,2.5c0,0.8,0,2,0.5,3.2c0.6,1.4,1.7,2.4,3.4,3.1l4.3,1.9c0,0,0.1,0,0.2,0c0,0,0.1-0.1,0.1-0.1
				l0.2-0.6c0-0.1,0-0.2-0.1-0.3l-4.2-1.9c-3.2-1.3-3.2-3.7-3.2-5.2c0,0,0-1.7,0-2c0-0.2,0-0.8,0.4-1C25.7,4.5,31,10.2,31,17.2
				c0,0.5,0,1-0.1,1.4c-0.2-0.1-0.5-0.3-0.8-0.4c-0.3-0.1-12.2-5.1-12.2-5.1h0c0,0,0,0-0.1,0c0,0-0.1,0.1-0.1,0.1c0,0,0,7.9,0,7.9
				c0,0.8,0,1.9,0.5,3c0.5,1.2,1.5,2.1,2.9,2.7c0.1,0,0.1,0,0.2,0.1c0.1,0,0.1,0,0.2,0c0.4-0.1,0.7-0.3,1-0.4c0,0,0.1,0,0.1-0.1
				s-0.1-0.1-0.1-0.1L22,26.2c-3.3-1.3-3.3-3.5-3.3-5.1c0,0,0-6.2,0-6.4l0,0c0,0,0-0.1,0.1-0.1c0,0,0,0,0.1,0h0l10.6,4.4
				c0.8,0.4,1.1,0.8,1.1,1.3C29.1,26.2,23.9,30.5,17.6,30.5z"/>
		</g>
		<g>
			<g>
				<g>
					<path class="st1" d="M20.4,5.8c0.2,0,2.9,0.5,5.6,3.3c2,2,3,4.7,3.2,7.5c0,0.1,0.1,0.1,0.1,0.2l0.7,0.3c0,0,0.1,0,0.1,0l0,0
						c0.1,0,0.2-0.1,0.2-0.2v0c-0.1-2.8-1.1-5.5-2.7-7.7c-2.9-3.7-6.8-4.4-7.4-4.5c-0.6-0.1-0.8,0-0.8,0.6c0,0.4,0,1.5,0,1.5
						c0,1.6,0,3.4,2.7,4.5l4.3,1.8c0,0,0.1,0,0.2,0c0,0,0.1-0.1,0.1-0.1l0.2-0.6c0-0.1,0-0.2-0.1-0.3l-4.3-1.9
						c-1.9-0.8-2-1.7-2.1-3.1V6.4C20.2,6,20.2,5.8,20.4,5.8z"/>
				</g>
				<g>
					<path class="st1" d="M16.4,5.5c0,0,0-0.7,0-0.8c0-0.1-0.1-0.2-0.2-0.2C5.2,6.4,4.9,16.5,5,17.3c0,0.1,0.1,0.5,0.4,0.5
						c0.1,0,1-0.4,6.4-2.6c1.2-0.5,2-1.2,2.4-2c0.4-0.8,0.4-1.6,0.4-2.4c0-0.9,0-1.9,0-3c0-0.1-0.1-0.2-0.2-0.2l-0.7,0l0,0
						c-0.1,0-0.2,0.1-0.2,0.2c0,0,0,1.8,0,3c0,1.4-0.2,2.6-2.1,3.5c0,0-5,2-5,2c-0.2,0-0.2-0.1-0.2-0.2C6.3,14.4,8,6.9,16,5.7
						c0.1,0,0.2,0,0.2,0S16.4,5.7,16.4,5.5z"/>
				</g>
				<path class="st1" d="M29,19.7l-9.3-3.8h0c0,0,0,0-0.1,0c0,0,0,0.1,0,0.1c0,0.5,0,5.1,0,5.1c0,1.5,0,3.2,2.7,4.2l1.1,0.4
					c0,0,0.1,0,0.1,0c0,0,0.1,0,0.1-0.1c0.3-0.2,0.5-0.4,0.7-0.5c0,0,0.1,0,0.1-0.1c0-0.1-0.1-0.1-0.1-0.1l-1.7-0.7
					c-1.9-0.7-2-1.6-2-2.9c0,0,0-3.6,0-3.9c0,0,0-0.1,0-0.1c0,0,0,0,0.1,0h0c0,0,7.4,3.1,7.4,3.1c0.1,0,0.2,0.1,0.1,0.2
					c-0.7,2.3-2.1,4.3-4.1,5.7c-1.8,1.3-4.2,2.2-6.5,2.2c-0.1,0-0.2,0.1-0.2,0.2v0.7l0,0c0,0.1,0.1,0.2,0.2,0.2
					c3.2-0.1,6.1-1.3,8.2-3.3c1.8-1.6,3-3.6,3.7-5.9C29.7,20.1,29.4,19.8,29,19.7z"/>
				<path class="st1" d="M6.3,20.5l-0.7,0.3l0,0c-0.1,0-0.2,0.1-0.2,0.2c2.1,6.8,8.6,8.3,8.6,8.3c0.2,0,0.2,0,0.3,0
					c0.3,0,0.3-0.3,0.3-0.3v-9.4c0,0,0-0.1-0.1-0.1c0,0,0,0-0.1,0h0l-4.9,2c-0.1,0-0.2,0.2-0.1,0.3l0.3,0.6c0,0,0.1,0.1,0.1,0.1
					c0,0,0.1,0,0.2,0l3.2-1.3c0.1,0,0.2,0,0.2,0s0.1,0,0.1,0.2v6.3c0,0.3-0.1,0.3-0.2,0.3c0,0-3.8-1-6.1-5.6
					c-0.2-0.5-0.6-1.5-0.6-1.6C6.6,20.5,6.4,20.5,6.3,20.5z"/>
			</g>
		</g>
	</g>
	<g>
		<g>
			<path class="st2" d="M51.3,19.1c-1.1,0.2-1.7-0.4-2.3-0.4c-1.1-0.2-2.3,0.1-2.6-0.9c-0.1-0.4,0.1-0.7,0-1.2
				c0.5-0.8,1.9-0.4,2.8-0.3c0.3-0.3,0.1-0.7,0.1-1.2c-0.5-0.4-1.4-0.4-1.9-0.9c0.3,0,0.3-0.2,0.7-0.1c0-0.4,0-0.8-0.2-1
				c-0.4,0-1.1,0-1.2,0.1c-0.5-1,1.6-0.5,1.5-1.5c-1-0.4,0-1.5,1.2-1.3c0.3,0.1,0.2,0.5,0.7,0.4c0.2-0.1,0.1-0.4,0.1-0.6
				c-0.4-0.2-0.9-0.3-1.3-0.4c0.1-0.8-0.3-1.3-0.5-1.9c-0.6-0.1-1,0.1-1.4,0.2c-0.3-0.3-0.1-1.1-0.1-1.6c-0.3-0.3-1-0.5-1.4-0.2
				c-0.2,1,0.5,1.1,0.4,2c-0.3,0.5-1.1,0.5-1.9,0.5c0,0.5,0.5,0.6,0.5,1.1c0.6,0.1,1.2,0.1,1.3,0.6c-0.6,0.4-2,0.2-2.8,0.4
				c-0.1,0.3,0.2,0.3,0.1,0.6c-0.4,0.3-0.7,0.7-1.2,0.9c-0.4,0.8,0.7,0.9,0.8,1.4c0.1,0.2-0.1,0.4,0,0.6c0,0.2,0.3,0.3,0.4,0.5
				c0.1,0.4,0.1,0.7-0.2,1.1c-0.5,0-0.7-0.3-1-0.4c-0.2-0.1-0.1,0.2-0.3,0.2c0-1.2,0.1-2.5-0.3-3.4c-0.1-0.3-0.5-0.5-0.5-0.8
				c0-0.2,0.3-0.3,0.5-0.5c0.2-0.3,0.8-1.4,0.8-1.7c0.2-1-0.4-1.8-1.2-2.3c-0.4,2.4-1.4,4.4-2.9,5.9c0,0.3,0.2,0.3,0.1,0.6
				c0.4,0.2,0.8,0.2,1.4,0.2c0.2-0.2,0.4-0.4,0.7-0.5c0.3,2.1-0.5,4.8,0.1,7c0.2,0,0.4,0,0.5,0c0-0.7,0.6-0.8,1.4-0.9
				c0.7-0.4,0.6-1.5,1.4-1.7c1,0.5,2.1,1.9,3.4,2.6c0.6,0.3,1.3,0.7,2.3,0.6C50.2,20.7,52.3,19.7,51.3,19.1z M47.4,9.3
				c0.1,0.4-0.2,0.8-0.7,0.9C46.5,9.8,46.8,9.2,47.4,9.3z M46.7,15c-0.1-0.2-0.2-0.2-0.2-0.4C46.5,13.5,48.7,15.1,46.7,15z
				 M41.6,18.7c-0.2,0.2-0.4,0.4-0.7,0.5c-0.2-1.4,0.3-2.2,0.5-3.3c0.1,0.5,0,0.7,0.4,1c0.2,0.2,0.6,0.2,0.6,0.5
				C42.5,17.7,41.8,18.5,41.6,18.7z M45.4,17.6c-0.6,0-0.8-0.3-1.1-0.6c0.1-0.4,0.7-0.2,1-0.4C45.7,16.6,45.6,17.4,45.4,17.6z
				 M45.1,12.1c-0.4,0-0.3-0.3-0.7-0.3c-0.4,0.1-0.2,0.7-0.3,1c0.3,0.1,0.7,0,0.8,0.2c-0.4,0.4-0.9,0.7-0.7,1.6
				c0.4,0.2,0.7-0.1,1.1-0.1c0.2,0.1,0.2,0.4,0.1,0.6c-0.6,0-0.8,0.4-1.6,0.3c0.2-0.4-0.2-0.1-0.3-0.2c-0.1-0.5-0.3-0.9-0.6-1.2
				c0.2-0.7,0.6-1.6,0.3-2.5c0.8-0.1,1.7-0.5,2.4-0.4C45.8,11.8,45.4,11.9,45.1,12.1z"/>
			<g>
				<path class="st2" d="M64.8,11.7c-0.4,0-0.8,0-1.1,0c-1.4,0.1-2.9,0.8-4.1,0.9c-0.1-0.1-0.3-0.2-0.4-0.3c0.6-0.5,1.2-1.1,2-1.5
					c0.2,0,0.2,0.2,0.5,0.2c1.1-1,3-1.3,2.8-3.4c-0.1-0.1-0.2-0.2-0.3-0.3c-1.9-0.2-2.5,0.8-4.2,0.9c-0.1,0.3,0.4,0.4,0.5,0.8
					c0.2,0.5,0.4,0.8,0.6,1.1c-0.6,0.8-1.3,1.7-2.1,2.3c-0.2,0.2-0.5,0.2-0.5,0.4c-0.2,0.5,0.3,1.1,0.8,1.2c0.9,0.2,1.6-0.5,2.3-0.5
					c0.3,0.1,0.4,0.4,0.5,0.6c0.1,0.2,0.4,0.5,0.5,0.8c0.3,1.1-0.2,2.5,0,3.7c-0.6,0.8-1.6,1.3-2.5,2c0,0.5,0.8,0.3,1.4,0.3
					c1,0,2,0.1,2.3-0.3c0.5-1.1,0.1-3,0.3-4.5c0.1-0.6,0.2-1.2,0.1-1.7c-0.2-0.3-0.7-0.6-0.5-1c0.4-0.9,2.5,0.5,3.4,0
					c0-0.4,0-0.9,0-1.3C66.4,11.2,65.7,11.6,64.8,11.7z"/>
				<path class="st2" d="M58.8,10.9c0.1-0.4-0.1-0.8,0-1.2c-0.1-0.2-0.4-0.2-0.4-0.4C58.9,8,58.5,6.4,57,6.4c0,0.2,0,0.5,0,0.7
					C56.5,7.9,55.8,9,55.3,10c-0.3,0.5-0.8,1-0.4,1.4c1.2,0.3,2-0.1,2.6-0.5c-0.2,0.4-0.4,0.6-0.8,0.9c-0.1,0.2-0.2,0.5-0.4,0.6
					c-0.5,1.3-1.7,2.1-2.7,3.1c1.4,0.4,1.9-0.8,2.6-1.1c-0.1,1.4-0.5,3.8,0.1,5.2c0.3,0,0.8,0.1,0.9-0.1c0-1.9,0.5-3.4,0.4-5.3
					c-0.2-0.3-0.4-0.4-0.4-0.7c-0.1-0.6,0.3-0.7,0.6-1.1c0.1-0.2,0.1-0.4,0.3-0.6C58.3,11.3,58.7,11.1,58.8,10.9z"/>
			</g>
			<g>
				<path class="st2" d="M95.6,18.8c-0.7-0.5-1.1-1-1.6-1.6c0.4-1.2,1-2.2,1-3.7c-0.2-0.3-0.9-0.2-1.4-0.3c-0.4-1.2,0.7-1.5,1.5-1.7
					c0.3-0.6,0-1.3-0.3-1.7c-0.5,0-1.1-0.1-1.2-0.5c-0.1-0.3,0.2-0.5,0.3-0.9c0.2-1.2-0.2-2.4-1.5-2.3c0,0.4-0.2,0.8-0.2,1.2
					c0,0.2,0.2,0.4,0.3,0.5c0.1,0.5-0.2,1.2-0.3,1.8c0,0.4,0,0.7,0,1.2c-0.3,0.4-0.7,0.6-1.3,0.7c0,0.2,0,0.3,0,0.5
					c-0.7,0.5-0.5,2-1.6,2.2c-0.2-0.2-0.1-0.7-0.1-1.1c0.3-0.3,0.4-0.5,0.8-0.6c0.1-0.7,0.5-0.9,0.3-1.7C89.1,10.2,90,8.9,89.9,8
					c-0.3-0.4-0.5-1.1-1.3-1.1c-0.1,1.2-0.2,2.4-0.1,3.7c-0.7,0.7-1.5,1.3-2.8,1.5c0.2,0.8,0.4,1.6,1,1.7c0.7,0.1,0.8-0.5,1.3-0.4
					c0.5,0.1,0.4,1,0.3,1.3c-0.4,0.6-2,1.5-2.7,1.9c0,0.4,0,0.8,0,1.2c0.6,0.8,1.8,1.7,2.4,2.5c0.3,0.3,0.2,0.7,0.8,0.5
					c0.6-1.3,0.1-3,0.3-4.8c0.7-0.8,1.2-1.8,1.4-3c0.3-0.2,0.3-0.4,0.7-0.4c1.3-0.1,1.6,2.2-0.3,2c-0.4,0.9,0.4,1.1,0.8,1.6
					c0.1,0.2,0.2,0.5,0.4,0.8c0.3,0.7,0.5,0.9-0.2,1.3c-0.8,0.4-1.7,0.7-2.6,0.9c-0.1,0.4,0.3,0.5,0.4,0.7c1.4,0.1,2.2-0.4,3.1-0.8
					c1,0.4,1.1,2,2.4,1.6c0.8,0.5,2,0,2.9,0C98,19.4,96.5,19.4,95.6,18.8z M87.7,18.9c-0.5,0.1-1.2-0.3-1-0.9c0.1-0.5,1-1.1,1.3-1.2
					C88.2,17.4,88.3,18.7,87.7,18.9z M93.3,16.4c-0.5-0.1-0.6-0.5-0.8-0.9c0.3-0.4,0.6-0.7,1.1-0.8C93.6,15.3,93.5,15.9,93.3,16.4z"
					/>
			</g>
			<g>
				<path class="st2" d="M76,9.5c0.1,0.3,0.4,0.4,0.4,0.9c0.6-0.1,0.7-0.1,1.3,0c0.5-1,0-2.4-1.4-2.2C76,8.5,76,9,76,9.5z"/>
				<path class="st2" d="M79.9,12.9c-0.1-0.4,0-1.1,0-1.9c0-1.6,0.2-2.6,0.1-4.1c-0.3-0.2-0.6-0.4-1.2-0.3c-0.4,0.4,0,0.7,0.1,1.1
					c0.3,1.8-0.3,4.4-0.2,6.1c-1.2,0.2-2.2,0.8-3.3,1.2c0.4-0.9,0.6-1.9,1.9-1.9c0.4-0.2,0.4-1.1,0.2-1.5c-0.5-0.3-1.2-0.3-1.6-0.6
					c-0.1,0.7,0,1.3,0.4,1.7c-0.4,0.7-0.7,1.9-1.4,2.2c0-0.3,0-0.6-0.3-0.6c-0.4,0-0.3,0.5-0.8,0.5c0.1-0.4,0.1-0.9,0.1-1.4
					c0.1-0.5,1.1-0.6,1.2-1.1c0.1-0.4-0.2-0.6-0.3-1c-0.3,0-0.5,0-0.6-0.1c0.1-0.8-0.2-2.1,0.8-2.1c0.1-1-0.3-1.9-1.2-1.7
					c-0.3,0-0.4,0.4-0.7,0.5c-0.3,0.1-0.8,0.1-1.1,0.3c-0.4,0.3-0.6,0.6-0.8,0.9c0.4,0,0.5,0.4,0.8,0.5c0.5-0.1,0.7,0.3,0.9,0.5
					c0,0.6,0,1.2,0,1.8C72,12.5,71,13,70.1,13.7c-0.2,0-0.3,0-0.4-0.1c0,0.5,0.3,0.9,0.5,1.2c1.4,0.3,1.3-0.8,2.3-0.9
					c-0.5,1.5-1.6,2.4-2.1,3.9c0.2,0.3,0.3,0.7,0.6,0.9c1-0.1,1.2-0.9,1.9-1.2c0.4,0.7-0.4,2.5,0.8,2.5c0-1,0-2,0-3
					c0.4-0.6,0.8-1.1,1.3-1.6c0.2,0.2,0.2,0.7,0.4,1c1.6,0.1,1.8-1.1,3.3-1.1c0.6,1.5,0,4.2,0.3,5.9c0,0.3,0.1,0.7,0.5,0.8
					c1-1.6,0.5-4.4,0.6-6.7c0.2-0.1,0.2-0.4,0.4-0.4c0.6,0,1.2,0,1.9,0c0-0.4,0-0.7,0.1-1C81.9,13.2,80.2,13.7,79.9,12.9z"/>
			</g>
			<g>
				<path class="st2" d="M109.1,16.6c-0.5-0.4-1.1-1.5-1.9-0.9c-0.4,2.9,2.4,3.1,3.5,4.7c0.7,0.1,0.8-0.4,1.4-0.3
					c0-0.6-0.3-1.2-0.6-1.7C110.9,17.6,110,16.9,109.1,16.6z"/>
				<path class="st2" d="M108.5,12.9c0.4-0.1,0.6-0.4,1.2-0.4c0.2-0.2,0.3-0.4,0.7-0.4c0-0.4,0.2-0.5,0.1-0.9
					c-0.5-0.5-1.7-0.7-2.7-0.4c-0.2,0.4-0.4,0.7-1,0.6c-0.2-1.1,0.2-3.2-0.1-4.4c-0.6-0.2-1-0.6-1.8-0.6c0.1,1.9,0.4,3.5,0.3,5.5
					c-0.6,0.7-2,1.3-3.3,1.1c-0.2,0.3-0.5,0.3-0.5,0.5c-0.3,0.8,1,1.3,1.4,1.7c0.8,0.2,1.3-0.4,1.9-0.1c-0.2,1.3-0.7,3-2,3.3
					c-0.6,0.1-1.4,0-1.4,0.5c0,0.2,1.1,1,1.2,1c1.2,0.3,2.6-0.6,2.9-1.2c0.7-0.9,1-2.3,1.2-3.5c0.1-0.3,0-0.7,0.1-1
					c0.1-0.5,0.8-1.1,1.3-1.2C108,12.9,108.3,13,108.5,12.9z"/>
			</g>
			<g>
				<path class="st2" d="M123.8,15.5c-1.1-0.6,0.4-1.1,0.7-1.6c0.1-0.6-0.1-1.1-0.4-1.4c-0.8-0.3-1.3,0.4-2.1,0.5
					c-0.8,0.1-2.3-0.2-2.2,0.8c0.5,0.4,1.5,0.1,2-0.1c0.9,0.4-0.3,0.9-0.3,1.4c0,0.3,0.2,0.2,0.3,0.6c-0.7,0.2-1.4,0.5-2.4,0.4
					c-0.1,1.7,2.7,0.8,3.5,0.4c0.6,0.1,0.5,1.5,0.3,2c-0.5,0.8-2.4,1.1-3.5,1.1c0,0.3-0.3,0.3-0.3,0.6c1.2,0.8,3.2,0.2,4.5-0.1
					c0.6-0.7,0.6-2,0.5-3.4c0.2-0.1,0.2-0.3,0.5-0.3c0.4,0.2,1.1,0.1,1.6,0.1C127,15.2,125.1,15.2,123.8,15.5z"/>
				<path class="st2" d="M115.9,12.5c-0.8,1.1-0.1,2.9,1.8,2.5c0.1-1.2-1-1.5-1.2-2.5C116.2,12.5,116,12.5,115.9,12.5z"/>
				<path class="st2" d="M127.9,11.6c-0.9-0.8-2.8,0.4-2.6-1.3c0.1-0.6,0.5-1.5,0.9-2c0.4-0.5,1-0.6,0.8-1.5
					c-0.3-0.7-3.1-1.5-3.3-0.3c1.3-0.1,1,1.4,0.4,1.9c-0.3-0.1-0.3-0.4-0.5-0.5c-0.3,0-0.4,0.1-0.6,0.2c0,0.3,0,0.6-0.3,0.6
					c-1-0.5,0-1.1-0.2-2.2c-0.3-0.1-0.4-0.3-0.8-0.3c0.3,1.2-0.8,1.5-0.4,2.6c0.4,0.1,0.5-0.1,0.8-0.1c0.3,0.4,0,0.9-0.4,1
					c-0.5,0.1-1-0.5-1.1-0.9c-0.2-0.8,0.3-1.7-0.4-2.1c-0.3-0.2-0.7-0.2-1.3-0.2c0.1,0.4,0.6,0.5,0.8,0.9c0.4,0.8,0.2,2.6,0.1,3.6
					c-0.7-1.3-0.3-3.8-2.8-3.5c-0.1,0.6,0.5,0.8,0.8,1.2c0.6,0.8,0.5,2.1,1,3c-0.4,0.5-2,0-2.1,0.9c0.2,0.3,0.5,0.5,1.2,0.4
					c0.6-0.1,1.4-0.4,2.2-0.5c0.4-0.1,1-0.3,1.4-0.3c1.2-0.2,2,0,3.3,0.1c0.3-0.4,0.9-0.6,1.5-0.3c-0.2,0.3-0.6,0.4-0.8,0.6
					c0.3,0,0.4,0,0.5,0.2c0.1,0.2-0.2,0.2-0.1,0.4c0.9-0.1,1.5,0.1,2.2,0.1C128.3,12.3,128.3,12,127.9,11.6z M120.9,11.1
					c-0.2-0.2-0.2-1.1,0.1-1.2C121.6,10,121.9,11.2,120.9,11.1z M122.1,11.4c0-0.1-0.1-0.1-0.1-0.1c-0.1-0.4,0.4-0.4,0.5-0.2
					C122.4,11.3,122.3,11.4,122.1,11.4z M123.1,10.4c-0.3-0.1-0.6-0.7-0.1-0.8c0.3,0.1,0.4,0.3,0.5,0.6
					C123.4,10.3,123.3,10.4,123.1,10.4z M123.6,9.6c-0.2-0.1-0.6-0.2-0.8-0.3C122.9,8.1,124.8,8.8,123.6,9.6z"/>
			</g>
		</g>
		<g>
			<path class="st3" d="M174.9,10.2c0.3-0.3,0.6-0.7,1-1.2c-0.9,0.1-1.6-0.2-2.2,0.4c-0.2,0.2-0.4,0.2-0.7,0.1
				c-1.2-0.4-2.1,0.1-2.2,1.3c0,0.2,0,0.4-0.1,0.5c-0.2,0.3-0.4,0.8-0.8,0.7c-0.4-0.1-0.3-0.5-0.3-0.9c0-0.8,0-1.7,0.4-2.4
				c0.2-0.3,0.3-0.5,0.7-0.3c0.7,0.4,1.4-0.1,2.1-0.2c0.3,0,0.2-0.4,0-0.6c-0.2-0.2-0.4-0.3-0.5-0.5c-0.1-0.2-0.2-0.4-0.1-0.6
				c0.2-0.3,0.4-0.2,0.6-0.2c0.8,0.1,1.5,0.7,1.6,1.6c0,0.3,0.2,0.4,0.4,0.4c0.5-0.1,1,0.1,1.5-0.1c0.4-0.2,0.6,0.1,0.8,0.4
				c0.3,0.4,0.6,0.7,0.4,1.2c-0.1,0.3-0.4,0.3-0.6,0.3C176.3,9.8,175.6,9.9,174.9,10.2z"/>
			<path class="st3" d="M167.3,8.3c-0.2,0.3-0.3,0.4-0.4,0.6c-0.4,0.4-0.6,0.8,0.2,1.1c0.4,0.1,0.4,0.5,0.4,0.9
				c0,0.2-0.1,0.4-0.3,0.4c-0.4,0-0.7-0.1-0.9-0.4c-0.1-0.2-0.2-0.3-0.3-0.5c-1.2,1.1-1.5,2.7-2.8,3.6c0.2-1.7,0.8-3.1,1.5-4.5
				c0.5-1,1.1-1.9,1.9-2.7c0.2-0.2,0.4-0.5,0.6-0.4s0.4,0.4,0.4,0.8c-0.1,0.5,0.1,0.7,0.6,0.7c0.5,0.1,0.9,0.3,1.1,0.8
				c0.1,0.3,0.2,0.7-0.2,0.9c-0.4,0.2-0.6,0-0.9-0.3C167.9,9,167.6,8.7,167.3,8.3z"/>
			<path d="M144.9,12.7c-0.1-2-0.1-4.8-0.1-4.8c-0.4-1.1-0.7-1.2-1.8-1c-0.1,0-0.4,0-0.5,0c-2.1-0.3-4.1-0.1-6.1,0.3
				c-0.5,0.1-1.1,0.3-1.5-0.2c-0.2-0.2-0.4,0-0.5,0.2c-0.1,0.3-0.2,0.5-0.3,0.8c-0.3,3.1-0.4,5.1-0.3,7.7c0,0.8,0,1.6,0,2.3
				c0,0.6,0,1.3,0.4,1.9c0.3,0.7,0.4,0.7,0.7,0.3c0.1-0.2,0.3-0.3,0.4-0.3c2.1-0.4,4.2-0.5,6.3-0.4c0.4,0,0.5,0.2,0.6,0.6
				c0.1,0.6,0.6,0.7,1,0.4c1-0.6,1.5-1.3,1.6-2.6C144.9,16.2,144.9,14.1,144.9,12.7z M143.3,17.9c0,0.2-0.1,0.4-0.2,0.6
				c-0.2,0.4-0.4,0.6-0.7,0.2c-0.4-0.5-1.1-0.6-1.7-0.5c-1.8,0.2-3.5,0.4-5.3,0.6c-0.4,0.1-0.3,0-0.3-0.5c-0.2-2.8-0.2-5.7,0.2-8.4
				c0.1-1,0.2-1.2,1.5-1.3l0,0c1.4-0.5,2.8-0.4,4.3-0.6c0.3,0,0.6,0,0.9-0.1c0.8-0.3,1.2,0.1,1.2,0.7
				C143.7,11.8,143.6,14.8,143.3,17.9z"/>
			<path d="M161.1,9c-0.2-0.4-0.6-0.6-1.1-0.5c-0.4,0-0.8,0.1-1.2,0.2c-0.2,0-0.4,0.1-0.5-0.2c-0.4-1.1-1.4-1.2-2.4-1.3
				c-0.4,0-0.6,0-0.7-0.5c0-0.4-0.3-0.6-0.7-0.6c-0.4,0-0.6,0.3-0.7,0.6c-0.1,0.5-0.4,0.7-0.8,0.7c-0.2,0-0.4,0.1-0.7,0.1
				c-0.3,0.1-0.7,0.1-0.7,0.4c0,0.4,0.3,0.6,0.7,0.7c0.2,0,0.5,0,0.7,0c0.2,0,0.5-0.3,0.6,0.2c0.1,0.5-0.3,0.4-0.5,0.4
				c-1.6,0.3-2.9,0.4-4.5,0.9c-0.4,0.1-0.8,0.3-0.8,0.7c0.1,0.4,0.4,0.7,0.9,0.7c0.4,0,0.5,0,0.9-0.1c1.2-0.2,2.2-0.9,3.4-1.2
				c0.2-0.1,0.5-0.3,0.6,0.1c0.1,0.3,0.1,0.7-0.4,0.8c-0.4,0-0.8,0.2-1.2,0.3c-0.3,0.1-0.6,0.3-0.6,0.6c0,0.4,0.4,0.5,0.8,0.5
				c0.4,0,0.9-0.1,1.4-0.2c0.2,0.4,0,0.6-0.4,0.7c-0.4,0-0.7,0.1-1.1,0.2c-0.3,0.1-0.4,0.3-0.4,0.6c0,0.3,0.3,0.4,0.6,0.4
				c0.3,0,0.6-0.1,0.9-0.1c0.2,0,0.4-0.4,0.5,0.1c0.1,0.4-0.2,0.4-0.5,0.4c-0.8,0.1-1.7,0.3-2.5,0.4c-0.4,0.1-0.6,0.3-0.6,0.7
				c0,0.4,0.4,0.5,0.7,0.5c0.2,0,0.3,0,0.5,0c2.4-0.3,4.6-0.9,7-1.3c0.3-0.1,0.7-0.2,0.6-0.6c-0.1-0.5-0.4-0.5-0.8-0.5
				c-0.7,0.1-1.5,0.3-2.2,0.4c-0.2,0-0.5,0.4-0.7-0.1c-0.1-0.5,0.3-0.5,0.6-0.6c0.4-0.1,0.9-0.2,1.3-0.4c0.3-0.1,0.4-0.2,0.4-0.5
				c0-0.3-0.3-0.4-0.6-0.4c-0.4,0-0.8,0.2-1.2,0.2c-0.2,0-0.5,0.3-0.6-0.1c-0.1-0.4,0.2-0.5,0.5-0.6c0.5-0.1,1.1-0.2,1.6-0.5
				c0.3-0.1,0.5-0.3,0.4-0.6c-0.2-0.7,0.2-0.9,0.8-0.8c0.7,0.1,1.4,0.1,2.1,0.2C161.3,9.8,161.3,9.4,161.1,9z M155.5,10.4
				c-0.4,0.1-0.2-0.2-0.2-0.3c-0.1-0.8,0.6-0.4,0.9-0.6c0.2,0,0.5-0.1,0.5,0.2C156.5,10.4,155.9,10.3,155.5,10.4z M156.5,8.8
				c-0.2,0-0.4,0.1-0.5,0.1c-0.2,0-0.6,0.3-0.6-0.2c0-0.4,0.3-0.4,0.5-0.4c0.1,0,0.2,0,0.3,0l0,0c0.1,0,0.2,0,0.3,0
				c0.2,0.1,0.6,0,0.6,0.3C157.1,8.9,156.7,8.8,156.5,8.8z"/>
			<path d="M172.9,14.9c0.5,0,1-0.2,1.4-0.4c0.4-0.1,1.1-0.2,1.2-0.7c0.2-0.8,0.6-1.4,0.9-2.1c0.2-0.5-0.2-1-0.8-1
				c-0.8,0.1-1.5,0.2-2.3,0.3c-0.4,0.1-0.6,0.1-0.8-0.3c-0.2-0.4-0.5-0.3-0.8,0c-0.4,0.5-0.6,1.1-0.7,1.8c-0.2,1.3-0.1,2.6-0.1,3.8
				c0,1.4,0,2.8,0.4,4.3c0.1,0.3,0.2,0.6,0.5,0.6c0.3,0,0.5-0.3,0.5-0.6c0.1-0.2,0.1-0.4,0.4-0.4c1-0.1,2.2-0.1,3.1-0.4
				c0.4-0.1,0.6-0.3,0.6-0.8c-0.1-0.6-0.5-0.3-0.8-0.4c0.2-0.5,0.2-1.4,0.4-1.8c0.3-0.4,0.5-0.8,0.2-1.2c-0.3-0.4-0.7-0.5-1.2-0.4
				c-0.9,0.2-1.9,0.4-2.7,0.6C172.1,15.2,172.2,14.9,172.9,14.9z M172.8,12.5c0.4-0.2,0.7-0.3,1.1-0.4c0.3,0,0.6-0.4,0.9,0
				c0.2,0.3-0.1,0.5-0.3,0.8c-0.4,0.8-1.1,0.8-1.8,0.9c-0.1,0-0.4,0.1-0.4-0.2C172.5,13.3,172.3,12.7,172.8,12.5z M172.9,17
				c0.9-0.1,0.5-0.1,1.2-0.4c0.2-0.1,0.4-0.1,0.4,0.2c0.3,1.9,0.2,1.7-1.2,1.9c-1,0.2-1.1,0.1-1.1-1C172.1,17.3,172.4,17.1,172.9,17
				z"/>
			<path class="st3" d="M169.3,17.9c-0.1-0.7-0.4-1.2-1.1-1.4c-0.4-0.2-0.7,0-0.6,0.5c0.2,0.5-0.1,0.6-0.4,0.8
				c-0.4,0.2-0.9,0.3-1.4,0.5c0-0.3,0-0.4,0-0.6c-0.2-0.8,0.2-1.1,0.9-1.2c0.8-0.2,1.4-0.5,1.8-1.4c0.3-0.8,0.6-1.6,0.6-2.5
				c0-0.9-0.4-1.1-1.2-0.9c-0.6,0.2-1.2,0.3-1.8,0.4c-1.1,0.1-1.2,0.3-1.3,1.4c-0.1,1.6-0.1,3.2-0.1,4.8c0,0.3,0,0.6-0.4,0.8
				c-0.4,0.2-0.7,0.7-0.4,1.1c0.3,0.4,0.7,0.3,1.1,0.2c0.9-0.4,1.7-1,2.5-1.6c0.3-0.3,0.5-0.5,0.9-0.1c0.2,0.2,0.4,0.2,0.7,0.1
				C169.3,18.4,169.3,18.1,169.3,17.9z M165.7,15.3c0-0.2-0.1-0.5,0.3-0.6c0.3-0.1,0.5-0.2,0.8-0.4c0.3-0.2,0.5-0.4,0.3-0.8
				c-0.2-0.4-0.5-0.1-0.7,0c-0.1,0-0.2,0.1-0.4,0.2c-0.1-1.4,1.3-0.9,1.8-1.5c0.1,0.9,0,1.7-0.2,2.4c-0.1,0.3-1.4,1-1.6,0.9
				C165.7,15.5,165.7,15.4,165.7,15.3z"/>
			<path d="M156.8,15.8c-0.1,0-0.2,0-0.2,0c-1.2,0-2.5,0.3-3.7,0.6c-0.2,0.1-0.4,0.2-0.7,0.1c-0.8-0.2-1,0-1,0.8c0,1,0.3,2,0.7,2.9
				c0.3,0.6,0.7,0.8,1.4,0.6s1.6-0.9,2.3,0c0.1,0.1,0.3,0.1,0.4,0c0.6-0.3,1.2-0.4,1.5-1.1c0.5-0.9,0.7-1.8,0.8-2.6
				C158.3,15.9,158,15.6,156.8,15.8z M156.4,17.9c-0.1,0.4-0.2,0.9-0.4,1.3c-0.3,0.5-0.8,0.1-1.2,0.2c-0.3,0.1-0.5,0.1-0.8,0.2
				c-1.1,0.3-1.1,0.3-1.3-0.9c-0.3-1.1-0.3-1.1,0.9-1.4c0.8-0.2,1.5-0.4,2.3-0.7c0.4-0.1,0.6-0.1,0.6,0.3
				C156.5,17.4,156.5,17.6,156.4,17.9z"/>
			<path class="st4" d="M154,19c-0.4,0-0.7,0-0.8-0.4c-0.1-0.4,0.3-0.5,0.6-0.6c0.4-0.1,0.9-0.3,1.3-0.4c0.2-0.1,0.5-0.2,0.7,0.2
				c0.1,0.3-0.1,0.5-0.3,0.7C155,18.8,154.5,19,154,19z"/>
			<path d="M136.9,8.5L136.9,8.5L136.9,8.5C136.9,8.5,136.9,8.5,136.9,8.5z M139.3,12.7c0.8,0,1.6-0.2,2.5-0.1c0.4,0.1,1,0.1,1-0.5
				c0-0.6-0.4-0.9-1-0.8c-0.5,0-1,0.1-1.5,0.2c-0.7,0.1-0.7,0.1-0.9-0.6c1.1-0.1,1.8-0.6,2-1.4c0.2-0.6-0.3-1.2-0.9-1.1
				c-1.2,0.3-2.4,0.7-3.7,0.2c-0.7,0.9-0.5,1.9,0.5,3c0.3,0.1,0.4,0,0.6-0.2c0.1-0.1,0.3-0.2,0.5-0.1c0.1,0,0,0.2,0.1,0.3
				c0,0.2-0.2,0.3-0.4,0.3c-0.2,0-0.3,0-0.4,0c-0.6,0.1-1.2,0.2-1.8,0.3c-0.4,0.1-0.8,0.2-0.6,0.8c0.2,0.5,0.5,0.6,1,0.4
				c0.4-0.1,0.9-0.3,1.4-0.2c-0.2,0.7-0.2,0.7-0.8,0.6c-0.9-0.1-1.1,0.1-1,1c0.1,0.9,0.3,1.7,0.7,2.5c0.3,0.6,0.4,1.4,1.4,0.7
				c0.1,0,0.2,0,0.2,0c0.9-0.1,1.8-0.3,2.6-0.4c0.3,0,0.6,0,0.8-0.4c0.5-0.9,0.9-1.9,0.9-2.9c0-0.8-0.3-0.9-1.1-0.8
				c-1,0.2-2,0.2-3.2,0.2C138.7,13.2,138.8,12.7,139.3,12.7z M140.9,14c0.2-0.1,0.3,0.1,0.2,0.3c0,0.3,0,0.6-0.1,0.9
				c-0.3,1.3-0.6,1.5-2,1.6l0,0c-0.2,0.1-0.4,0.1-0.6,0.1c-1.2,0.1-1.2,0.2-1.3-1.1c0-0.2,0-0.3-0.1-0.4c-0.2-0.6,0.1-0.9,0.7-0.8
				c-0.3,0.7-0.1,1.3,0.2,1.9c0.2,0.3,0.4,0.5,0.7,0.1c0.1-0.3,0.3-0.3,0.5-0.3c0.6,0.1,0.9-0.4,1.1-0.8c0.2-0.3,0.2-0.5-0.1-0.8
				c-0.2-0.3-0.4-0.2-0.7-0.1c-0.5,0.2-1.1,0.2-1.6,0C138.9,14.2,140,14.3,140.9,14z M138.6,15.8c0.1-0.5,0.6-0.3,1-0.6
				c0,0.7-0.4,0.8-0.8,0.8C138.6,16,138.5,15.9,138.6,15.8z M138.1,10.4c-0.2,0-0.2-0.1-0.3-0.3c0-0.2,0-0.3,0.3-0.4
				c0.7-0.2,1.3-0.4,2.1-0.5C139.8,10,138.7,10.5,138.1,10.4z"/>
		</g>
		<g>
			<g>
				<path class="st2" d="M42.3,28.3c-0.3,0.2-0.6,0.2-1.1,0.2c-0.5,0-1-0.2-1.3-0.5c-0.3-0.4-0.5-0.8-0.5-1.4c0-0.6,0.2-1.1,0.6-1.5
					s0.8-0.6,1.4-0.6c0.4,0,0.7,0.1,0.9,0.2v0.5c-0.3-0.2-0.6-0.2-0.9-0.2c-0.4,0-0.8,0.2-1.1,0.4c-0.3,0.3-0.4,0.7-0.4,1.2
					c0,0.5,0.1,0.9,0.4,1.1c0.3,0.3,0.6,0.4,1,0.4c0.4,0,0.7-0.1,1-0.3C42.3,27.8,42.3,28.3,42.3,28.3z"/>
				<path class="st2" d="M45.3,28.5h-0.4v-1.6c0-0.6-0.2-0.9-0.6-0.9c-0.2,0-0.4,0.1-0.5,0.3c-0.2,0.2-0.2,0.4-0.2,0.6v1.6H43v-4.1
					h0.4v1.8l0,0c0.2-0.4,0.5-0.5,0.9-0.5c0.6,0,0.9,0.4,0.9,1.1L45.3,28.5L45.3,28.5z"/>
				<path class="st2" d="M46.4,25c-0.1,0-0.2,0-0.2-0.1c-0.1-0.1-0.1-0.1-0.1-0.2c0-0.1,0-0.2,0.1-0.2c0.1-0.1,0.1-0.1,0.2-0.1
					c0.1,0,0.2,0,0.2,0.1c0.1,0.1,0.1,0.1,0.1,0.2c0,0.1,0,0.2-0.1,0.2C46.6,25,46.5,25,46.4,25z M46.6,28.5h-0.4v-2.8h0.4V28.5z"/>
				<path class="st2" d="M49.7,27.2h-2c0,0.3,0.1,0.5,0.3,0.7c0.2,0.2,0.4,0.3,0.6,0.3c0.3,0,0.6-0.1,0.9-0.3v0.4
					c-0.3,0.2-0.6,0.3-1,0.3s-0.7-0.1-0.9-0.4c-0.2-0.3-0.3-0.6-0.3-1.1c0-0.4,0.1-0.8,0.4-1.1c0.3-0.3,0.5-0.4,0.9-0.4
					c0.4,0,0.6,0.1,0.8,0.4c0.2,0.2,0.3,0.5,0.3,1L49.7,27.2L49.7,27.2z M49.3,26.8c0-0.3-0.1-0.4-0.2-0.6C49,26.1,48.8,26,48.6,26
					c-0.2,0-0.4,0.1-0.5,0.2c-0.2,0.2-0.2,0.4-0.3,0.6L49.3,26.8L49.3,26.8z"/>
				<path class="st2" d="M52.7,28.5h-0.4v-1.6c0-0.6-0.2-0.9-0.6-0.9c-0.2,0-0.4,0.1-0.5,0.3c-0.2,0.2-0.2,0.4-0.2,0.6v1.6h-0.4
					v-2.8h0.4v0.4l0,0c0.2-0.4,0.5-0.5,0.9-0.5c0.3,0,0.5,0.1,0.7,0.3c0.2,0.2,0.3,0.5,0.3,0.9L52.7,28.5L52.7,28.5z"/>
				<path class="st2" d="M58,28.5h-0.4v-1.8h-2v1.8h-0.4v-3.9h0.4v1.7h2v-1.7H58V28.5z"/>
				<path class="st2" d="M58.8,28.4v-0.5c0.3,0.2,0.5,0.3,0.8,0.3c0.4,0,0.6-0.1,0.6-0.4c0-0.1,0-0.1-0.1-0.2c0-0.1-0.1-0.1-0.1-0.1
					c-0.1,0-0.1-0.1-0.2-0.1c-0.1,0-0.2-0.1-0.3-0.1c-0.1-0.1-0.2-0.1-0.3-0.2C59.2,27,59.1,27,59,26.9c-0.1-0.1-0.1-0.1-0.1-0.2
					c0-0.1,0-0.2,0-0.3c0-0.1,0-0.3,0.1-0.4c0.1-0.1,0.1-0.2,0.2-0.3c0.1-0.1,0.2-0.1,0.4-0.2c0.1,0,0.3-0.1,0.4-0.1
					c0.3,0,0.4,0,0.6,0.1v0.4C60.4,26,60.1,26,59.9,26c-0.1,0-0.2,0-0.2,0c-0.1,0-0.1,0-0.2,0.1c0,0-0.1,0.1-0.1,0.1
					c0,0,0,0.1,0,0.2c0,0.1,0,0.1,0,0.2c0,0.1,0.1,0.1,0.1,0.1s0.1,0.1,0.2,0.1c0.1,0,0.2,0.1,0.3,0.1c0.1,0,0.2,0.1,0.3,0.2
					c0.1,0.1,0.2,0.1,0.3,0.2c0.1,0.1,0.1,0.1,0.2,0.2c0,0.1,0.1,0.2,0.1,0.3c0,0.1,0,0.3-0.1,0.4c-0.1,0.1-0.1,0.2-0.3,0.3
					c-0.1,0.1-0.2,0.1-0.4,0.2c-0.1,0-0.3,0-0.4,0C59.3,28.5,59,28.5,58.8,28.4z"/>
				<path class="st2" d="M61.6,25c-0.1,0-0.2,0-0.2-0.1c-0.1-0.1-0.1-0.1-0.1-0.2c0-0.1,0-0.2,0.1-0.2c0.1-0.1,0.1-0.1,0.2-0.1
					c0.1,0,0.2,0,0.2,0.1c0.1,0.1,0.1,0.1,0.1,0.2c0,0.1,0,0.2-0.1,0.2C61.7,25,61.6,25,61.6,25z M61.8,28.5h-0.4v-2.8h0.4V28.5z"/>
				<path class="st2" d="M65,28.5h-0.4v-1.6c0-0.6-0.2-0.9-0.6-0.9c-0.2,0-0.4,0.1-0.5,0.3c-0.2,0.2-0.2,0.4-0.2,0.6v1.6h-0.4v-2.8
					h0.4v0.4l0,0c0.2-0.4,0.5-0.5,0.9-0.5c0.3,0,0.5,0.1,0.7,0.3c0.2,0.2,0.3,0.5,0.3,0.9V28.5L65,28.5z"/>
				<path class="st2" d="M70.2,26.9c0,1.1-0.5,1.6-1.5,1.6c-0.9,0-1.4-0.5-1.4-1.6v-2.4h0.4v2.3c0,0.8,0.3,1.2,1,1.2
					c0.6,0,1-0.4,1-1.2v-2.4h0.4L70.2,26.9L70.2,26.9z"/>
				<path class="st2" d="M73.4,28.5H73v-1.6c0-0.6-0.2-0.9-0.6-0.9c-0.2,0-0.4,0.1-0.5,0.3c-0.2,0.2-0.2,0.4-0.2,0.6v1.6h-0.4v-2.8
					h0.4v0.4l0,0c0.2-0.4,0.5-0.5,0.9-0.5c0.3,0,0.5,0.1,0.7,0.3c0.2,0.2,0.3,0.5,0.3,0.9V28.5L73.4,28.5z"/>
				<path class="st2" d="M74.5,25c-0.1,0-0.2,0-0.2-0.1c-0.1-0.1-0.1-0.1-0.1-0.2c0-0.1,0-0.2,0.1-0.2c0.1-0.1,0.1-0.1,0.2-0.1
					c0.1,0,0.2,0,0.2,0.1c0.1,0.1,0.1,0.1,0.1,0.2c0,0.1,0,0.2-0.1,0.2C74.7,25,74.6,25,74.5,25z M74.7,28.5h-0.4v-2.8h0.4V28.5z"/>
				<path class="st2" d="M77.8,25.7l-1.1,2.8h-0.4l-1.1-2.8h0.5l0.7,2c0.1,0.2,0.1,0.3,0.1,0.4l0,0c0-0.1,0-0.3,0.1-0.4l0.7-2H77.8z
					"/>
				<path class="st2" d="M80.5,27.2h-2c0,0.3,0.1,0.5,0.3,0.7c0.2,0.2,0.4,0.3,0.7,0.3c0.3,0,0.6-0.1,0.9-0.3v0.4
					c-0.3,0.2-0.6,0.3-1,0.3c-0.4,0-0.7-0.1-0.9-0.4c-0.2-0.3-0.3-0.6-0.3-1.1c0-0.4,0.1-0.8,0.4-1.1c0.3-0.3,0.5-0.4,0.9-0.4
					s0.6,0.1,0.8,0.4c0.2,0.2,0.3,0.5,0.3,1L80.5,27.2L80.5,27.2z M80.1,26.8c0-0.3-0.1-0.4-0.2-0.6c-0.1-0.1-0.3-0.2-0.5-0.2
					s-0.4,0.1-0.5,0.2s-0.2,0.4-0.3,0.6L80.1,26.8L80.1,26.8z"/>
				<path class="st2" d="M82.6,26.2c-0.1-0.1-0.2-0.1-0.4-0.1c-0.2,0-0.4,0.1-0.5,0.3c-0.1,0.2-0.2,0.4-0.2,0.7v1.4h-0.4v-2.8h0.4
					v0.6l0,0c0.1-0.2,0.2-0.4,0.3-0.4c0.1-0.1,0.3-0.2,0.4-0.2c0.1,0,0.2,0,0.3,0L82.6,26.2L82.6,26.2z"/>
				<path class="st2" d="M82.9,28.4v-0.5c0.3,0.2,0.5,0.3,0.8,0.3c0.4,0,0.6-0.1,0.6-0.4c0-0.1,0-0.1-0.1-0.2c0-0.1-0.1-0.1-0.1-0.1
					c-0.1,0-0.1-0.1-0.2-0.1s-0.2-0.1-0.3-0.1c-0.1-0.1-0.2-0.1-0.3-0.2c-0.1-0.1-0.2-0.1-0.2-0.2c-0.1-0.1-0.1-0.1-0.1-0.2
					c0-0.1,0-0.2,0-0.3c0-0.1,0-0.3,0.1-0.4c0.1-0.1,0.1-0.2,0.2-0.3c0.1-0.1,0.2-0.1,0.4-0.2c0.1,0,0.3-0.1,0.4-0.1
					c0.3,0,0.4,0,0.6,0.1v0.4C84.5,26,84.2,26,84,26c-0.1,0-0.2,0-0.2,0c-0.1,0-0.1,0-0.2,0.1c-0.1,0-0.1,0.1-0.1,0.1
					c0,0,0,0.1,0,0.2c0,0.1,0,0.1,0,0.2s0.1,0.1,0.1,0.1c0.1,0,0.1,0.1,0.2,0.1c0.1,0,0.2,0.1,0.3,0.1c0.1,0,0.2,0.1,0.3,0.2
					c0.1,0.1,0.2,0.1,0.3,0.2c0.1,0.1,0.1,0.1,0.2,0.2c0,0.1,0.1,0.2,0.1,0.3c0,0.1,0,0.3-0.1,0.4c-0.1,0.1-0.1,0.2-0.3,0.3
					c-0.1,0.1-0.2,0.1-0.4,0.2s-0.3,0-0.4,0C83.4,28.5,83.2,28.5,82.9,28.4z"/>
				<path class="st2" d="M85.7,25c-0.1,0-0.2,0-0.2-0.1c-0.1-0.1-0.1-0.1-0.1-0.2c0-0.1,0-0.2,0.1-0.2c0.1-0.1,0.1-0.1,0.2-0.1
					c0.1,0,0.2,0,0.2,0.1c0.1,0.1,0.1,0.1,0.1,0.2c0,0.1,0,0.2-0.1,0.2C85.9,25,85.8,25,85.7,25z M85.9,28.5h-0.4v-2.8h0.4V28.5z"/>
				<path class="st2" d="M88.1,28.4c-0.1,0.1-0.3,0.1-0.4,0.1c-0.5,0-0.7-0.3-0.7-0.8v-1.6h-0.5v-0.4h0.5v-0.7l0.4-0.1v0.8h0.7v0.4
					h-0.7v1.6c0,0.2,0,0.3,0.1,0.4c0.1,0.1,0.2,0.1,0.3,0.1c0.1,0,0.2,0,0.3-0.1V28.4z"/>
				<path class="st2" d="M90.9,25.7L89.6,29c-0.2,0.6-0.5,0.9-1,0.9c-0.1,0-0.2,0-0.3,0v-0.4c0.1,0,0.2,0.1,0.3,0.1
					c0.2,0,0.4-0.1,0.5-0.4l0.2-0.5l-1.1-2.7h0.5l0.7,2.1c0,0,0,0.1,0.1,0.2h0c0,0,0-0.1,0.1-0.2l0.8-2.1L90.9,25.7L90.9,25.7z"/>
				<path class="st2" d="M94,28.5c-0.4,0-0.7-0.1-1-0.4c-0.3-0.3-0.4-0.6-0.4-1c0-0.5,0.1-0.8,0.4-1.1c0.3-0.3,0.6-0.4,1-0.4
					c0.4,0,0.7,0.1,1,0.4c0.2,0.3,0.4,0.6,0.4,1.1c0,0.4-0.1,0.8-0.4,1.1C94.8,28.4,94.5,28.5,94,28.5z M94.1,26
					c-0.3,0-0.5,0.1-0.7,0.3c-0.2,0.2-0.3,0.4-0.3,0.8c0,0.3,0.1,0.6,0.3,0.8c0.2,0.2,0.4,0.3,0.7,0.3s0.5-0.1,0.7-0.3
					c0.2-0.2,0.2-0.4,0.2-0.8c0-0.4-0.1-0.6-0.2-0.8C94.6,26.1,94.4,26,94.1,26z"/>
				<path class="st2" d="M97.5,24.8c-0.1-0.1-0.2-0.1-0.3-0.1c-0.3,0-0.5,0.2-0.5,0.6v0.4h0.6v0.4h-0.6v2.4h-0.4v-2.4h-0.5v-0.4h0.5
					v-0.4c0-0.3,0.1-0.5,0.3-0.7c0.2-0.2,0.4-0.3,0.6-0.3c0.1,0,0.3,0,0.3,0.1V24.8z"/>
				<path class="st2" d="M99.2,28.3v-0.5c0.1,0.1,0.1,0.1,0.2,0.2c0.1,0,0.2,0.1,0.3,0.1c0.1,0,0.2,0.1,0.3,0.1c0.1,0,0.2,0,0.3,0
					c0.3,0,0.5-0.1,0.6-0.2c0.1-0.1,0.2-0.3,0.2-0.4c0-0.1,0-0.2-0.1-0.3c0-0.1-0.1-0.2-0.2-0.2s-0.2-0.1-0.3-0.2
					c-0.1-0.1-0.2-0.1-0.4-0.2c-0.1-0.1-0.3-0.1-0.4-0.2c-0.1-0.1-0.2-0.2-0.3-0.2c-0.1-0.1-0.2-0.2-0.2-0.3
					c-0.1-0.1-0.1-0.2-0.1-0.4c0-0.2,0-0.3,0.1-0.4c0.1-0.1,0.2-0.2,0.3-0.3s0.3-0.2,0.4-0.2c0.2,0,0.3-0.1,0.5-0.1
					c0.4,0,0.7,0,0.8,0.1v0.5c-0.2-0.2-0.5-0.2-0.9-0.2c-0.1,0-0.2,0-0.3,0c-0.1,0-0.2,0.1-0.3,0.1c-0.1,0-0.1,0.1-0.2,0.2
					c-0.1,0.1-0.1,0.2-0.1,0.3s0,0.2,0.1,0.3c0,0.1,0.1,0.1,0.2,0.2c0.1,0.1,0.2,0.1,0.3,0.2c0.1,0.1,0.2,0.1,0.4,0.2
					s0.3,0.1,0.4,0.2c0.1,0.1,0.2,0.2,0.3,0.3c0.1,0.1,0.2,0.2,0.2,0.3c0.1,0.1,0.1,0.2,0.1,0.4c0,0.2,0,0.4-0.1,0.5
					c-0.1,0.1-0.2,0.3-0.3,0.3c-0.1,0.1-0.3,0.1-0.4,0.2c-0.2,0-0.4,0.1-0.5,0.1c-0.1,0-0.1,0-0.2,0c-0.1,0-0.2,0-0.3,0
					c-0.1,0-0.2,0-0.3-0.1C99.4,28.4,99.3,28.3,99.2,28.3z"/>
				<path class="st2" d="M104.2,28.3c-0.2,0.1-0.5,0.2-0.8,0.2c-0.4,0-0.7-0.1-1-0.4c-0.3-0.3-0.4-0.6-0.4-1c0-0.4,0.1-0.8,0.4-1.1
					c0.3-0.3,0.6-0.4,1.1-0.4c0.3,0,0.4,0,0.6,0.1v0.4c-0.2-0.1-0.4-0.2-0.7-0.2c-0.3,0-0.5,0.1-0.7,0.3c-0.2,0.2-0.3,0.5-0.3,0.8
					c0,0.3,0.1,0.6,0.3,0.8c0.2,0.2,0.4,0.3,0.7,0.3c0.3,0,0.5-0.1,0.7-0.3L104.2,28.3L104.2,28.3z"/>
				<path class="st2" d="M105.1,25c-0.1,0-0.2,0-0.2-0.1c-0.1-0.1-0.1-0.1-0.1-0.2c0-0.1,0-0.2,0.1-0.2c0.1-0.1,0.1-0.1,0.2-0.1
					c0.1,0,0.2,0,0.2,0.1c0.1,0.1,0.1,0.1,0.1,0.2c0,0.1,0,0.2-0.1,0.2C105.3,25,105.2,25,105.1,25z M105.3,28.5h-0.4v-2.8h0.4V28.5
					z"/>
				<path class="st2" d="M108.5,27.2h-2c0,0.3,0.1,0.5,0.3,0.7c0.2,0.2,0.4,0.3,0.6,0.3c0.3,0,0.6-0.1,0.9-0.3v0.4
					c-0.3,0.2-0.6,0.3-1,0.3s-0.7-0.1-0.9-0.4c-0.2-0.3-0.3-0.6-0.3-1.1c0-0.4,0.1-0.8,0.4-1.1c0.3-0.3,0.5-0.4,0.9-0.4
					c0.4,0,0.6,0.1,0.8,0.4c0.2,0.2,0.3,0.5,0.3,1L108.5,27.2L108.5,27.2z M108,26.8c0-0.3-0.1-0.4-0.2-0.6
					c-0.1-0.1-0.3-0.2-0.5-0.2s-0.4,0.1-0.5,0.2c-0.2,0.2-0.2,0.4-0.3,0.6L108,26.8L108,26.8z"/>
				<path class="st2" d="M111.4,28.5H111v-1.6c0-0.6-0.2-0.9-0.6-0.9c-0.2,0-0.4,0.1-0.5,0.3c-0.2,0.2-0.2,0.4-0.2,0.6v1.6h-0.4
					v-2.8h0.4v0.4l0,0c0.2-0.4,0.5-0.5,0.9-0.5c0.3,0,0.5,0.1,0.7,0.3c0.2,0.2,0.3,0.5,0.3,0.9L111.4,28.5L111.4,28.5z"/>
				<path class="st2" d="M114.1,28.3c-0.2,0.1-0.5,0.2-0.8,0.2c-0.4,0-0.7-0.1-1-0.4c-0.3-0.3-0.4-0.6-0.4-1c0-0.4,0.1-0.8,0.4-1.1
					c0.3-0.3,0.6-0.4,1.1-0.4c0.3,0,0.4,0,0.6,0.1v0.4c-0.2-0.1-0.4-0.2-0.7-0.2c-0.3,0-0.5,0.1-0.7,0.3c-0.2,0.2-0.3,0.5-0.3,0.8
					c0,0.3,0.1,0.6,0.3,0.8c0.2,0.2,0.4,0.3,0.7,0.3c0.3,0,0.5-0.1,0.7-0.3L114.1,28.3L114.1,28.3z"/>
				<path class="st2" d="M117.1,27.2h-2c0,0.3,0.1,0.5,0.3,0.7c0.2,0.2,0.4,0.3,0.6,0.3c0.3,0,0.6-0.1,0.9-0.3v0.4
					c-0.3,0.2-0.6,0.3-1,0.3s-0.7-0.1-0.9-0.4c-0.2-0.3-0.3-0.6-0.3-1.1c0-0.4,0.1-0.8,0.4-1.1c0.3-0.3,0.5-0.4,0.9-0.4
					c0.4,0,0.6,0.1,0.8,0.4c0.2,0.2,0.3,0.5,0.3,1L117.1,27.2L117.1,27.2z M116.6,26.8c0-0.3-0.1-0.4-0.2-0.6
					c-0.1-0.1-0.3-0.2-0.5-0.2s-0.4,0.1-0.5,0.2c-0.2,0.2-0.2,0.4-0.3,0.6L116.6,26.8L116.6,26.8z"/>
				<path class="st2" d="M121.2,28.5h-0.4V28l0,0c-0.2,0.3-0.5,0.5-0.9,0.5c-0.3,0-0.5-0.1-0.6-0.2S119,28,119,27.7
					c0-0.5,0.3-0.8,0.9-0.9l0.8-0.1c0-0.5-0.2-0.7-0.6-0.7c-0.3,0-0.6,0.1-0.9,0.4v-0.4c0.3-0.2,0.6-0.3,0.9-0.3c0.6,0,1,0.4,1,1
					L121.2,28.5L121.2,28.5z M120.8,27.1l-0.7,0.1c-0.2,0-0.4,0.1-0.5,0.2c-0.1,0.1-0.2,0.2-0.2,0.4c0,0.1,0.1,0.3,0.2,0.3
					c0.1,0.1,0.2,0.1,0.4,0.1c0.2,0,0.4-0.1,0.5-0.2c0.1-0.2,0.2-0.4,0.2-0.6L120.8,27.1L120.8,27.1z"/>
				<path class="st2" d="M124.4,28.5h-0.4v-1.6c0-0.6-0.2-0.9-0.6-0.9c-0.2,0-0.4,0.1-0.5,0.3c-0.2,0.2-0.2,0.4-0.2,0.6v1.6h-0.4
					v-2.8h0.4v0.4l0,0c0.2-0.4,0.5-0.5,0.9-0.5c0.3,0,0.5,0.1,0.7,0.3c0.2,0.2,0.3,0.5,0.3,0.9L124.4,28.5L124.4,28.5z"/>
				<path class="st2" d="M127.6,28.5h-0.4V28l0,0c-0.2,0.4-0.5,0.5-1,0.5c-0.4,0-0.6-0.1-0.8-0.4c-0.2-0.3-0.3-0.6-0.3-1
					c0-0.4,0.1-0.8,0.4-1.1c0.2-0.3,0.5-0.4,0.9-0.4s0.7,0.2,0.8,0.4l0,0v-1.7h0.4V28.5z M127.1,27.2v-0.4c0-0.2-0.1-0.4-0.2-0.6
					c-0.2-0.2-0.3-0.2-0.6-0.2c-0.3,0-0.5,0.1-0.6,0.3c-0.2,0.2-0.2,0.5-0.2,0.8c0,0.3,0.1,0.6,0.2,0.8c0.2,0.2,0.4,0.3,0.6,0.3
					c0.3,0,0.4-0.1,0.6-0.3C127,27.7,127.1,27.5,127.1,27.2z"/>
				<path class="st2" d="M132.3,25h-1.1v3.5h-0.4V25h-1.1v-0.4h2.7V25z"/>
				<path class="st2" d="M135.1,27.2h-2c0,0.3,0.1,0.5,0.3,0.7c0.2,0.2,0.4,0.3,0.6,0.3c0.3,0,0.6-0.1,0.9-0.3v0.4
					c-0.3,0.2-0.6,0.3-1,0.3c-0.4,0-0.7-0.1-0.9-0.4c-0.2-0.3-0.3-0.6-0.3-1.1c0-0.4,0.1-0.8,0.4-1.1c0.3-0.3,0.5-0.4,0.9-0.4
					c0.4,0,0.6,0.1,0.8,0.4c0.2,0.2,0.3,0.5,0.3,1L135.1,27.2L135.1,27.2z M134.6,26.8c0-0.3-0.1-0.4-0.2-0.6
					c-0.1-0.1-0.3-0.2-0.5-0.2c-0.2,0-0.4,0.1-0.5,0.2c-0.2,0.2-0.2,0.4-0.3,0.6L134.6,26.8L134.6,26.8z"/>
				<path class="st2" d="M137.7,28.3c-0.2,0.1-0.5,0.2-0.8,0.2c-0.4,0-0.7-0.1-1-0.4c-0.3-0.3-0.4-0.6-0.4-1c0-0.4,0.1-0.8,0.4-1.1
					c0.3-0.3,0.6-0.4,1.1-0.4c0.3,0,0.4,0,0.6,0.1v0.4c-0.2-0.1-0.4-0.2-0.7-0.2c-0.3,0-0.5,0.1-0.7,0.3c-0.2,0.2-0.3,0.5-0.3,0.8
					c0,0.3,0.1,0.6,0.3,0.8c0.2,0.2,0.4,0.3,0.7,0.3c0.3,0,0.5-0.1,0.7-0.3L137.7,28.3L137.7,28.3z"/>
				<path class="st2" d="M140.6,28.5h-0.4v-1.6c0-0.6-0.2-0.9-0.6-0.9c-0.2,0-0.4,0.1-0.5,0.3c-0.2,0.2-0.2,0.4-0.2,0.6v1.6h-0.4
					v-4.1h0.4v1.8l0,0c0.2-0.4,0.5-0.5,0.9-0.5c0.6,0,0.9,0.4,0.9,1.1L140.6,28.5L140.6,28.5z"/>
				<path class="st2" d="M143.8,28.5h-0.4v-1.6c0-0.6-0.2-0.9-0.6-0.9c-0.2,0-0.4,0.1-0.5,0.3c-0.2,0.2-0.2,0.4-0.2,0.6v1.6h-0.4
					v-2.8h0.4v0.4l0,0c0.2-0.4,0.5-0.5,0.9-0.5c0.3,0,0.5,0.1,0.7,0.3c0.2,0.2,0.3,0.5,0.3,0.9V28.5L143.8,28.5z"/>
				<path class="st2" d="M145.8,28.5c-0.4,0-0.7-0.1-1-0.4c-0.3-0.3-0.4-0.6-0.4-1c0-0.5,0.1-0.8,0.4-1.1c0.3-0.3,0.6-0.4,1-0.4
					s0.7,0.1,1,0.4c0.2,0.3,0.4,0.6,0.4,1.1c0,0.4-0.1,0.8-0.4,1.1C146.5,28.4,146.2,28.5,145.8,28.5z M145.8,26
					c-0.3,0-0.5,0.1-0.7,0.3c-0.2,0.2-0.3,0.4-0.3,0.8c0,0.3,0.1,0.6,0.3,0.8c0.2,0.2,0.4,0.3,0.7,0.3c0.3,0,0.5-0.1,0.7-0.3
					c0.2-0.2,0.2-0.4,0.2-0.8c0-0.4-0.1-0.6-0.2-0.8C146.3,26.1,146.1,26,145.8,26z"/>
				<path class="st2" d="M148.3,28.5h-0.4v-4.1h0.4V28.5z"/>
				<path class="st2" d="M157.9,25.7l-1.3,3.2c-0.2,0.6-0.5,0.9-1,0.9c-0.1,0-0.2,0-0.3,0v-0.4c0.1,0,0.2,0.1,0.3,0.1
					c0.2,0,0.4-0.1,0.5-0.4l0.2-0.5l-1.1-2.7h0.5l0.7,2.1c0,0,0,0.1,0.1,0.2l0,0c0,0,0-0.1,0.1-0.2l0.8-2.1L157.9,25.7L157.9,25.7z"
					/>
				<path class="st2" d="M150.4,28.5c-0.4,0-0.7-0.1-1-0.4c-0.3-0.3-0.4-0.6-0.4-1c0-0.5,0.1-0.8,0.4-1.1c0.3-0.3,0.6-0.4,1-0.4
					c0.4,0,0.7,0.1,1,0.4c0.2,0.3,0.4,0.6,0.4,1.1c0,0.4-0.1,0.8-0.4,1.1C151.1,28.4,150.8,28.5,150.4,28.5z M150.4,26
					c-0.3,0-0.5,0.1-0.7,0.3c-0.2,0.2-0.3,0.4-0.3,0.8c0,0.3,0.1,0.6,0.3,0.8c0.2,0.2,0.4,0.3,0.7,0.3c0.3,0,0.5-0.1,0.7-0.3
					c0.2-0.2,0.2-0.4,0.2-0.8c0-0.4-0.1-0.6-0.2-0.8C150.9,26.1,150.7,26,150.4,26z"/>
				<path class="st2" d="M154.8,28.3c0,1-0.5,1.5-1.5,1.5c-0.4,0-0.6-0.1-0.9-0.2v-0.4c0.3,0.2,0.6,0.3,0.9,0.3c0.7,0,1-0.4,1-1.1
					V28l0,0c-0.2,0.4-0.5,0.5-1,0.5c-0.4,0-0.6-0.1-0.8-0.4c-0.2-0.3-0.3-0.6-0.3-1c0-0.5,0.1-0.8,0.4-1.1c0.2-0.3,0.5-0.4,0.9-0.4
					c0.4,0,0.6,0.2,0.8,0.4l0,0v-0.4h0.4V28.3z M154.4,27.2v-0.4c0-0.2-0.1-0.4-0.2-0.6c-0.2-0.2-0.3-0.2-0.5-0.2
					c-0.3,0-0.5,0.1-0.6,0.3c-0.2,0.2-0.2,0.5-0.2,0.8c0,0.3,0.1,0.5,0.2,0.7s0.4,0.3,0.6,0.3c0.3,0,0.4-0.1,0.6-0.3
					C154.3,27.7,154.4,27.5,154.4,27.2z"/>
			</g>
			<g>
				<path class="st2" d="M168.8,26.1c-0.1-0.1-0.2-0.1-0.4-0.1c-0.2,0-0.4,0.1-0.5,0.3c-0.1,0.2-0.2,0.4-0.2,0.7v1.4h-0.4v-2.8h0.4
					v0.6l0,0c0.1-0.2,0.2-0.4,0.3-0.4c0.1-0.1,0.3-0.2,0.4-0.2c0.1,0,0.2,0,0.3,0L168.8,26.1L168.8,26.1z"/>
				<path class="st2" d="M173.5,26.1c-0.1-0.1-0.2-0.1-0.4-0.1c-0.2,0-0.4,0.1-0.5,0.3c-0.1,0.2-0.2,0.4-0.2,0.7v1.4H172v-2.8h0.4
					v0.6l0,0c0.1-0.2,0.2-0.4,0.3-0.4c0.1-0.1,0.3-0.2,0.4-0.2c0.1,0,0.2,0,0.3,0L173.5,26.1L173.5,26.1z"/>
				<path class="st2" d="M163.3,25c-0.1,0-0.2,0-0.2-0.1c-0.1-0.1-0.1-0.1-0.1-0.2c0-0.1,0-0.2,0.1-0.2c0.1-0.1,0.1-0.1,0.2-0.1
					c0.1,0,0.2,0,0.2,0.1c0.1,0.1,0.1,0.1,0.1,0.2c0,0.1,0,0.2-0.1,0.2C163.5,24.9,163.4,25,163.3,25z M163.6,28.4h-0.4v-2.8h0.4
					V28.4z"/>
				<path class="st2" d="M171.4,28.4H171V28l0,0c-0.2,0.3-0.5,0.5-0.9,0.5c-0.3,0-0.5-0.1-0.6-0.2c-0.2-0.2-0.2-0.4-0.2-0.6
					c0-0.5,0.3-0.8,0.9-0.9l0.8-0.1c0-0.5-0.2-0.7-0.6-0.7c-0.3,0-0.6,0.1-0.9,0.4v-0.4c0.3-0.2,0.6-0.3,0.9-0.3c0.6,0,1,0.4,1,1
					L171.4,28.4L171.4,28.4z M171,27l-0.7,0.1c-0.2,0-0.4,0.1-0.5,0.2c-0.1,0.1-0.2,0.2-0.2,0.4c0,0.1,0.1,0.3,0.2,0.3
					c0.1,0.1,0.2,0.1,0.4,0.1c0.2,0,0.4-0.1,0.5-0.2c0.1-0.2,0.2-0.4,0.2-0.6L171,27L171,27z"/>
				<path class="st2" d="M164.3,24.3h0.4V26l0,0c0.2-0.3,0.4-0.4,0.8-0.4c0.4,0,0.7,0.1,0.9,0.4s0.4,0.6,0.4,1.1
					c0,0.4-0.1,0.8-0.3,1c-0.2,0.3-0.5,0.4-0.8,0.4c-0.4,0-0.7-0.2-1-0.5l0,0v0.5h-0.4V24.3z M165,27.8c0.2,0.2,0.4,0.3,0.6,0.3
					c0.3,0,0.4-0.1,0.6-0.3c0.2-0.2,0.2-0.4,0.2-0.8c0-0.4-0.1-0.6-0.2-0.8c-0.2-0.2-0.4-0.3-0.6-0.3c-0.2,0-0.4,0.1-0.6,0.2
					s-0.2,0.4-0.2,0.6v0.4C164.8,27.5,164.9,27.7,165,27.8z"/>
				<path class="st2" d="M160.7,28v-3.6h-0.4v4.1h0.4v0h1.8v-0.4L160.7,28L160.7,28z"/>
				<path class="st2" d="M176.5,25.7l-1.3,3.2c-0.2,0.6-0.5,0.9-1,0.9c-0.1,0-0.2,0-0.3,0v-0.4c0.1,0,0.2,0.1,0.3,0.1
					c0.2,0,0.4-0.1,0.5-0.4l0.2-0.5l-1.1-2.7h0.5l0.7,2.1c0,0,0,0.1,0.1,0.2l0,0c0,0,0-0.1,0.1-0.2l0.8-2.1L176.5,25.7L176.5,25.7z"
					/>
			</g>
		</g>
	</g>
</g>
</svg>
