<?xml version="1.0" encoding="utf-8"?>
<!-- Generator: Adobe Illustrator 25.4.1, SVG Export Plug-In . SVG Version: 6.00 Build 0)  -->
<svg version="1.1" id="圖層_1" xmlns="http://www.w3.org/2000/svg" xmlns:xlink="http://www.w3.org/1999/xlink" x="0px" y="0px"
	 viewBox="0 0 556.3 96.8" style="enable-background:new 0 0 556.3 96.8;" xml:space="preserve">
<style type="text/css">
	.st0{fill:#0082CA;}
	.st1{fill:#009383;}
	.st2{fill:#1A1A1A;}
	.st3{fill:#010101;}
	.st4{fill:#060606;}
</style>
<g>
	<g>
		<path class="st0" d="M48.8,3.6c-25,0-45.2,20.2-45.2,45.2s20.2,45.2,45.2,45.2c25,0,45.2-20.2,45.2-45.2S73.8,3.6,48.8,3.6z
			 M49.1,90.5c-1.1,0-2.3,0-3.4-0.1c0-0.3,0.1-0.6,0.1-1V48.1c0-0.1-0.1-0.2-0.2-0.3c-0.1,0-0.1-0.1-0.2-0.1c0,0-0.1,0-0.1,0
			l-23.3,9.4c-0.4,0.2-0.5,0.5-0.4,0.7l0.9,2.3c0.2,0.4,0.7,0.1,0.7,0.1c1.3-0.5,18.6-7.5,18.6-7.5l0,0c0,0,0.1,0,0.1,0
			c0.1,0,0.1,0,0.2,0.1c0.1,0.1,0.2,0.2,0.2,0.3l0,0l0,31.4V88v0.6c0,0.4-0.2,0.9-0.6,1.2C25.1,87,11.9,74.2,8.2,57.9
			c0.7,0,1.2-0.1,2.1-0.4c1.3-0.4,22.8-8.9,23-9c12.3-5.2,12.3-14.9,12.3-19c0-4.3,0-9.3,0-9.3c0-0.2-0.1-0.3-0.2-0.4
			c-0.1-0.1-0.3-0.2-0.4-0.2l-2.2,0.1c0,0,0,0,0,0c-0.2,0-0.3,0.1-0.4,0.2c-0.1,0.1-0.2,0.3-0.2,0.4c0,3.4,0,6.4,0,9.3
			c0,4.1,0,11.7-10.3,16c-0.6,0.3-22.7,9.1-22.7,9.1c-0.7,0.2-1.8-0.6-1.9-1.8c-0.2-1.5-0.2-2.5-0.2-4.1c0-22.9,18.4-41.5,41.2-41.8
			c-0.1,0.5-0.1,1.2-0.1,1.8c0,0,0,7.6,0,7.8c0,2.6,0,6.2,1.5,9.9c1.8,4.3,5.4,7.6,10.6,9.7l13.3,5.8c0.1,0.1,0.3,0.1,0.5,0
			c0.1-0.1,0.3-0.2,0.3-0.3l0.7-2c0.1-0.3,0-0.7-0.3-0.8L61.7,33c-10.1-4-10.1-11.5-10.1-16.4c0-0.1,0-5.4,0-6.3
			c0-0.7,0-2.6,1.3-3.2c21.4,1.9,38.1,19.8,38.1,41.7c0,1.5-0.1,3-0.2,4.5c-0.6-0.4-1.6-0.9-2.5-1.2c-0.8-0.3-38.3-15.8-38.3-15.8
			c0,0-0.1,0-0.1,0c-0.1,0-0.1,0-0.2,0.1c-0.1,0.1-0.2,0.2-0.2,0.3c0,0,0,24.7,0,24.8c0,2.5,0,5.9,1.6,9.4c1.6,3.7,4.7,6.6,9.2,8.6
			c0.2,0.1,0.3,0.1,0.5,0.2c0.2,0,0.3,0,0.5-0.1c1.1-0.4,2.2-0.9,3.2-1.4c0.1-0.1,0.2-0.1,0.2-0.2c0-0.1-0.2-0.2-0.2-0.2l-1.6-0.7
			C52.7,73,52.7,66,52.7,61.3c0,0,0-19.3,0-19.9l0,0c0-0.1,0.1-0.2,0.2-0.3c0.1,0,0.1-0.1,0.2-0.1c0,0,0.1,0,0.1,0
			c0,0,33.2,13.7,33.2,13.7c2.5,1.1,3.5,2.6,3.3,4.1C85.1,77.1,68.7,90.5,49.1,90.5z"/>
	</g>
	<g>
		<g>
			<g>
				<path class="st1" d="M57.8,13.3c0.7,0.1,9.1,1.6,17.4,10.2c6.1,6.3,9.4,14.6,9.9,23.6c0,0.2,0.2,0.4,0.4,0.5l2.1,0.9
					c0.1,0,0.2,0,0.2,0c0,0,0,0,0,0c0.3,0,0.6-0.3,0.6-0.6c0,0,0-0.1,0-0.1c-0.3-8.7-3.3-17.3-8.4-24C71,12.2,58.6,10,56.7,9.7
					c-2-0.3-2.6,0.1-2.6,2c0,1.4,0,4.6,0,4.6c0,5,0,10.6,8.5,14L75.9,36c0.1,0.1,0.3,0.1,0.5,0c0.1-0.1,0.3-0.2,0.3-0.3l0.7-1.9
					c0.1-0.3,0-0.7-0.3-0.8l-13.4-5.8c-5.9-2.4-6.4-5.4-6.5-9.8c0,0,0-2.5,0-2.5C57.2,13.8,57.2,13.3,57.8,13.3z"/>
			</g>
			<g>
				<path class="st1" d="M45.5,12.3c0,0,0-2.2,0-2.4c0-0.3-0.2-0.5-0.6-0.5C10.3,15.1,9.5,46.7,9.8,49.2c0,0.4,0.2,1.7,1.1,1.7
					c0.3,0,3.2-1.2,20.1-8c3.7-1.5,6.1-3.6,7.4-6.2c1.2-2.4,1.3-5,1.3-7.5c0-2.9,0-5.9,0-9.3c0-0.3-0.3-0.6-0.6-0.6L37,19.4
					c0,0,0,0,0,0c-0.3,0-0.6,0.3-0.6,0.6c0,0,0,5.5,0,9.3c0,4.5-0.5,8.1-6.7,10.8c0,0-15.5,6.4-15.6,6.4c-0.5,0.1-0.5-0.2-0.6-0.5
					C13.9,40,19,16.6,44.1,13c0.2,0,0.7-0.1,0.7-0.1S45.5,13,45.5,12.3z"/>
			</g>
			<path class="st1" d="M84.7,56.5L55.7,44.6c0,0-0.1,0-0.1,0c-0.1,0-0.1,0-0.2,0.1c-0.1,0.1-0.1,0.2-0.1,0.3c0,1.6,0,16.1,0,16.1
				c0,4.7,0.1,10,8.5,13.2l3.4,1.4c0,0,0.2,0.1,0.4,0.1c0.1,0,0.3-0.1,0.4-0.2c0.8-0.6,1.5-1.2,2.1-1.7c0.1-0.1,0.2-0.1,0.2-0.3
				c0-0.2-0.2-0.2-0.2-0.2l-5.2-2.1c-5.8-2.2-6.3-5.1-6.4-9.2c0,0,0-11.4,0-12.2c0-0.1,0.1-0.2,0.1-0.3c0.1,0,0.1-0.1,0.2-0.1
				c0,0,0.1,0,0.1,0c0,0,23.1,9.6,23.2,9.6c0.2,0.1,0.5,0.2,0.3,0.7c-2.2,7.3-6.6,13.4-12.8,17.9c-5.5,4.1-13.1,7-20.2,7
				c-0.4,0-0.7,0.3-0.7,0.7v2.2c0,0,0,0,0,0c0,0.3,0.3,0.6,0.6,0.7C59.3,88,68.3,84.1,75.1,78c5.5-5,9.5-11.3,11.5-18.6
				C86.9,58,85.9,57,84.7,56.5z"/>
			<path class="st1" d="M13.8,59.2L11.7,60c0,0,0,0,0,0c-0.3,0.1-0.5,0.4-0.5,0.7c6.6,21.2,27,26,26.8,26c0.6,0.1,0.7,0.1,0.9,0.1
				c0.8,0,0.8-0.8,0.8-1l0-29.4c0-0.1-0.1-0.2-0.2-0.3c-0.1,0-0.1-0.1-0.2-0.1c0,0-0.1,0-0.1,0l-15.2,6.1c-0.3,0.1-0.5,0.5-0.3,0.8
				l0.8,2c0.1,0.1,0.2,0.3,0.3,0.3c0.1,0.1,0.3,0.1,0.5,0l10.1-4.1C35.7,61,35.9,61,36,61c0.1,0,0.4,0,0.4,0.7v19.6
				c0,0.8-0.3,0.8-0.5,0.8c-0.1,0-12-3-19.2-17.5c-0.7-1.5-1.9-4.8-2-4.9C14.6,59.3,14.2,59.1,13.8,59.2z"/>
		</g>
	</g>
</g>
<g>
	<g>
		<path class="st2" d="M154.5,54.7c-3.3,0.7-5.3-1.1-7.2-1.4c-3.5-0.6-7.2,0.2-8.1-2.7c-0.3-1.1,0.2-2.3,0-3.9
			c1.5-2.4,6-1.3,8.9-0.9c1-1,0.3-2.2,0.2-3.6c-1.7-1.2-4.5-1.4-5.8-2.9c0.9,0.1,1-0.6,2.1-0.3c0.1-1.3,0-2.4-0.6-3.1
			c-1.4-0.1-3.5,0.1-3.8,0.3c-1.6-3.2,5-1.6,4.7-4.8c-3.2-1.3,0-4.8,3.6-4.1c1,0.2,0.6,1.6,2.1,1.4c0.7-0.2,0.2-1.4,0.4-2
			c-1.1-0.7-2.7-0.9-4.1-1.4c0.2-2.6-0.9-4-1.7-5.8c-2-0.2-3.1,0.2-4.3,0.7c-0.8-1-0.2-3.3-0.4-4.9c-0.9-0.9-3.1-1.7-4.5-0.7
			c-0.7,3,1.6,3.4,1.1,6.1c-0.8,1.6-3.3,1.6-6,1.5c-0.1,1.7,1.5,1.8,1.5,3.4c1.8,0.2,3.8,0.4,4.1,1.9c-1.8,1.4-6.2,0.5-8.7,1.4
			c-0.3,1,0.5,1,0.4,1.9c-1.2,0.9-2.1,2.2-3.8,2.7c-1.1,2.5,2.1,2.9,2.6,4.4c0.2,0.6-0.2,1.4,0,2c0.1,0.5,1,1,1.1,1.7
			c0.3,1.2,0.3,2.3-0.6,3.4c-1.5,0-2.1-0.8-3.2-1.2c-0.7-0.2-0.4,0.6-0.8,0.7c-0.1-3.6,0.4-7.9-0.8-10.5c-0.3-0.8-1.6-1.6-1.5-2.6
			c0.1-0.7,1-0.8,1.5-1.5c0.7-0.9,2.4-4.5,2.6-5.4c0.7-3.2-1.2-5.5-3.8-7.3c-1.4,7.6-4.3,13.9-9,18.5c-0.1,0.8,0.6,1,0.4,2
			c1.1,0.5,2.6,0.6,4.3,0.5c0.6-0.7,1.2-1.3,2.1-1.7c1,6.5-1.7,15.1,0.2,21.8c0.6,0,1.1,0,1.7,0c0.1-2.1,2-2.6,4.3-2.7
			c2.1-1.3,1.8-4.8,4.5-5.4c3.2,1.7,6.7,5.9,10.6,8c1.8,1,4.2,2.3,7.3,1.9C151,59.7,157.7,56.7,154.5,54.7z M142.4,24.1
			c0.4,1.3-0.6,2.6-2.1,2.7C139.5,25.7,140.4,23.8,142.4,24.1z M140.1,42.1c-0.3-0.7-0.5-0.5-0.6-1.2
			C139.4,37.2,146.5,42.3,140.1,42.1z M124.3,53.5c-0.6,0.6-1.4,1.2-2.1,1.5c-0.6-4.4,1-6.8,1.5-10.2c0.3,1.5,0.1,2.2,1.1,3.2
			c0.7,0.7,1.8,0.6,1.9,1.5C126.9,50.5,124.9,52.8,124.3,53.5z M136.2,50c-1.9,0.1-2.5-1-3.4-1.9c0.3-1.1,2.2-0.7,3-1.4
			C136.9,46.9,136.8,49.4,136.2,50z M135.2,32.9c-1.1,0-1-1-2.1-1c-1.2,0.2-0.6,2.1-0.8,3.2c0.8,0.3,2.2,0.1,2.6,0.7
			c-1.4,1.2-2.8,2.2-2.3,5.1c1.2,0.6,2.2-0.2,3.4-0.2c0.5,0.2,0.5,1.4,0.2,1.9c-1.9,0.1-2.6,1.2-4.9,0.9c0.5-1.1-0.6-0.3-0.9-0.5
			c-0.4-1.5-1-2.8-1.9-3.9c0.6-2.2,1.8-5,0.8-7.7c2.4-0.3,5.4-1.7,7.5-1.2C137.2,31.9,136,32.2,135.2,32.9z"/>
		<g>
			<path class="st2" d="M196.7,31.6c-1.2,0.1-2.4-0.1-3.4,0c-4.5,0.4-9.2,2.4-12.8,2.7c-0.4-0.3-1-0.6-1.3-1c2-1.6,3.7-3.5,6.2-4.6
				c0.7,0.1,0.7,0.7,1.7,0.5c3.4-3.1,9.3-4,8.7-10.7c-0.4-0.2-0.7-0.5-0.9-0.8c-5.9-0.5-7.9,2.6-13,2.9c-0.2,0.9,1.1,1.4,1.5,2.4
				c0.7,1.5,1.1,2.5,1.9,3.4c-1.8,2.4-4.2,5.3-6.6,7.1c-0.7,0.5-1.5,0.5-1.7,1.2c-0.5,1.6,1,3.4,2.4,3.7c2.8,0.7,5.1-1.6,7.2-1.7
				c1,0.2,1.1,1.1,1.7,2c0.4,0.7,1.3,1.5,1.5,2.4c0.8,3.4-0.6,7.8,0,11.6c-2,2.6-5.1,4.2-7.9,6.1c0,1.5,2.5,1,4.3,1
				c3.1,0,6.2,0.2,7.3-0.8c1.7-3.4,0.2-9.3,0.8-14.1c0.2-1.9,0.6-3.6,0.4-5.4c-0.5-1-2.1-1.8-1.5-3.2c1.1-2.8,7.8,1.5,10.6,0
				c0-1.4,0-2.7,0-4.1C201.9,30.1,199.7,31.3,196.7,31.6z"/>
			<path class="st2" d="M178,29c0.4-1.4-0.3-2.4,0-3.9c-0.2-0.6-1.2-0.5-1.3-1.2c1.6-3.9,0.4-8.8-4.3-8.7c0,0.7,0,1.5,0,2.2
				c-1.7,2.4-3.9,5.9-5.5,8.8c-0.9,1.6-2.4,3.1-1.1,4.3c3.6,0.9,6.2-0.2,8.1-1.7c-0.6,1.1-1.4,2-2.5,2.7c-0.3,0.7-0.6,1.5-1.3,1.9
				c-1.6,4.2-5.4,6.6-8.3,9.7c4.5,1.3,5.8-2.4,8.1-3.4c-0.2,4.3-1.5,11.9,0.2,16.3c1-0.1,2.4,0.2,2.8-0.3c0-5.9,1.5-10.6,1.3-16.7
				c-0.5-0.9-1.1-1.4-1.1-2.2c-0.2-1.9,1-2.2,1.9-3.4c0.3-0.5,0.4-1.3,0.8-1.9C176.5,30.4,177.8,29.8,178,29z"/>
		</g>
		<g>
			<path class="st2" d="M293.1,53.9c-2.1-1.5-3.3-3.2-5.1-4.9c1.1-3.9,3.1-6.8,3-11.7c-0.7-1-2.9-0.7-4.3-1
				c-1.2-3.7,2.2-4.6,4.7-5.4c0.9-1.8,0.1-4.2-0.9-5.3c-1.6,0.1-3.3-0.4-3.6-1.7c-0.2-1,0.6-1.7,0.8-2.9c0.7-3.9-0.5-7.5-4.7-7.3
				c0,1.3-0.7,2.6-0.6,3.7c0.1,0.5,0.7,1.1,0.8,1.5c0.3,1.7-0.6,3.7-0.8,5.6c-0.1,1.2,0.1,2.2,0,3.6c-0.8,1.2-2.1,2-4.1,2.2
				c0,0.5,0,1,0,1.5c-2.3,1.6-1.6,6.1-4.9,6.8c-0.6-0.7-0.3-2.2-0.4-3.4c0.8-0.8,1.4-1.7,2.6-2c0.3-2.2,1.6-2.9,0.8-5.4
				c-3.6-0.9-0.8-4.8-1.1-7.7c-1-1.4-1.6-3.4-4.1-3.4c-0.2,3.9-0.6,7.5-0.4,11.7c-2.1,2.2-4.6,4.1-8.7,4.6c0.5,2.4,1.2,5.1,3.2,5.4
				c2.2,0.4,2.6-1.6,4-1.4c1.6,0.2,1.2,3.2,0.8,4.1c-1.1,2-6.3,4.7-8.3,5.8c0,1.2,0,2.4,0,3.6c1.8,2.4,5.5,5.2,7.5,7.7
				c0.8,0.9,0.7,2.2,2.6,1.7c1.9-4,0.3-9.5,0.8-15.1c2.1-2.6,3.9-5.5,4.5-9.4c1-0.6,0.9-1.3,2.1-1.4c4-0.4,4.9,7-0.8,6.1
				c-1.1,2.9,1.4,3.4,2.4,4.9c0.4,0.6,0.7,1.6,1.1,2.5c1,2.1,1.7,2.9-0.6,4.1c-2.5,1.3-5.3,2.3-8.1,2.9c-0.2,1.3,0.8,1.5,1.3,2.2
				c4.5,0.3,6.9-1.2,9.8-2.4c3.1,1.1,3.3,6.2,7.5,5.1c2.6,1.6,6.2,0.1,9.2,0C300.5,55.8,295.9,55.8,293.1,53.9z M268.3,54
				c-1.6,0.3-3.6-1-3.2-2.7c0.4-1.5,3-3.4,4.1-3.7C269.8,49.5,270.2,53.6,268.3,54z M285.8,46.4c-1.5-0.3-2-1.6-2.4-2.9
				c0.8-1.1,1.8-2.1,3.4-2.6C286.7,43,286.5,44.9,285.8,46.4z"/>
		</g>
		<g>
			<path class="st2" d="M231.9,24.8c0.4,0.9,1.4,1.2,1.1,2.7c1.8-0.3,2.1-0.2,4,0c1.7-3.2,0-7.5-4.5-6.8
				C231.7,21.5,231.9,23.3,231.9,24.8z"/>
			<path class="st2" d="M244,35.3c-0.4-1.2,0-3.5,0-5.8c0-5.1,0.5-8.2,0.4-12.8c-1-0.5-1.8-1.1-3.6-0.9c-1.2,1.1-0.1,2.1,0.2,3.4
				c1,5.5-0.8,13.9-0.6,19.2c-3.9,0.7-6.8,2.4-10.2,3.6c1.1-2.8,1.9-5.8,6-5.8c1.1-0.7,1.2-3.3,0.6-4.6c-1.5-0.8-3.7-1-4.9-2
				c-0.2,2.3,0.1,4.2,1.1,5.4c-1.4,2.3-2.3,5.9-4.3,7c-0.1-0.8-0.1-1.9-0.9-2c-1.4,0-1,1.6-2.4,1.5c0.3-1.3,0.2-2.9,0.2-4.4
				c0.4-1.5,3.3-1.9,3.8-3.4c0.4-1.3-0.5-1.8-0.8-3.2c-0.8,0-1.6,0.1-1.9-0.3c0.4-2.6-0.6-6.5,2.6-6.5c0.2-3.1-0.8-5.9-3.6-5.4
				c-0.9,0.1-1.3,1.2-2.3,1.7c-0.9,0.4-2.4,0.4-3.4,1c-1.3,0.8-2,1.9-2.4,2.7c1.4,0.1,1.7,1.1,2.4,1.7c1.7-0.2,2.2,0.8,2.8,1.5
				c0,1.9,0,3.7,0,5.6c-3.4,1.6-6.8,3.3-9.6,5.4c-0.6,0.1-0.9-0.1-1.3-0.2c0.1,1.7,0.9,2.8,1.7,3.9c4.4,0.8,4.1-2.6,7.2-2.9
				c-1.5,4.7-5.1,7.5-6.6,12.2c0.6,1,0.9,2.3,1.9,2.9c3.2-0.2,3.8-2.8,6-3.9c1.2,2.3-1.1,7.7,2.6,7.7c0-3.1,0-6.2,0-9.4
				c1.1-1.9,2.4-3.5,4-4.9c0.7,0.7,0.5,2.3,1.1,3.1c5,0.3,5.6-3.5,10.4-3.4c1.9,4.7,0,13.1,0.8,18.5c0.1,0.9,0.4,2.3,1.5,2.5
				c3-4.9,1.5-13.8,1.9-21.1c0.5-0.4,0.6-1.2,1.3-1.4c2,0,3.9,0,5.8,0c-0.1-1.3,0.1-2.3,0.4-3.2C250.2,36.4,244.8,38,244,35.3z"/>
		</g>
		<g>
			<path class="st2" d="M335.2,46.9c-1.6-1.2-3.3-4.7-6-2.7c-1.1,9.2,7.4,9.8,11.1,14.6c2.1,0.3,2.4-1.2,4.3-1
				c0-1.8-0.9-3.8-1.9-5.3C340.9,50,338.1,47.9,335.2,46.9z"/>
			<path class="st2" d="M333.5,35.3c1.3-0.4,2-1.4,3.8-1.4c0.7-0.5,0.8-1.4,2.1-1.4c-0.1-1.1,0.7-1.5,0.4-2.7
				c-1.5-1.6-5.4-2.2-8.5-1.4c-0.5,1.2-1.4,2.1-3.2,2c-0.5-3.4,0.6-9.9-0.4-13.8c-2-0.5-3-2-5.7-1.9c0.2,5.8,1.1,11,0.8,17.3
				c-2,2.3-6.2,4.1-10.4,3.4c-0.5,0.9-1.5,0.9-1.7,1.7c-0.8,2.6,3.1,4.1,4.3,5.4c2.5,0.6,4.2-1.2,5.8-0.3c-0.7,4.1-2.2,9.3-6.4,10.2
				c-1.9,0.4-4.5,0.1-4.5,1.7c0,0.6,3.3,3,3.6,3.1c3.9,1,8-2,9.2-3.6c2.2-2.9,3-7.1,3.8-11.1c0.2-0.9,0.1-2.1,0.4-3.2
				c0.4-1.7,2.4-3.4,4-3.9C331.8,35.4,332.7,35.6,333.5,35.3z"/>
		</g>
		<g>
			<path class="st2" d="M381.3,43.5c-3.3-1.8,1.1-3.4,2.1-4.9c0.2-2-0.2-3.5-1.3-4.3c-2.4-0.9-4.2,1.3-6.6,1.7
				c-2.6,0.4-7.3-0.5-6.8,2.5c1.7,1.1,4.6,0.3,6.2-0.2c2.7,1.4-0.9,2.7-0.9,4.4c0,0.9,0.5,0.7,0.8,2c-2.2,0.7-4.3,1.6-7.5,1.4
				c-0.2,5.4,8.6,2.5,11.1,1.4c1.8,0.4,1.7,4.7,0.9,6.1c-1.5,2.6-7.6,3.3-11.1,3.4c-0.1,0.8-1,0.9-0.9,1.9
				c3.6,2.4,10.1,0.5,14.1-0.2c1.9-2.3,1.8-6.4,1.7-10.5c0.5-0.3,0.7-0.9,1.5-1c1.3,0.5,3.3,0.3,5.1,0.3
				C391.4,42.7,385.3,42.7,381.3,43.5z"/>
			<path class="st2" d="M356.5,34c-2.4,3.4-0.4,9.2,5.5,7.8c0.2-3.9-3-4.8-3.8-7.8C357.6,34,357,34,356.5,34z"/>
			<path class="st2" d="M394.1,31.2c-2.7-2.5-8.9,1.1-8.1-4.2c0.3-1.9,1.5-4.6,2.8-6.1c1.4-1.6,3.2-1.8,2.5-4.6
				c-0.8-2.1-9.7-4.7-10.2-1c4.1-0.3,3.2,4.4,1.3,5.8c-0.9-0.2-0.8-1.4-1.7-1.7c-1-0.1-1.2,0.4-1.9,0.5c0.1,1,0.1,2-0.9,2
				c-3.2-1.5-0.1-3.5-0.6-6.8c-1-0.2-1.4-0.9-2.6-0.9c0.8,3.7-2.6,4.6-1.3,8.2c1.2,0.2,1.5-0.3,2.4-0.3c1,1.3,0.1,2.9-1.1,3.1
				c-1.7,0.2-3.1-1.5-3.4-2.7c-0.5-2.4,0.8-5.2-1.1-6.6c-1-0.7-2.1-0.5-4.1-0.5c0.2,1.4,1.9,1.5,2.6,2.9c1.3,2.5,0.5,8.2,0.4,11.2
				c-2.3-4.2-0.8-11.9-8.7-11.1c-0.3,1.9,1.7,2.6,2.6,3.9c1.8,2.6,1.5,6.5,3.2,9.4c-1.3,1.7-6.4,0-6.6,2.7c0.5,0.9,1.6,1.6,3.6,1.4
				c2-0.2,4.4-1.1,7-1.7c1.4-0.3,3.1-0.8,4.5-1c3.8-0.6,6.4,0,10.2,0.3c0.8-1.2,2.8-1.8,4.7-1c-0.5,1-2,1.1-2.4,2
				c0.8-0.1,1.4,0,1.5,0.5c0.2,0.7-0.6,0.5-0.4,1.2c2.7-0.2,4.6,0.3,7,0.3C395.4,33.6,395.4,32.5,394.1,31.2z M372.1,29.9
				c-0.6-0.7-0.7-3.4,0.2-3.9C374.3,26.4,375.4,30.1,372.1,29.9z M375.9,30.6c-0.1-0.2-0.2-0.3-0.4-0.3c-0.4-1.1,1.3-1.3,1.5-0.5
				C377,30.4,376.6,30.6,375.9,30.6z M379.2,27.7c-0.8-0.3-1.9-2.3-0.4-2.6c1,0.3,1.4,1,1.5,2C380,27.3,379.8,27.7,379.2,27.7z
				 M380.8,25c-0.7-0.4-1.8-0.5-2.5-0.8C378.5,20.4,384.3,22.7,380.8,25z"/>
		</g>
	</g>
	<g>
		<path class="st3" d="M541.1,26.8c0.9-1,1.8-2.1,3.1-3.6c-2.7,0.3-5-0.6-6.9,1.4c-0.5,0.6-1.3,0.6-2.1,0.4
			c-3.7-1.4-6.6,0.3-6.9,4.1c-0.1,0.6-0.1,1.2-0.4,1.6c-0.6,1-1.2,2.4-2.6,2.1c-1.3-0.3-1-1.7-1-2.7c-0.1-2.6,0.1-5.2,1.2-7.6
			c0.5-1,0.9-1.6,2.2-0.9c2.2,1.3,4.4-0.2,6.6-0.5c0.9-0.1,0.6-1.3,0-2c-0.5-0.6-1.1-1-1.5-1.6c-0.4-0.6-0.7-1.3-0.2-2
			c0.5-0.8,1.2-0.7,1.9-0.6c2.6,0.3,4.6,2.1,5,4.9c0.1,1,0.5,1.2,1.4,1.1c1.6-0.2,3.2,0.3,4.8-0.4c1.3-0.6,2,0.4,2.6,1.2
			c0.8,1.1,1.8,2.2,1.4,3.7c-0.2,0.9-1.2,1-1.8,0.9C545.6,25.8,543.4,25.9,541.1,26.8z"/>
		<path class="st3" d="M517.3,20.9c-0.5,0.8-0.8,1.4-1.2,1.8c-1.3,1.4-1.9,2.5,0.5,3.3c1.1,0.4,1.3,1.6,1.2,2.7c0,0.6-0.3,1.1-1,1.2
			c-1.1,0.1-2.1-0.2-2.8-1.2c-0.3-0.5-0.6-0.9-1-1.5c-3.6,3.3-4.8,8.4-8.8,11.3c0.5-5.2,2.5-9.8,4.8-14.2c1.6-3,3.4-5.9,5.8-8.4
			c0.5-0.5,1.1-1.5,2-1.1c0.9,0.4,1.4,1.4,1.3,2.4c-0.3,1.6,0.3,2.1,1.8,2.3c1.5,0.2,2.9,0.9,3.4,2.4c0.3,1,0.6,2.2-0.7,2.8
			c-1.1,0.6-2,0.1-2.8-0.8C519.2,23.2,518.3,22.2,517.3,20.9z"/>
		<path d="M447.2,34.8c-0.3-6.4-0.4-14.9-0.4-14.9c-1.3-3.3-2.1-3.9-5.6-3.2c-0.3,0.1-1.2,0-1.5,0c-6.5-0.8-12.8-0.2-19.2,0.9
			c-1.6,0.3-3.3,0.9-4.8-0.6c-0.6-0.6-1.2,0-1.5,0.6c-0.3,0.8-0.7,1.7-0.8,2.6c-0.9,9.6-1.1,15.8-0.8,24.1c0,2.4-0.1,4.9,0,7.3
			c0.1,2,0.1,4.1,1.1,6c1,2.1,1.2,2.1,2.2,0.9c0.4-0.5,0.8-0.8,1.4-0.8c6.5-1.1,13.1-1.7,19.7-1.1c1.2,0.1,1.6,0.6,1.8,1.8
			c0.3,1.8,1.8,2.2,3.2,1.4c3.2-1.8,4.8-4.1,4.9-8.2C447.2,45.7,447.4,39,447.2,34.8z M442.3,51.1c-0.1,0.6-0.2,1.3-0.5,1.9
			c-0.5,1.1-1.1,1.8-2.3,0.5c-1.4-1.5-3.3-1.9-5.3-1.7c-5.5,0.7-11,1.3-16.5,2c-1.4,0.2-0.9-0.1-1-1.5c-0.5-8.8-0.5-17.7,0.6-26.4
			c0.4-3.1,0.7-3.9,4.8-4.2c0,0,0,0,0,0c4.3-1.7,8.9-1.4,13.3-1.9c1-0.1,2,0.1,2.9-0.2c2.4-0.9,3.6,0.4,3.9,2.3
			C443.4,31.9,443.1,41.3,442.3,51.1z"/>
		<path d="M498,23.2c-0.6-1.3-1.8-1.8-3.3-1.7c-1.3,0.1-2.6,0.4-3.9,0.6c-0.6,0.1-1.2,0.4-1.6-0.6c-1.3-3.4-4.4-3.8-7.4-4.2
			c-1.1-0.1-2,0-2.1-1.6c-0.1-1.1-0.9-1.9-2.1-2c-1.4-0.1-2,0.9-2.1,2c-0.2,1.7-1.1,2.1-2.6,2.1c-0.7,0-1.4,0.2-2.2,0.4
			c-0.8,0.2-2.1,0.2-2.1,1.3c0,1.2,1,2,2.3,2.2c0.7,0.1,1.5-0.1,2.2,0c0.6,0.1,1.7-0.8,1.9,0.7c0.2,1.5-0.9,1.2-1.7,1.4
			c-5.1,0.8-9.2,1.4-14.2,2.7c-1.3,0.3-2.5,0.9-2.4,2.3c0.2,1.4,1.4,2.2,2.8,2.3c1.3,0,1.5-0.1,2.7-0.3c3.8-0.5,7-2.9,10.7-3.8
			c0.7-0.2,1.6-1,1.9,0.2c0.3,1,0.4,2.3-1.4,2.5c-1.2,0.1-2.4,0.5-3.6,0.8c-1,0.2-1.9,0.8-1.8,1.9c0.1,1.4,1.3,1.6,2.4,1.5
			c1.4-0.1,2.8-0.4,4.3-0.7c0.6,1.3,0,1.9-1.3,2.1c-1.1,0.1-2.2,0.4-3.3,0.7c-0.9,0.2-1.4,0.9-1.3,1.8c0.1,0.9,0.8,1.4,1.8,1.3
			c0.9,0,1.8-0.2,2.7-0.2c0.6,0,1.4-1.1,1.7,0.3c0.2,1.3-0.7,1.2-1.5,1.3c-2.6,0.4-5.2,0.8-7.7,1.2c-1.2,0.2-2,0.9-1.9,2.2
			c0.1,1.3,1.1,1.7,2.3,1.7c0.5,0,1,0,1.5,0c7.4-0.9,14.5-2.8,21.8-4.2c1-0.2,2.2-0.6,2-2c-0.2-1.5-1.4-1.7-2.6-1.5
			c-2.3,0.3-4.6,0.8-7,1.1c-0.7,0.1-1.7,1.2-2.2-0.2c-0.4-1.6,0.9-1.6,1.9-1.9c1.4-0.4,2.8-0.7,4.2-1.1c0.8-0.2,1.4-0.7,1.3-1.5
			c-0.1-1-1-1.3-1.8-1.3c-1.2,0.1-2.4,0.5-3.6,0.6c-0.7,0.1-1.6,1-2-0.4c-0.4-1.2,0.6-1.6,1.5-1.8c1.7-0.4,3.5-0.7,5.1-1.5
			c0.9-0.4,1.5-0.9,1.3-2c-0.6-2.2,0.6-2.7,2.4-2.6c2.2,0.2,4.4,0.4,6.6,0.5C498.6,25.7,498.6,24.5,498,23.2z M480.4,27.7
			c-1.1,0.3-0.7-0.6-0.7-1c-0.2-2.4,1.9-1.3,2.7-1.8c0.7,0,1.6-0.4,1.5,0.5C483.7,27.4,481.8,27.3,480.4,27.7z M483.5,22.7
			c-0.5,0.1-1.1,0.2-1.7,0.2c-0.7,0-1.8,1-2-0.7c-0.1-1.3,0.8-1.4,1.7-1.4c0.3,0,0.6,0,1,0c0,0,0,0,0,0c0.3,0,0.7-0.1,1,0
			c0.7,0.2,1.8-0.1,1.9,1C485.4,22.9,484.2,22.5,483.5,22.7z"/>
		<path d="M535,41.5c1.5,0,3-0.7,4.5-1.1c1.4-0.4,3.3-0.7,3.6-2.1c0.6-2.4,2-4.4,2.8-6.7c0.6-1.6-0.7-3.2-2.4-3
			c-2.4,0.2-4.8,0.5-7.2,0.9c-1.1,0.2-1.9,0.3-2.5-1c-0.6-1.3-1.7-1-2.6-0.1c-1.4,1.6-2,3.5-2.3,5.5c-0.7,4-0.2,8-0.4,11.9
			c-0.1,4.5-0.1,8.9,1.2,13.3c0.3,0.9,0.5,1.9,1.6,1.8c1,0,1.5-0.9,1.7-1.8c0.2-0.7,0.2-1.3,1.2-1.4c3-0.4,6.8-0.2,9.7-1.1
			c1.2-0.4,2-0.9,1.8-2.4c-0.2-1.8-1.6-0.8-2.5-1.2c0.7-1.6,0.5-4.4,1.4-5.5c1-1.1,1.5-2.4,0.6-3.8c-0.8-1.2-2.1-1.5-3.7-1.2
			c-2.9,0.7-5.8,1.2-8.6,1.8C532.5,42.5,532.8,41.5,535,41.5z M534.6,34.2c1.1-0.5,2.3-0.9,3.4-1.1c0.9-0.1,2-1.1,2.7,0
			c0.5,0.8-0.4,1.6-0.8,2.4c-1.1,2.4-3.4,2.4-5.5,2.9c-0.4-0.1-1.2,0.3-1.1-0.5C533.5,36.5,533.1,34.9,534.6,34.2z M535,48.2
			c2.9-0.3,1.6-0.4,3.7-1.2c0.7-0.3,1.3-0.4,1.4,0.6c1,6,0.5,5.3-3.7,6c-3.2,0.5-3.4,0.3-3.4-3.1C532.5,49,533.3,48.4,535,48.2z"/>
		<path class="st3" d="M523.5,50.9c-0.2-2.3-1.4-3.8-3.5-4.5c-1.3-0.5-2.3,0.1-1.8,1.5c0.5,1.5-0.3,2-1.4,2.4
			c-1.4,0.5-2.9,1-4.5,1.6c0-0.8,0.1-1.3,0-1.9c-0.5-2.4,0.6-3.5,2.9-3.9c2.6-0.5,4.5-1.6,5.7-4.5c1-2.6,2-5.1,2-7.9
			c0.1-2.7-1.2-3.5-3.8-2.9c-1.9,0.5-3.8,0.9-5.7,1.1c-3.4,0.4-3.9,0.8-4.1,4.4c-0.3,5-0.4,10.1-0.2,15.1c0,1-0.1,1.8-1.1,2.4
			c-1.2,0.7-2.1,2.1-1.2,3.5c0.8,1.4,2.3,1,3.5,0.5c2.9-1.2,5.4-3,7.8-5c1-0.8,1.7-1.7,2.9-0.3c0.5,0.6,1.4,0.6,2.1,0.3
			C523.7,52.5,523.6,51.7,523.5,50.9z M512.5,42.8c0.1-0.7-0.2-1.5,0.8-1.8c0.9-0.2,1.7-0.6,2.4-1.1c0.9-0.6,1.5-1.4,0.9-2.5
			c-0.6-1.3-1.5-0.3-2.3-0.1c-0.4,0.1-0.7,0.3-1.4,0.6c-0.2-4.5,4.1-2.9,5.7-4.8c0.3,2.7,0.1,5.2-0.6,7.6c-0.2,0.8-4.3,3.1-5.1,2.9
			C512.4,43.6,512.4,43.2,512.5,42.8z"/>
		<path d="M484.5,44.6c-0.2,0.1-0.5,0-0.7,0c-3.9-0.1-7.7,0.9-11.5,1.9c-0.7,0.2-1.3,0.5-2.1,0.3c-2.4-0.7-3.2-0.1-3.1,2.5
			c0.1,3.2,1,6.2,2.3,9.1c0.9,2,2.1,2.6,4.4,1.9c2.3-0.7,4.9-2.7,7.3,0.1c0.3,0.3,0.8,0.2,1.1,0c1.8-0.8,3.6-1.4,4.7-3.3
			c1.5-2.7,2.1-5.6,2.4-8.1C489.3,44.7,488.3,43.7,484.5,44.6z M483.4,51c-0.3,1.4-0.5,2.9-1.1,4.2c-0.8,1.6-2.5,0.2-3.7,0.7
			c-0.8,0.3-1.7,0.4-2.6,0.6c-3.4,0.8-3.4,0.8-4.2-2.7c-0.8-3.5-0.8-3.5,2.8-4.3c2.4-0.6,4.8-1.4,7.2-2.2c1.2-0.4,1.9-0.2,1.9,0.8
			C483.6,49.4,483.6,50.2,483.4,51z"/>
		<path class="st4" d="M475.7,54.5c-1.1,0.1-2.2-0.1-2.4-1.4c-0.2-1.3,1-1.5,1.9-1.8c1.4-0.4,2.8-0.8,4.2-1.1
			c0.7-0.2,1.7-0.5,2.1,0.6c0.3,0.9-0.2,1.7-1,2.2C479,53.9,477.4,54.5,475.7,54.5z"/>
		<path d="M422.2,21.7C422.2,21.7,422.2,21.7,422.2,21.7C422.2,21.7,422.2,21.7,422.2,21.7C422.2,21.6,422.2,21.7,422.2,21.7z
			 M429.8,34.9c2.6,0.1,5.1-0.7,7.8-0.2c1.3,0.3,3.1,0.4,3.1-1.6c0-1.9-1.4-2.7-3.2-2.6c-1.5,0.1-3.1,0.3-4.6,0.5
			c-2.1,0.2-2.1,0.2-2.7-2c3.5-0.2,5.5-1.8,6.2-4.5c0.5-2-1-3.8-2.8-3.4c-3.8,0.9-7.6,2.1-11.5,0.6c-2.1,2.9-1.7,6,1.5,9.3
			c0.8,0.2,1.3-0.1,1.8-0.7c0.3-0.4,0.9-0.6,1.5-0.4c0.2,0.1,0.1,0.6,0.2,0.9c0,0.7-0.5,0.9-1.1,1c-0.5,0.1-0.9,0-1.4,0.1
			c-1.8,0.3-3.7,0.5-5.5,1c-1.1,0.3-2.6,0.7-2,2.4c0.5,1.5,1.6,1.8,3.1,1.3c1.4-0.4,2.9-1,4.5-0.6c-0.7,2.2-0.7,2.2-2.6,2
			c-2.8-0.3-3.4,0.2-3.2,3c0.2,2.8,1,5.4,2.2,7.9c0.9,1.8,1.4,4.5,4.3,2.1c0.2-0.1,0.5-0.1,0.7-0.1c2.7-0.4,5.5-0.9,8.2-1.3
			c1-0.1,1.9-0.1,2.5-1.2c1.7-2.9,2.7-5.9,2.8-9.2c0-2.5-0.8-2.8-3.3-2.5c-3.1,0.5-6.3,0.5-10,0.7C427.8,36.2,428.3,34.9,429.8,34.9
			z M434.9,38.8c0.6-0.2,0.8,0.4,0.7,0.9c-0.1,1-0.1,1.9-0.3,2.9c-0.9,4.1-1.8,4.8-6.1,5c0,0,0,0,0,0c-0.6,0.4-1.2,0.3-1.8,0.3
			c-3.7,0.4-3.7,0.5-4.2-3.4c-0.1-0.5-0.1-1-0.2-1.4c-0.5-2,0.2-2.8,2.2-2.4c-1,2.1-0.4,4.1,0.7,6c0.5,0.9,1.3,1.7,2.2,0.3
			c0.2-1,1-1,1.7-1c2,0.2,2.7-1.2,3.4-2.5c0.5-0.8,0.5-1.7-0.3-2.5c-0.7-0.8-1.3-0.5-2.2-0.3c-1.7,0.6-3.4,0.6-5.1-0.1
			C428.6,39.5,431.9,39.8,434.9,38.8z M427.5,44.3c0.4-1.6,1.9-1,3-1.8c0.1,2.2-1.2,2.4-2.4,2.6C427.5,45.2,427.4,44.7,427.5,44.3z
			 M425.9,27.6c-0.5-0.1-0.7-0.3-0.8-0.8c-0.1-0.7,0.1-1,0.8-1.3c2.1-0.6,4.1-1.2,6.6-1.5C431.4,26.3,427.9,28,425.9,27.6z"/>
	</g>
	<g>
		<g>
			<path class="st2" d="M126.4,83.6c-0.9,0.5-2,0.7-3.4,0.7c-1.7,0-3.1-0.6-4.1-1.7c-1-1.1-1.6-2.6-1.6-4.4c0-1.9,0.6-3.5,1.8-4.7
				c1.2-1.2,2.6-1.8,4.4-1.8c1.1,0,2.1,0.2,2.9,0.5v1.5c-0.9-0.5-1.8-0.7-2.9-0.7c-1.4,0-2.5,0.5-3.4,1.4c-0.9,0.9-1.3,2.2-1.3,3.7
				c0,1.5,0.4,2.7,1.2,3.5c0.8,0.9,1.9,1.3,3.2,1.3c1.2,0,2.3-0.3,3.2-0.8V83.6z"/>
			<path class="st2" d="M135.9,84.1h-1.4v-5c0-1.8-0.7-2.7-2-2.7c-0.7,0-1.2,0.3-1.7,0.8c-0.5,0.5-0.7,1.2-0.7,2v4.9h-1.4V71.3h1.4
				v5.6h0c0.7-1.1,1.6-1.6,2.8-1.6c2,0,2.9,1.2,2.9,3.5V84.1z"/>
			<path class="st2" d="M139.2,73.3c-0.2,0-0.5-0.1-0.6-0.3c-0.2-0.2-0.3-0.4-0.3-0.6c0-0.3,0.1-0.5,0.3-0.6
				c0.2-0.2,0.4-0.3,0.6-0.3c0.3,0,0.5,0.1,0.6,0.3c0.2,0.2,0.3,0.4,0.3,0.6c0,0.2-0.1,0.5-0.3,0.6
				C139.7,73.2,139.4,73.3,139.2,73.3z M139.9,84.1h-1.4v-8.7h1.4V84.1z"/>
			<path class="st2" d="M149.6,80.1h-6.1c0,1,0.3,1.7,0.8,2.2c0.5,0.5,1.2,0.8,2,0.8c1,0,1.9-0.3,2.7-1v1.3c-0.8,0.6-1.8,0.8-3,0.8
				c-1.2,0-2.2-0.4-2.9-1.2c-0.7-0.8-1-1.9-1-3.3c0-1.4,0.4-2.4,1.1-3.3c0.8-0.9,1.7-1.3,2.8-1.3c1.1,0,2,0.4,2.6,1.1
				c0.6,0.7,0.9,1.7,0.9,3.1V80.1z M148.2,79c0-0.8-0.2-1.4-0.6-1.9c-0.4-0.4-0.9-0.7-1.6-0.7c-0.7,0-1.2,0.2-1.7,0.7
				c-0.5,0.5-0.7,1.1-0.8,1.8H148.2z"/>
			<path class="st2" d="M158.9,84.1h-1.4v-4.9c0-1.8-0.7-2.8-2-2.8c-0.7,0-1.3,0.3-1.7,0.8c-0.5,0.5-0.7,1.2-0.7,2v4.9h-1.4v-8.7
				h1.4v1.4h0c0.7-1.1,1.6-1.6,2.8-1.6c0.9,0,1.7,0.3,2.2,0.9c0.5,0.6,0.8,1.5,0.8,2.7V84.1z"/>
			<path class="st2" d="M175.6,84.1h-1.4v-5.5h-6.3v5.5h-1.4V72h1.4v5.3h6.3V72h1.4V84.1z"/>
			<path class="st2" d="M178.1,83.8v-1.5c0.8,0.6,1.6,0.8,2.5,0.8c1.2,0,1.8-0.4,1.8-1.2c0-0.2-0.1-0.4-0.2-0.6
				c-0.1-0.2-0.2-0.3-0.4-0.4c-0.2-0.1-0.4-0.2-0.6-0.3c-0.2-0.1-0.5-0.2-0.8-0.3c-0.4-0.2-0.7-0.3-1-0.5c-0.3-0.2-0.5-0.3-0.7-0.5
				c-0.2-0.2-0.3-0.4-0.4-0.7c-0.1-0.3-0.1-0.5-0.1-0.9c0-0.4,0.1-0.8,0.3-1.1c0.2-0.3,0.4-0.6,0.7-0.8c0.3-0.2,0.7-0.4,1.1-0.5
				c0.4-0.1,0.8-0.2,1.2-0.2c0.8,0,1.4,0.1,2,0.4v1.4c-0.6-0.4-1.4-0.6-2.2-0.6c-0.3,0-0.5,0-0.7,0.1c-0.2,0.1-0.4,0.1-0.5,0.3
				c-0.1,0.1-0.3,0.2-0.3,0.4c-0.1,0.1-0.1,0.3-0.1,0.5c0,0.2,0,0.4,0.1,0.6c0.1,0.2,0.2,0.3,0.4,0.4c0.2,0.1,0.4,0.2,0.6,0.3
				c0.2,0.1,0.5,0.2,0.8,0.3c0.4,0.1,0.7,0.3,1,0.5c0.3,0.2,0.6,0.3,0.8,0.5c0.2,0.2,0.4,0.4,0.5,0.7c0.1,0.3,0.2,0.6,0.2,0.9
				c0,0.4-0.1,0.8-0.3,1.1c-0.2,0.3-0.4,0.6-0.8,0.8c-0.3,0.2-0.7,0.4-1.1,0.5c-0.4,0.1-0.8,0.1-1.3,0.1
				C179.5,84.3,178.7,84.2,178.1,83.8z"/>
			<path class="st2" d="M186.7,73.3c-0.3,0-0.5-0.1-0.6-0.3c-0.2-0.2-0.3-0.4-0.3-0.6c0-0.3,0.1-0.5,0.3-0.6
				c0.2-0.2,0.4-0.3,0.6-0.3c0.3,0,0.5,0.1,0.6,0.3c0.2,0.2,0.3,0.4,0.3,0.6c0,0.2-0.1,0.5-0.3,0.6
				C187.1,73.2,186.9,73.3,186.7,73.3z M187.4,84.1H186v-8.7h1.4V84.1z"/>
			<path class="st2" d="M197.4,84.1H196v-4.9c0-1.8-0.7-2.8-2-2.8c-0.7,0-1.3,0.3-1.7,0.8c-0.5,0.5-0.7,1.2-0.7,2v4.9h-1.4v-8.7h1.4
				v1.4h0c0.7-1.1,1.6-1.6,2.8-1.6c0.9,0,1.7,0.3,2.2,0.9c0.5,0.6,0.8,1.5,0.8,2.7V84.1z"/>
			<path class="st2" d="M213.8,79.2c0,3.4-1.5,5.1-4.6,5.1c-2.9,0-4.4-1.6-4.4-4.9V72h1.4v7.3c0,2.5,1,3.7,3.1,3.7c2,0,3-1.2,3-3.6
				V72h1.4V79.2z"/>
			<path class="st2" d="M223.8,84.1h-1.4v-4.9c0-1.8-0.7-2.8-2-2.8c-0.7,0-1.3,0.3-1.7,0.8c-0.5,0.5-0.7,1.2-0.7,2v4.9h-1.4v-8.7
				h1.4v1.4h0c0.7-1.1,1.6-1.6,2.8-1.6c1,0,1.7,0.3,2.2,0.9c0.5,0.6,0.8,1.5,0.8,2.7V84.1z"/>
			<path class="st2" d="M227.1,73.3c-0.2,0-0.5-0.1-0.6-0.3c-0.2-0.2-0.3-0.4-0.3-0.6c0-0.3,0.1-0.5,0.3-0.6
				c0.2-0.2,0.4-0.3,0.6-0.3c0.3,0,0.5,0.1,0.7,0.3c0.2,0.2,0.3,0.4,0.3,0.6c0,0.2-0.1,0.5-0.3,0.6
				C227.6,73.2,227.4,73.3,227.1,73.3z M227.8,84.1h-1.4v-8.7h1.4V84.1z"/>
			<path class="st2" d="M237.5,75.5l-3.5,8.7h-1.4l-3.3-8.7h1.5l2.2,6.3c0.2,0.5,0.3,0.9,0.3,1.2h0c0.1-0.4,0.1-0.8,0.3-1.2l2.3-6.3
				H237.5z"/>
			<path class="st2" d="M245.9,80.1h-6.1c0,1,0.3,1.7,0.8,2.2c0.5,0.5,1.2,0.8,2.1,0.8c1,0,1.9-0.3,2.7-1v1.3
				c-0.8,0.6-1.8,0.8-3,0.8c-1.2,0-2.2-0.4-2.9-1.2c-0.7-0.8-1-1.9-1-3.3c0-1.4,0.4-2.4,1.1-3.3c0.8-0.9,1.7-1.3,2.8-1.3
				c1.1,0,2,0.4,2.6,1.1c0.6,0.7,0.9,1.7,0.9,3.1V80.1z M244.5,79c0-0.8-0.2-1.4-0.6-1.9c-0.4-0.4-0.9-0.7-1.6-0.7
				c-0.7,0-1.2,0.2-1.7,0.7c-0.5,0.5-0.7,1.1-0.8,1.8H244.5z"/>
			<path class="st2" d="M252.5,76.9c-0.2-0.2-0.6-0.3-1.1-0.3c-0.6,0-1.1,0.3-1.5,0.8c-0.4,0.6-0.6,1.3-0.6,2.3v4.4H248v-8.7h1.4
				v1.8h0c0.2-0.6,0.5-1.1,0.9-1.4c0.4-0.3,0.9-0.5,1.4-0.5c0.4,0,0.6,0,0.8,0.1V76.9z"/>
			<path class="st2" d="M253.5,83.8v-1.5c0.8,0.6,1.6,0.8,2.5,0.8c1.2,0,1.8-0.4,1.8-1.2c0-0.2-0.1-0.4-0.2-0.6
				c-0.1-0.2-0.2-0.3-0.4-0.4c-0.2-0.1-0.4-0.2-0.6-0.3c-0.2-0.1-0.5-0.2-0.8-0.3c-0.4-0.2-0.7-0.3-1-0.5c-0.3-0.2-0.5-0.3-0.7-0.5
				c-0.2-0.2-0.3-0.4-0.4-0.7c-0.1-0.3-0.1-0.5-0.1-0.9c0-0.4,0.1-0.8,0.3-1.1c0.2-0.3,0.4-0.6,0.7-0.8c0.3-0.2,0.7-0.4,1.1-0.5
				c0.4-0.1,0.8-0.2,1.2-0.2c0.8,0,1.4,0.1,2,0.4v1.4c-0.6-0.4-1.4-0.6-2.2-0.6c-0.3,0-0.5,0-0.7,0.1c-0.2,0.1-0.4,0.1-0.5,0.3
				c-0.2,0.1-0.3,0.2-0.3,0.4c-0.1,0.1-0.1,0.3-0.1,0.5c0,0.2,0,0.4,0.1,0.6c0.1,0.2,0.2,0.3,0.4,0.4c0.2,0.1,0.4,0.2,0.6,0.3
				c0.2,0.1,0.5,0.2,0.8,0.3c0.4,0.1,0.7,0.3,1,0.5c0.3,0.2,0.6,0.3,0.8,0.5c0.2,0.2,0.4,0.4,0.5,0.7c0.1,0.3,0.2,0.6,0.2,0.9
				c0,0.4-0.1,0.8-0.3,1.1c-0.2,0.3-0.4,0.6-0.8,0.8c-0.3,0.2-0.7,0.4-1.1,0.5c-0.4,0.1-0.8,0.1-1.3,0.1
				C254.9,84.3,254.2,84.2,253.5,83.8z"/>
			<path class="st2" d="M262.1,73.3c-0.2,0-0.5-0.1-0.6-0.3c-0.2-0.2-0.3-0.4-0.3-0.6c0-0.3,0.1-0.5,0.3-0.6
				c0.2-0.2,0.4-0.3,0.6-0.3c0.3,0,0.5,0.1,0.6,0.3c0.2,0.2,0.3,0.4,0.3,0.6c0,0.2-0.1,0.5-0.3,0.6
				C262.6,73.2,262.4,73.3,262.1,73.3z M262.8,84.1h-1.4v-8.7h1.4V84.1z"/>
			<path class="st2" d="M269.6,84c-0.3,0.2-0.8,0.3-1.3,0.3c-1.5,0-2.3-0.8-2.3-2.5v-5.1h-1.5v-1.2h1.5v-2.1l1.4-0.4v2.6h2.2v1.2
				h-2.2v4.9c0,0.6,0.1,1,0.3,1.2c0.2,0.3,0.5,0.4,1,0.4c0.3,0,0.6-0.1,0.9-0.3V84z"/>
			<path class="st2" d="M278.4,75.5l-4,10.1c-0.7,1.8-1.7,2.7-3,2.7c-0.4,0-0.7,0-0.9-0.1v-1.2c0.3,0.1,0.6,0.2,0.8,0.2
				c0.7,0,1.2-0.4,1.6-1.3l0.7-1.6l-3.4-8.6h1.5l2.3,6.7c0,0.1,0.1,0.3,0.2,0.7h0.1c0-0.1,0.1-0.3,0.2-0.6l2.5-6.7H278.4z"/>
			<path class="st2" d="M288.2,84.3c-1.3,0-2.3-0.4-3.1-1.2c-0.8-0.8-1.1-1.9-1.1-3.2c0-1.5,0.4-2.6,1.2-3.4
				c0.8-0.8,1.9-1.2,3.2-1.2c1.3,0,2.3,0.4,3,1.2c0.7,0.8,1.1,1.9,1.1,3.3c0,1.4-0.4,2.5-1.2,3.3C290.6,83.9,289.5,84.3,288.2,84.3z
				 M288.3,76.4c-0.9,0-1.6,0.3-2.1,0.9c-0.5,0.6-0.8,1.4-0.8,2.5c0,1,0.3,1.8,0.8,2.4c0.5,0.6,1.2,0.9,2.1,0.9
				c0.9,0,1.6-0.3,2.1-0.9c0.5-0.6,0.7-1.4,0.7-2.5c0-1.1-0.2-1.9-0.7-2.5C289.9,76.7,289.2,76.4,288.3,76.4z"/>
			<path class="st2" d="M299,72.5c-0.3-0.2-0.6-0.2-0.9-0.2c-1,0-1.5,0.6-1.5,1.8v1.3h2v1.2h-2v7.5h-1.4v-7.5h-1.5v-1.2h1.5v-1.4
				c0-0.9,0.3-1.6,0.8-2.2c0.5-0.5,1.2-0.8,2-0.8c0.4,0,0.8,0.1,1,0.2V72.5z"/>
			<path class="st2" d="M304.5,83.6V82c0.2,0.2,0.4,0.3,0.7,0.5c0.3,0.1,0.5,0.3,0.8,0.3c0.3,0.1,0.6,0.2,0.9,0.2
				c0.3,0.1,0.6,0.1,0.8,0.1c0.9,0,1.5-0.2,2-0.5c0.4-0.3,0.6-0.8,0.6-1.4c0-0.3-0.1-0.6-0.2-0.9c-0.1-0.2-0.3-0.5-0.6-0.7
				c-0.3-0.2-0.6-0.4-0.9-0.6c-0.3-0.2-0.7-0.4-1.1-0.6c-0.4-0.2-0.8-0.4-1.2-0.7c-0.4-0.2-0.7-0.5-1-0.7c-0.3-0.3-0.5-0.6-0.6-0.9
				c-0.2-0.3-0.2-0.7-0.2-1.2c0-0.6,0.1-1,0.4-1.4c0.2-0.4,0.6-0.7,1-1c0.4-0.3,0.8-0.5,1.4-0.6c0.5-0.1,1-0.2,1.5-0.2
				c1.2,0,2.1,0.1,2.6,0.4v1.6c-0.7-0.5-1.6-0.7-2.8-0.7c-0.3,0-0.6,0-0.9,0.1c-0.3,0.1-0.6,0.2-0.8,0.3c-0.2,0.1-0.4,0.3-0.6,0.6
				c-0.2,0.2-0.2,0.5-0.2,0.8c0,0.3,0.1,0.6,0.2,0.8c0.1,0.2,0.3,0.4,0.5,0.6c0.2,0.2,0.5,0.4,0.8,0.5c0.3,0.2,0.7,0.4,1.1,0.6
				c0.4,0.2,0.8,0.4,1.2,0.7c0.4,0.2,0.7,0.5,1,0.8c0.3,0.3,0.5,0.6,0.7,1c0.2,0.3,0.3,0.7,0.3,1.2c0,0.6-0.1,1.1-0.4,1.5
				c-0.2,0.4-0.5,0.8-0.9,1c-0.4,0.3-0.9,0.4-1.4,0.6c-0.5,0.1-1.1,0.2-1.6,0.2c-0.2,0-0.4,0-0.7,0c-0.3,0-0.6-0.1-0.9-0.1
				c-0.3-0.1-0.6-0.1-0.8-0.2C304.9,83.8,304.7,83.7,304.5,83.6z"/>
			<path class="st2" d="M320,83.7c-0.7,0.4-1.5,0.6-2.4,0.6c-1.2,0-2.2-0.4-3-1.2c-0.8-0.8-1.1-1.8-1.1-3.1c0-1.4,0.4-2.6,1.2-3.4
				c0.8-0.9,1.9-1.3,3.3-1.3c0.8,0,1.4,0.1,2,0.4v1.4c-0.6-0.4-1.3-0.7-2.1-0.7c-0.9,0-1.6,0.3-2.2,1c-0.6,0.6-0.8,1.5-0.8,2.5
				c0,1,0.3,1.8,0.8,2.4c0.5,0.6,1.2,0.9,2.1,0.9c0.8,0,1.5-0.2,2.1-0.8V83.7z"/>
			<path class="st2" d="M322.9,73.3c-0.2,0-0.5-0.1-0.6-0.3c-0.2-0.2-0.3-0.4-0.3-0.6c0-0.3,0.1-0.5,0.3-0.6
				c0.2-0.2,0.4-0.3,0.6-0.3c0.3,0,0.5,0.1,0.6,0.3c0.2,0.2,0.3,0.4,0.3,0.6c0,0.2-0.1,0.5-0.3,0.6
				C323.3,73.2,323.1,73.3,322.9,73.3z M323.5,84.1h-1.4v-8.7h1.4V84.1z"/>
			<path class="st2" d="M333.3,80.1h-6.1c0,1,0.3,1.7,0.8,2.2c0.5,0.5,1.2,0.8,2,0.8c1,0,1.9-0.3,2.7-1v1.3c-0.8,0.6-1.8,0.8-3,0.8
				c-1.2,0-2.2-0.4-2.9-1.2c-0.7-0.8-1-1.9-1-3.3c0-1.4,0.4-2.4,1.1-3.3c0.8-0.9,1.7-1.3,2.8-1.3c1.1,0,2,0.4,2.6,1.1
				c0.6,0.7,0.9,1.7,0.9,3.1V80.1z M331.9,79c0-0.8-0.2-1.4-0.6-1.9c-0.4-0.4-0.9-0.7-1.6-0.7c-0.7,0-1.2,0.2-1.7,0.7
				c-0.5,0.5-0.7,1.1-0.8,1.8H331.9z"/>
			<path class="st2" d="M342.6,84.1h-1.4v-4.9c0-1.8-0.7-2.8-2-2.8c-0.7,0-1.3,0.3-1.7,0.8c-0.5,0.5-0.7,1.2-0.7,2v4.9h-1.4v-8.7
				h1.4v1.4h0c0.7-1.1,1.6-1.6,2.8-1.6c0.9,0,1.7,0.3,2.2,0.9c0.5,0.6,0.8,1.5,0.8,2.7V84.1z"/>
			<path class="st2" d="M351.1,83.7c-0.7,0.4-1.5,0.6-2.4,0.6c-1.2,0-2.2-0.4-3-1.2c-0.8-0.8-1.1-1.8-1.1-3.1c0-1.4,0.4-2.6,1.2-3.4
				c0.8-0.9,1.9-1.3,3.3-1.3c0.8,0,1.4,0.1,2,0.4v1.4c-0.6-0.4-1.3-0.7-2.1-0.7c-0.9,0-1.6,0.3-2.2,1c-0.6,0.6-0.9,1.5-0.9,2.5
				c0,1,0.3,1.8,0.8,2.4c0.5,0.6,1.2,0.9,2.1,0.9c0.8,0,1.5-0.2,2.1-0.8V83.7z"/>
			<path class="st2" d="M360.2,80.1h-6.1c0,1,0.3,1.7,0.8,2.2c0.5,0.5,1.2,0.8,2,0.8c1,0,1.9-0.3,2.7-1v1.3c-0.8,0.6-1.8,0.8-3,0.8
				c-1.2,0-2.2-0.4-2.9-1.2c-0.7-0.8-1-1.9-1-3.3c0-1.4,0.4-2.4,1.1-3.3c0.8-0.9,1.7-1.3,2.8-1.3c1.1,0,2,0.4,2.6,1.1
				c0.6,0.7,0.9,1.7,0.9,3.1V80.1z M358.8,79c0-0.8-0.2-1.4-0.6-1.9c-0.4-0.4-0.9-0.7-1.6-0.7c-0.7,0-1.2,0.2-1.7,0.7
				c-0.5,0.5-0.7,1.1-0.8,1.8H358.8z"/>
			<path class="st2" d="M373.2,84.1h-1.4v-1.4h0c-0.6,1-1.5,1.6-2.7,1.6c-0.9,0-1.5-0.2-2-0.7c-0.5-0.5-0.7-1.1-0.7-1.8
				c0-1.6,1-2.6,2.9-2.8l2.6-0.4c0-1.5-0.6-2.2-1.8-2.2c-1,0-2,0.4-2.8,1.1v-1.4c0.9-0.5,1.8-0.8,2.9-0.8c2,0,3.1,1.1,3.1,3.2V84.1z
				 M371.9,79.7l-2.1,0.3c-0.6,0.1-1.1,0.2-1.5,0.5c-0.3,0.2-0.5,0.6-0.5,1.2c0,0.4,0.2,0.8,0.5,1c0.3,0.3,0.7,0.4,1.2,0.4
				c0.7,0,1.3-0.2,1.7-0.7c0.4-0.5,0.7-1.1,0.7-1.8V79.7z"/>
			<path class="st2" d="M383.1,84.1h-1.4v-4.9c0-1.8-0.7-2.8-2-2.8c-0.7,0-1.3,0.3-1.7,0.8c-0.5,0.5-0.7,1.2-0.7,2v4.9h-1.4v-8.7
				h1.4v1.4h0c0.7-1.1,1.6-1.6,2.8-1.6c0.9,0,1.7,0.3,2.2,0.9c0.5,0.6,0.8,1.5,0.8,2.7V84.1z"/>
			<path class="st2" d="M393.1,84.1h-1.4v-1.5h0c-0.6,1.1-1.6,1.7-3,1.7c-1.1,0-2-0.4-2.6-1.2c-0.7-0.8-1-1.8-1-3.2
				c0-1.4,0.4-2.6,1.1-3.4c0.7-0.9,1.7-1.3,2.9-1.3c1.2,0,2.1,0.5,2.6,1.4h0v-5.4h1.4V84.1z M391.7,80.2v-1.3c0-0.7-0.2-1.3-0.7-1.8
				c-0.5-0.5-1-0.7-1.8-0.7c-0.8,0-1.5,0.3-2,0.9c-0.5,0.6-0.7,1.5-0.7,2.6c0,1,0.2,1.8,0.7,2.4c0.5,0.6,1.1,0.9,1.9,0.9
				c0.8,0,1.4-0.3,1.9-0.8C391.4,81.8,391.7,81.1,391.7,80.2z"/>
			<path class="st2" d="M408,73.3h-3.5v10.9h-1.4V73.3h-3.5V72h8.4V73.3z"/>
			<path class="st2" d="M416.7,80.1h-6.1c0,1,0.3,1.7,0.8,2.2c0.5,0.5,1.2,0.8,2,0.8c1,0,1.9-0.3,2.7-1v1.3c-0.8,0.6-1.8,0.8-3,0.8
				c-1.2,0-2.2-0.4-2.9-1.2c-0.7-0.8-1-1.9-1-3.3c0-1.4,0.4-2.4,1.1-3.3c0.8-0.9,1.7-1.3,2.8-1.3c1.1,0,2,0.4,2.6,1.1
				c0.6,0.7,0.9,1.7,0.9,3.1V80.1z M415.2,79c0-0.8-0.2-1.4-0.6-1.9c-0.4-0.4-0.9-0.7-1.6-0.7c-0.7,0-1.2,0.2-1.7,0.7
				c-0.5,0.5-0.7,1.1-0.8,1.8H415.2z"/>
			<path class="st2" d="M424.7,83.7c-0.7,0.4-1.5,0.6-2.4,0.6c-1.2,0-2.2-0.4-3-1.2c-0.8-0.8-1.1-1.8-1.1-3.1c0-1.4,0.4-2.6,1.2-3.4
				c0.8-0.9,1.9-1.3,3.3-1.3c0.8,0,1.4,0.1,2,0.4v1.4c-0.6-0.4-1.3-0.7-2.1-0.7c-0.9,0-1.6,0.3-2.2,1c-0.6,0.6-0.9,1.5-0.9,2.5
				c0,1,0.3,1.8,0.8,2.4c0.5,0.6,1.2,0.9,2.1,0.9c0.8,0,1.5-0.2,2.1-0.8V83.7z"/>
			<path class="st2" d="M434,84.1h-1.4v-5c0-1.8-0.7-2.7-2-2.7c-0.7,0-1.2,0.3-1.7,0.8c-0.5,0.5-0.7,1.2-0.7,2v4.9h-1.4V71.3h1.4
				v5.6h0c0.7-1.1,1.6-1.6,2.8-1.6c2,0,2.9,1.2,2.9,3.5V84.1z"/>
			<path class="st2" d="M443.8,84.1h-1.4v-4.9c0-1.8-0.7-2.8-2-2.8c-0.7,0-1.3,0.3-1.7,0.8c-0.5,0.5-0.7,1.2-0.7,2v4.9h-1.4v-8.7
				h1.4v1.4h0c0.7-1.1,1.6-1.6,2.8-1.6c0.9,0,1.7,0.3,2.2,0.9c0.5,0.6,0.8,1.5,0.8,2.7V84.1z"/>
			<path class="st2" d="M450,84.3c-1.3,0-2.3-0.4-3.1-1.2c-0.8-0.8-1.1-1.9-1.1-3.2c0-1.5,0.4-2.6,1.2-3.4c0.8-0.8,1.9-1.2,3.2-1.2
				c1.3,0,2.3,0.4,3,1.2c0.7,0.8,1.1,1.9,1.1,3.3c0,1.4-0.4,2.5-1.2,3.3C452.4,83.9,451.3,84.3,450,84.3z M450.1,76.4
				c-0.9,0-1.6,0.3-2.1,0.9c-0.5,0.6-0.8,1.4-0.8,2.5c0,1,0.3,1.8,0.8,2.4c0.5,0.6,1.2,0.9,2.1,0.9c0.9,0,1.6-0.3,2.1-0.9
				c0.5-0.6,0.7-1.4,0.7-2.5c0-1.1-0.2-1.9-0.7-2.5C451.7,76.7,451,76.4,450.1,76.4z"/>
			<path class="st2" d="M457.9,84.1h-1.4V71.3h1.4V84.1z"/>
			<path class="st2" d="M488,75.5l-4,10.1c-0.7,1.8-1.7,2.7-3,2.7c-0.4,0-0.7,0-0.9-0.1v-1.2c0.3,0.1,0.6,0.2,0.8,0.2
				c0.7,0,1.2-0.4,1.6-1.3l0.7-1.6l-3.4-8.6h1.5l2.3,6.7c0,0.1,0.1,0.3,0.2,0.7h0c0-0.1,0.1-0.3,0.2-0.6l2.5-6.7H488z"/>
			<path class="st2" d="M464.4,84.3c-1.3,0-2.3-0.4-3.1-1.2c-0.8-0.8-1.1-1.9-1.1-3.2c0-1.5,0.4-2.6,1.2-3.4
				c0.8-0.8,1.9-1.2,3.2-1.2c1.3,0,2.3,0.4,3,1.2c0.7,0.8,1.1,1.9,1.1,3.3c0,1.4-0.4,2.5-1.2,3.3C466.7,83.9,465.7,84.3,464.4,84.3z
				 M464.5,76.4c-0.9,0-1.6,0.3-2.1,0.9c-0.5,0.6-0.8,1.4-0.8,2.5c0,1,0.3,1.8,0.8,2.4c0.5,0.6,1.2,0.9,2.1,0.9
				c0.9,0,1.6-0.3,2.1-0.9c0.5-0.6,0.7-1.4,0.7-2.5c0-1.1-0.2-1.9-0.7-2.5C466.1,76.7,465.4,76.4,464.5,76.4z"/>
			<path class="st2" d="M478.3,83.4c0,3.2-1.5,4.8-4.6,4.8c-1.1,0-2-0.2-2.8-0.6v-1.4c1,0.5,1.9,0.8,2.8,0.8c2.1,0,3.2-1.1,3.2-3.4
				v-0.9h0c-0.7,1.1-1.7,1.7-3,1.7c-1.1,0-1.9-0.4-2.6-1.2c-0.7-0.8-1-1.8-1-3.1c0-1.5,0.4-2.6,1.1-3.5c0.7-0.9,1.7-1.3,2.9-1.3
				c1.2,0,2,0.5,2.6,1.4h0v-1.2h1.4V83.4z M476.9,80.2v-1.3c0-0.7-0.2-1.3-0.7-1.8c-0.5-0.5-1-0.7-1.7-0.7c-0.9,0-1.5,0.3-2,0.9
				c-0.5,0.6-0.7,1.5-0.7,2.6c0,1,0.2,1.7,0.7,2.3c0.5,0.6,1.1,0.9,1.8,0.9c0.8,0,1.4-0.3,1.9-0.8C476.7,81.8,476.9,81.1,476.9,80.2
				z"/>
		</g>
		<g>
			<path class="st2" d="M522.1,76.7c-0.2-0.2-0.6-0.3-1.1-0.3c-0.6,0-1.1,0.3-1.5,0.8c-0.4,0.6-0.6,1.3-0.6,2.3v4.4h-1.4v-8.7h1.4
				v1.8h0c0.2-0.6,0.5-1.1,0.9-1.4c0.4-0.3,0.9-0.5,1.4-0.5c0.4,0,0.6,0,0.8,0.1V76.7z"/>
			<path class="st2" d="M536.7,76.7c-0.2-0.2-0.6-0.3-1.1-0.3c-0.6,0-1.1,0.3-1.5,0.8c-0.4,0.6-0.6,1.3-0.6,2.3v4.4h-1.4v-8.7h1.4
				v1.8h0c0.2-0.6,0.5-1.1,0.9-1.4c0.4-0.3,0.9-0.5,1.4-0.5c0.4,0,0.6,0,0.8,0.1V76.7z"/>
			<path class="st2" d="M505,73.1c-0.2,0-0.5-0.1-0.6-0.3c-0.2-0.2-0.3-0.4-0.3-0.6c0-0.3,0.1-0.5,0.3-0.6c0.2-0.2,0.4-0.3,0.6-0.3
				c0.3,0,0.5,0.1,0.6,0.3c0.2,0.2,0.3,0.4,0.3,0.6c0,0.2-0.1,0.5-0.3,0.6C505.5,73,505.3,73.1,505,73.1z M505.7,83.9h-1.4v-8.7h1.4
				V83.9z"/>
			<path class="st2" d="M530.3,83.9h-1.4v-1.4h0c-0.6,1-1.5,1.6-2.7,1.6c-0.9,0-1.5-0.2-2-0.7c-0.5-0.5-0.7-1.1-0.7-1.8
				c0-1.6,1-2.6,2.9-2.8l2.6-0.4c0-1.5-0.6-2.2-1.8-2.2c-1,0-2,0.4-2.8,1.1v-1.4c0.9-0.5,1.8-0.8,2.9-0.8c2,0,3.1,1.1,3.1,3.2V83.9z
				 M528.9,79.6l-2.1,0.3c-0.6,0.1-1.1,0.2-1.5,0.5c-0.3,0.2-0.5,0.6-0.5,1.2c0,0.4,0.2,0.8,0.5,1c0.3,0.3,0.7,0.4,1.2,0.4
				c0.7,0,1.3-0.2,1.7-0.7c0.4-0.5,0.7-1.1,0.7-1.8V79.6z"/>
			<path class="st2" d="M508.1,71.1h1.4v5.4h0c0.5-0.9,1.4-1.4,2.6-1.4c1.2,0,2.2,0.4,2.9,1.3c0.7,0.9,1.1,2,1.1,3.4
				c0,1.3-0.3,2.4-1,3.2c-0.7,0.8-1.5,1.2-2.6,1.2c-1.3,0-2.3-0.6-3-1.7h0v1.5h-1.4V71.1z M510.2,82.1c0.5,0.6,1.1,0.8,1.9,0.8
				c0.8,0,1.4-0.3,1.9-0.9c0.5-0.6,0.7-1.4,0.7-2.4c0-1.1-0.2-1.9-0.7-2.6c-0.5-0.6-1.2-0.9-2-0.9c-0.7,0-1.3,0.2-1.8,0.7
				c-0.5,0.5-0.7,1.1-0.7,1.8V80C509.5,80.9,509.8,81.6,510.2,82.1z"/>
			<path class="st2" d="M496.8,82.5V71.1h-1.4v12.8h1.4v-0.1h5.7v-1.4H496.8z"/>
			<path class="st2" d="M546.3,75.3l-4,10.1c-0.7,1.8-1.7,2.7-3,2.7c-0.4,0-0.7,0-0.9-0.1v-1.2c0.3,0.1,0.6,0.2,0.8,0.2
				c0.7,0,1.2-0.4,1.6-1.3l0.7-1.6l-3.4-8.6h1.5l2.3,6.7c0,0.1,0.1,0.3,0.2,0.7h0c0-0.1,0.1-0.3,0.2-0.6l2.5-6.7H546.3z"/>
		</g>
	</g>
</g>
</svg>
