<?xml version="1.0" encoding="utf-8"?>
<!-- Generator: Adobe Illustrator 25.4.1, SVG Export Plug-In . SVG Version: 6.00 Build 0)  -->
<svg version="1.1" id="ICONS" xmlns="http://www.w3.org/2000/svg" xmlns:xlink="http://www.w3.org/1999/xlink" x="0px" y="0px"
	 viewBox="0 0 50 50" style="enable-background:new 0 0 50 50;" xml:space="preserve">
<style type="text/css">
	.st0{fill:none;stroke:#FFFFFF;stroke-width:2;stroke-linecap:round;stroke-linejoin:round;}
	.st1{fill:none;stroke:#FFD200;stroke-width:2;stroke-linecap:round;stroke-linejoin:round;}
</style>
<g>
	<path id="Path_170_" class="st0" d="M27.7,34.1v9.1c0,1.5-1.2,2.7-2.7,2.7H6.7C5.2,46,4,44.8,4,43.3V6.7C4,5.2,5.2,4,6.7,4H25
		c1.5,0,2.7,1.2,2.7,2.7"/>
	<g>
		<g>
			<path class="st1" d="M23.6,22.9l-2.3-2.3c-0.6-0.6-0.6-1.5,0-2L35.4,4.4c0.6-0.6,1.5-0.6,2,0l8.2,8.2c0.6,0.6,0.6,1.5,0,2
				L31.5,28.7c-0.6,0.6-1.5,0.6-2,0l-3.1-3.1"/>
			<line class="st1" x1="21.3" y1="19.5" x2="34.2" y2="17.4"/>
			<line class="st1" x1="34.2" y1="17.4" x2="36.4" y2="4.5"/>
			<line class="st1" x1="30.5" y1="28.7" x2="31.5" y2="17.9"/>
			<line class="st1" x1="45.5" y1="13.6" x2="34.8" y2="14.7"/>
		</g>
		<line class="st1" x1="23.2" y1="31.4" x2="17.7" y2="36.9"/>
		<line class="st1" x1="23.6" y1="23.2" x2="15.4" y2="31.4"/>
		<line class="st1" x1="15.9" y1="24.1" x2="8.6" y2="31.4"/>
	</g>
</g>
</svg>
