<?xml version="1.0" encoding="utf-8"?>
<!-- Generator: Adobe Illustrator 25.4.1, SVG Export Plug-In . SVG Version: 6.00 Build 0)  -->
<svg version="1.1" id="ICONS" xmlns="http://www.w3.org/2000/svg" xmlns:xlink="http://www.w3.org/1999/xlink" x="0px" y="0px"
	 viewBox="0 0 50 50" style="enable-background:new 0 0 50 50;" xml:space="preserve">
<style type="text/css">
	.st0{fill:#FFD200;}
	.st1{fill:#FFFFFF;}
</style>
<g>
	<path class="st0" d="M4.4,27.2c1.5,0,2.7-1.2,2.7-2.8c0-1.2-0.8-2.2-1.8-2.6v-7.4l7.7,2.5V25c0,0.3,0.1,0.6,0.4,0.7
		c0.2,0.1,4.2,3,11.4,3s11.3-2.9,11.4-3.1c0.2-0.2,0.4-0.4,0.4-0.7v-8.2l8.9-2.9c0.4-0.1,0.6-0.4,0.6-0.8c0-0.4-0.2-0.7-0.5-0.9
		l-20.5-9c-0.2-0.1-0.5-0.1-0.7,0l-20.5,9c-0.3,0.2-0.6,0.5-0.5,0.9c0,0.1,0,8.6,0,8.6c-1.1,0.4-1.9,1.4-1.9,2.6
		C1.7,25.9,2.9,27.2,4.4,27.2L4.4,27.2z M17.5,14.6c5.4-2,12.5-1.8,17.4,1.2v7.6c-3.2-1.6-6.8-2.3-10.4-2.2c-3.3,0-6.6,0.7-9.6,2.2
		v-7.6C15.7,15.3,16.6,14.9,17.5,14.6L17.5,14.6z M24.9,27c-4.4,0-7.5-1.2-9.1-2c5.5-2.7,12.7-2.7,18.2,0C32.4,25.8,29.3,27,24.9,27
		z M24.9,5.1l17.9,7.8l-6.2,2c-0.1-0.2-0.2-0.3-0.3-0.4c-3.2-2.3-7.6-3-11.4-3c-3.8,0-8.2,0.8-11.4,3c-0.1,0.1-0.3,0.2-0.4,0.4
		l-6.2-2L24.9,5.1z M4.4,23.4c0.5,0,0.9,0.4,0.9,1c0,0.5-0.4,1-0.9,1s-0.9-0.4-0.9-1S3.9,23.4,4.4,23.4L4.4,23.4z"/>
	<path class="st1" d="M46.2,42.1L45,41.8c0.1-1,0.4-1.8,0.9-2.5c0.4-0.6,0.9-0.8,0.9-0.9c0.3-0.2,0.5-0.5,0.5-0.9
		c0-0.4-0.3-0.7-0.7-0.8L42,35.5c-0.5-0.1-1,0.2-1.1,0.6c-0.1,0.5,0.2,1,0.6,1.1l3,0.8c-0.6,0.7-1.1,1.7-1.3,3.2l-11.4-3.1
		c-2-0.5-4.1,1-4.1,3.1c0,0.3-0.1,0.5-0.3,0.7c-0.2,0.2-0.5,0.3-0.8,0.3h-0.7v-3.8c0-1.8,1.1-3.4,2.8-4c0.8-0.3,1.6-0.3,2.4-0.1
		l10.4,2.7c0.5,0.1,1-0.2,1.1-0.6c0.1-0.5-0.2-1-0.6-1.1l-10.4-2.7c-1.1-0.3-2.3-0.3-3.5,0.1c-1.3,0.5-2.4,1.4-3.1,2.5
		c-0.7-1.1-1.8-2-3.1-2.5c-1.1-0.4-2.3-0.4-3.5-0.1l-15,3.9c-0.4,0.1-0.6,0.4-0.7,0.8c0,0.4,0.2,0.7,0.5,0.9c0,0,0.5,0.3,0.9,0.9
		C4.6,40,4.9,40.8,5,41.8l-1.2,0.3c-0.6,0.2-1.1,0.5-1.4,1.1C2,43.7,1.9,44.3,2.1,45l0.2,0.7c0.2,0.6,0.5,1.1,1.1,1.5
		c0.5,0.3,1.2,0.4,1.8,0.3c0,0,0,0,0,0L17.5,44c0.5,1,1.1,1.8,2,2.5c1.1,0.9,2.5,1.3,3.9,1.3h3.3c1.4,0,2.8-0.4,3.9-1.3
		c0.9-0.6,1.6-1.5,2-2.5l12.3,3.3c0,0,0,0,0,0c0.6,0.2,1.2,0.1,1.8-0.3c0.5-0.3,0.9-0.8,1.1-1.5l0.2-0.7c0.2-0.6,0.1-1.2-0.3-1.8
		C47.3,42.6,46.8,42.2,46.2,42.1L46.2,42.1z M5.4,38.1l13.4-3.5c0.8-0.2,1.6-0.2,2.4,0.1c1.7,0.6,2.8,2.2,2.8,4v3.8h-0.7
		c-0.6,0-1.1-0.5-1.1-1.1c0-2.1-2.1-3.6-4.1-3.1L6.8,41.3C6.6,39.8,6,38.8,5.4,38.1L5.4,38.1z M46.2,44.5L46,45.2
		c-0.1,0.3-0.3,0.5-0.7,0.4l-13.1-3.5c-0.5-0.1-0.9,0.1-1.1,0.6c-0.6,2-2.5,3.3-4.5,3.3h-3.3c-2,0-3.9-1.4-4.5-3.3
		c-0.1-0.4-0.5-0.6-0.9-0.6c-0.1,0-0.2,0-0.2,0L4.7,45.6c-0.3,0.1-0.6-0.1-0.7-0.4l-0.2-0.7c-0.1-0.3,0.1-0.6,0.4-0.7l14.5-3.9
		c0.9-0.2,1.8,0.5,1.8,1.4c0,1.5,1.3,2.8,2.9,2.8h3.2c0.8,0,1.5-0.3,2-0.8c0.6-0.5,0.9-1.3,0.9-2c0-0.9,0.9-1.6,1.8-1.4l3.4,0.9
		l11,3C46,43.9,46.2,44.2,46.2,44.5L46.2,44.5z"/>
</g>
</svg>
