<svg xmlns="http://www.w3.org/2000/svg" xmlns:xlink="http://www.w3.org/1999/xlink" width="46" height="34" viewBox="0 0 46 34">
  <defs>
    <style>
      .cls-1 {
        fill: #ea6428;
        fill-rule: evenodd;
        filter: url(#filter);
      }
    </style>
    <filter id="filter" x="1307" y="1123" width="46" height="34" filterUnits="userSpaceOnUse">
      <feFlood result="flood" flood-color="#a69292"/>
      <feComposite result="composite" operator="in" in2="SourceGraphic"/>
      <feBlend result="blend" in2="SourceGraphic"/>
    </filter>
  </defs>
  <path id="形狀_57" data-name="形狀 57" class="cls-1" d="M1352.87,1154.27a11.666,11.666,0,0,0-4.73-4.14,6.881,6.881,0,0,0,1.22-3.91v-2.78a3.469,3.469,0,0,0,0-6.54v-6.85a7.141,7.141,0,0,0-7.21-7.05h-2.67a7.141,7.141,0,0,0-7.21,7.05v6.85a3.469,3.469,0,0,0,0,6.54v2.78a6.915,6.915,0,0,0,1.13,3.77,11.787,11.787,0,0,0-5.03,4.28,0.84,0.84,0,0,0,.3,1.16,0.883,0.883,0,0,0,.44.12,0.853,0.853,0,0,0,.74-0.41,11.355,11.355,0,0,1,7.13-4.62,3.711,3.711,0,0,0,7.28,0,14.94,14.94,0,0,1,1.86.57,0.038,0.038,0,0,0,.02.02,0.864,0.864,0,0,0,.6.24h0a10.243,10.243,0,0,1,4.66,3.79,0.837,0.837,0,0,0,.73.41,0.892,0.892,0,0,0,.45-0.12A0.829,0.829,0,0,0,1352.87,1154.27Zm-8.55-5.46v-0.77a7.226,7.226,0,0,0,3.31-2.16v0.34a5.29,5.29,0,0,1-1.1,3.22A15.651,15.651,0,0,0,1344.32,1148.81Zm-6-2.25a0.845,0.845,0,0,0-.54-0.19,0.34,0.34,0,0,0-.1.01,5.464,5.464,0,0,1-3.35-3.21,0.808,0.808,0,0,0,.08-0.34,0.868,0.868,0,0,0-.34-0.67,4.609,4.609,0,0,1-.07-0.84v-3.09c0.02-.01.04-0.03,0.06-0.04,2.67-.58,5.15-2.75,6.76-5.87,1.6,3.12,4.09,5.29,6.76,5.87a0.218,0.218,0,0,0,.05.04v3.09a4.8,4.8,0,0,1-.07.85,0.824,0.824,0,0,0-.33.66,0.8,0.8,0,0,0,.07.34,5.478,5.478,0,0,1-3.51,3.26,0.881,0.881,0,0,0-.33-0.06,0.853,0.853,0,0,0-.63.27c-0.22.02-.45,0.04-0.68,0.04h-2.67A5.568,5.568,0,0,1,1338.32,1146.56Zm11.62-6.39a1.782,1.782,0,0,1-.58,1.32v-2.63A1.761,1.761,0,0,1,1349.94,1140.17ZM1334,1130.05a5.425,5.425,0,0,1,5.48-5.36h2.67a5.425,5.425,0,0,1,5.48,5.36v6.42c-2.47-.69-4.76-3.16-6-6.58a0.864,0.864,0,0,0-.81-0.57h0a0.867,0.867,0,0,0-.82.57c-1.23,3.42-3.52,5.89-6,6.58v-6.42Zm-2.31,10.12a1.761,1.761,0,0,1,.58-1.31v2.63A1.782,1.782,0,0,1,1331.69,1140.17Zm2.31,6.05v-0.34a7.239,7.239,0,0,0,2.92,2.03v0.9a14.761,14.761,0,0,0-1.9.52A5.263,5.263,0,0,1,1334,1146.22Zm6.62,5.6a1.946,1.946,0,0,1-1.97-1.93v-1.57a7.55,7.55,0,0,0,.83.05h2.67c0.15,0,.3-0.01.45-0.02v1.54A1.955,1.955,0,0,1,1340.62,1151.82Zm0.31-6.72a2.5,2.5,0,0,0,2.53-2.48v-1.14a0.843,0.843,0,0,0-.86-0.84h-4.51a0.849,0.849,0,0,0-.86.84v1.14a2.51,2.51,0,0,0,2.53,2.48h1.17Zm-1.97-2.48v-0.3h2.78v0.3a0.8,0.8,0,0,1-.81.79h-1.17A0.794,0.794,0,0,1,1338.96,1142.62Zm-11.95,5.77h-15.59a4.2,4.2,0,0,0-4.42,3.92v3.85a0.86,0.86,0,0,0,1.72,0v-3.85a2.5,2.5,0,0,1,2.7-2.23h6.36v3.17a0.865,0.865,0,0,0,1.73,0v-3.17h0.94v3.17a0.865,0.865,0,0,0,1.73,0v-3.17h4.83A0.845,0.845,0,1,0,1327.01,1148.39Zm0.14-15.96a0.858,0.858,0,0,0-.86.85v6.08a7.077,7.077,0,0,1-14.15,0v-6.21c0-.02-0.01-0.04-0.01-0.07a1.156,1.156,0,0,1,1.08-.75h12.85a4.5,4.5,0,0,0,4.54-4.43v-2.94a0.86,0.86,0,0,0-.87-0.85h-13.35a4.56,4.56,0,0,0-3.51,1.63h-1.63a3.679,3.679,0,0,0-3.71,3.63v10.12a0.858,0.858,0,0,0,.86.85h2.08a8.816,8.816,0,0,0,17.55-.98v-6.08A0.86,0.86,0,0,0,1327.15,1132.43Zm-16.81,6.22h-1.08v-9.28a1.963,1.963,0,0,1,1.98-1.94h2.07a0.886,0.886,0,0,0,.72-0.38,2.819,2.819,0,0,1,2.35-1.25h12.49v2.1a2.787,2.787,0,0,1-2.81,2.75h-12.85a2.837,2.837,0,0,0-2.87,2.8v5.2Zm6,0.61a0.871,0.871,0,0,0-.62.26,0.836,0.836,0,0,0-.24.62,3.978,3.978,0,1,0,7.95,0,0.836,0.836,0,0,0-.24-0.62,0.854,0.854,0,0,0-.62-0.26h-6.23Zm3.12,3.32a2.289,2.289,0,0,1-2.09-1.63h4.17A2.287,2.287,0,0,1,1319.46,1142.58Z" transform="translate(-1307 -1123)"/>
</svg>
