<?xml version="1.0" encoding="utf-8"?>
<!-- Generator: Adobe Illustrator 25.3.1, SVG Export Plug-In . SVG Version: 6.00 Build 0)  -->
<svg version="1.1" id="ICONS" xmlns="http://www.w3.org/2000/svg" xmlns:xlink="http://www.w3.org/1999/xlink" x="0px" y="0px"
	 viewBox="0 0 50 50" style="enable-background:new 0 0 50 50;" xml:space="preserve">
<style type="text/css">
	.st0{fill:none;stroke:#FFFFFF;stroke-width:2;stroke-linecap:round;stroke-linejoin:round;}
	.st1{fill:none;stroke:#FFD200;stroke-width:2;stroke-linecap:round;stroke-linejoin:round;}
</style>
<g>
	<polyline class="st0" points="43.3,36.9 46,43.3 46,46 4,46 4,43.3 6.7,36.9 	"/>
	<polyline class="st1" points="20.4,46 20.4,44.2 22.3,42.3 27.8,42.3 29.6,44.2 29.6,46 	"/>
	<path class="st0" d="M43.3,27.7v9.1H6.7V12.2c0-0.5,0.4-0.9,0.9-0.9h13.7"/>
	<path id="Rectangle_96_" class="st1" d="M11.3,36v-3.7c0-1.8,2.7-2.7,5.5-2.7s5.5,0.9,5.5,2.7V36"/>
	<path class="st1" d="M19.5,22.3c0-1.5-1.2-2.7-2.7-2.7c-1.5,0-2.7,1.2-2.7,2.7v0.9c0,1.5,1.2,2.7,2.7,2.7c1.5,0,2.7-1.2,2.7-2.7
		V22.3z"/>
	<path id="Rectangle-Copy-10_15_" class="st0" d="M26.8,4h17.3c1,0,1.8,0.8,1.8,1.8v16.4c0,1-0.8,1.8-1.8,1.8H35l-6.3,4.6v-4.6h-1.8
		c-1,0-1.8-0.8-1.8-1.8V5.8C25,4.8,25.8,4,26.8,4z"/>
	<line class="st1" x1="30.5" y1="9.5" x2="36.9" y2="9.5"/>
	<line class="st1" x1="30.5" y1="14" x2="40.5" y2="14"/>
	<line class="st1" x1="30.5" y1="18.6" x2="40.5" y2="18.6"/>
</g>
</svg>
