<svg xmlns="http://www.w3.org/2000/svg" xmlns:xlink="http://www.w3.org/1999/xlink" width="35" height="38" viewBox="0 0 35 38">
  <defs>
    <style>
      .cls-1 {
        fill: #ea6428;
        fill-rule: evenodd;
        filter: url(#filter);
      }
    </style>
    <filter id="filter" x="1312" y="875" width="35" height="38" filterUnits="userSpaceOnUse">
      <feFlood result="flood" flood-color="#a69292"/>
      <feComposite result="composite" operator="in" in2="SourceGraphic"/>
      <feBlend result="blend" in2="SourceGraphic"/>
    </filter>
  </defs>
  <path id="形狀_56" data-name="形狀 56" class="cls-1" d="M1346.95,911.807l-0.73-2.184a5.674,5.674,0,0,0-4.13-3.714l-4.24-.936-2.18-2.173a0.9,0.9,0,0,0-1.28,0l-4.89,4.866-4.62-4.6V899.8q0.4,0.222.84,0.416a0.928,0.928,0,0,0,.37.078,0.905,0.905,0,0,0,.37-1.733c-2.86-1.271-4.72-3.68-4.74-6.134v-2.36a5.438,5.438,0,0,1,3.39-4.67,0.91,0.91,0,0,0,.53-0.6,19.3,19.3,0,0,0,3.63,3.334,21.754,21.754,0,0,0,6.43,3.232v1.093a6.479,6.479,0,0,1-2.76,5.457,0.907,0.907,0,0,0,.5,1.66,0.923,0.923,0,0,0,.51-0.152,8.156,8.156,0,0,0,3.57-6.965v-0.73a6.687,6.687,0,0,0,.67.035,0.922,0.922,0,0,0,.67-0.295v3.125a0.772,0.772,0,0,0-.02.153c0,3.333-2.64,5.9-6.25,6.19a2.485,2.485,0,0,0-2.3-1.544h-0.79a2.479,2.479,0,1,0,0,4.958h0.79a2.479,2.479,0,0,0,2.32-1.6,9.094,9.094,0,0,0,5.45-2.223,7.607,7.607,0,0,0,2.54-4.83h0.75a2.489,2.489,0,0,0,2.49-2.479v-3.934a2.489,2.489,0,0,0-2.49-2.479h-0.67v-1.227a10.251,10.251,0,0,0-3.37-7.228A11.842,11.842,0,0,0,1329.1,875c-6.62,0-11.57,5.582-11.57,10.573V886.8h-0.67a2.489,2.489,0,0,0-2.49,2.479v3.934a2.489,2.489,0,0,0,2.49,2.479h1.58a0.909,0.909,0,0,0,.91-0.9v-9.214a8.554,8.554,0,0,1,2.81-5.922,9.912,9.912,0,0,1,13.89,0,8.554,8.554,0,0,1,2.81,5.922v4.669a0.922,0.922,0,0,0-.67-0.294c-1.96,0-5.12-1.322-7.86-3.289-2.87-2.06-4.66-4.371-4.66-6.033a0.91,0.91,0,0,0-1.82,0,5.827,5.827,0,0,0,.98,3.031,0.922,0.922,0,0,0-.42.066,7.226,7.226,0,0,0-4.51,6.343v2.366a8.257,8.257,0,0,0,3.16,6.135v4.5l-1.92,1.908-4.23.936a5.675,5.675,0,0,0-4.13,3.713l-0.73,2.185a0.907,0.907,0,0,0,.57,1.146,0.964,0.964,0,0,0,.29.047,0.9,0.9,0,0,0,.86-0.62l0.74-2.185a3.829,3.829,0,0,1,2.8-2.517l4-.886,5.18,5.155a0.909,0.909,0,0,0,.64.265,0.892,0.892,0,0,0,.64-0.265l1.73-1.719,1.73,1.719a0.905,0.905,0,0,0,1.28,0l5.18-5.155,4,0.886a3.828,3.828,0,0,1,2.8,2.518l0.74,2.184a0.9,0.9,0,0,0,.86.62,0.964,0.964,0,0,0,.29-0.047A0.907,0.907,0,0,0,1346.95,911.807Zm-16.66-9.273h-0.79a0.668,0.668,0,1,1,0-1.335h0.79A0.668,0.668,0,1,1,1330.29,902.534Zm-12.76-8.653h-0.67a0.67,0.67,0,0,1-.67-0.668v-3.934a0.669,0.669,0,0,1,.67-0.667h0.67v5.269Zm23.82-5.269a0.669,0.669,0,0,1,.67.667v3.934a0.67,0.67,0,0,1-.67.668h-0.67v-5.269h0.67Zm-14.22,21.414-4.24-4.226,1.08-1.079,4.24,4.226Zm4.74,0-1.08-1.079,4.24-4.226,1.08,1.079Z" transform="translate(-1312 -875)"/>
</svg>
