<svg xmlns="http://www.w3.org/2000/svg" xmlns:xlink="http://www.w3.org/1999/xlink" width="33" height="39.031" viewBox="0 0 33 39.031">
  <defs>
    <style>
      .cls-1 {
        fill: #ea6428;
        fill-rule: evenodd;
        filter: url(#filter);
      }
    </style>
    <filter id="filter" x="1313" y="997.969" width="33" height="39.031" filterUnits="userSpaceOnUse">
      <feFlood result="flood" flood-color="#a69292"/>
      <feComposite result="composite" operator="in" in2="SourceGraphic"/>
      <feBlend result="blend" in2="SourceGraphic"/>
    </filter>
  </defs>
  <path id="形狀_55" data-name="形狀 55" class="cls-1" d="M1329.08,1019.01a3.686,3.686,0,1,0,3.62,3.69A3.658,3.658,0,0,0,1329.08,1019.01Zm0,5.09a1.4,1.4,0,1,1,1.38-1.4A1.385,1.385,0,0,1,1329.08,1024.1Zm-5.72-15.52h2.5c2.1,0,2.17-1.7,2.17-2.51a1.563,1.563,0,0,1,.71-1.11,1.474,1.474,0,0,1,1.6.04,1.508,1.508,0,0,1,.65,1.12,1.587,1.587,0,0,1-.44,1.26c-0.27.27-.65,0.61-1.06,0.97-1.7,1.51-4.02,3.58-4.02,5.87v2.54a2.048,2.048,0,0,0,2.05,1.99h2.49a1.883,1.883,0,0,0,1.86-1.99v-1.64a8.9,8.9,0,0,1,2.05-1.89c0.49-.38.96-0.74,1.29-1.06a8.165,8.165,0,0,0,2.42-6.58,8.371,8.371,0,0,0-3.61-6.22,8.029,8.029,0,0,0-9.46.353,8.384,8.384,0,0,0-3.16,6.237v0.32a2.29,2.29,0,0,0,.48,1.77A1.946,1.946,0,0,0,1323.36,1008.58Zm0.28-2.55a6.105,6.105,0,0,1,2.29-4.51,5.822,5.822,0,0,1,6.84-.26,6.108,6.108,0,0,1,2.63,4.52,5.876,5.876,0,0,1-1.74,4.74c-0.24.23-.65,0.55-1.09,0.89-1.45,1.11-2.94,2.26-2.94,3.66v1.4h-1.92v-2.25c0-1.26,1.95-3,3.25-4.15,0.44-.39.85-0.75,1.17-1.08a3.857,3.857,0,0,0,1.09-3.08,3.78,3.78,0,0,0-1.62-2.79,3.68,3.68,0,0,0-4.05-.09,3.892,3.892,0,0,0-1.76,2.85V1006a2.538,2.538,0,0,1-.01.3h-2.14v-0.27Zm17.92,3.66h-2.5a1.14,1.14,0,0,0,0,2.28h2.5a2.23,2.23,0,0,1,2.2,2.25v11.87a2.23,2.23,0,0,1-2.2,2.25h-12.73a1.076,1.076,0,0,0-.8.35l-5.31,5.59v-4.8a1.129,1.129,0,0,0-1.12-1.14h-4.16a2.23,2.23,0,0,1-2.2-2.25v-11.87a2.23,2.23,0,0,1,2.2-2.25h2.5a1.14,1.14,0,0,0,0-2.28h-2.5a4.488,4.488,0,0,0-4.44,4.53v11.87a4.488,4.488,0,0,0,4.44,4.53h3.04v4.39a1.966,1.966,0,0,0,1.22,1.84,1.892,1.892,0,0,0,2.13-.46l5.48-5.77h12.25a4.488,4.488,0,0,0,4.44-4.53v-11.87A4.488,4.488,0,0,0,1341.56,1009.69Z" transform="translate(-1313 -997.969)"/>
</svg>
