<?xml version="1.0" encoding="utf-8"?>
<!-- Generator: Adobe Illustrator 25.3.1, SVG Export Plug-In . SVG Version: 6.00 Build 0)  -->
<svg version="1.1" id="ICONS" xmlns="http://www.w3.org/2000/svg" xmlns:xlink="http://www.w3.org/1999/xlink" x="0px" y="0px"
	 viewBox="0 0 50 50" style="enable-background:new 0 0 50 50;" xml:space="preserve">
<style type="text/css">
	.st0{fill:#FFD200;}
	.st1{fill:#FFFFFF;}
</style>
<g>
	<path class="st0" d="M45.3,34.8H4.7c-0.4,0-0.7-0.3-0.7-0.7c0-0.4,0.3-0.7,0.7-0.7h40.5c0.4,0,0.7,0.3,0.7,0.7
		C46,34.5,45.7,34.8,45.3,34.8z"/>
	<path class="st0" d="M27.7,42.3h-5.3c-0.4,0-0.7-0.3-0.7-0.7V38c0-0.4,0.3-0.7,0.7-0.7h5.3c0.4,0,0.7,0.3,0.7,0.7v3.6
		C28.4,42,28.1,42.3,27.7,42.3z M23.1,40.8h3.9v-2.1h-3.9V40.8z"/>
	<path class="st0" d="M31.4,46.9H18.6c-0.3,0-0.5-0.1-0.6-0.4c-0.1-0.2-0.1-0.5,0-0.7l2.7-4.6c0.1-0.2,0.4-0.4,0.6-0.4h7.3
		c0.3,0,0.5,0.1,0.6,0.4l2.7,4.6c0.1,0.2,0.1,0.5,0,0.7C31.9,46.8,31.6,46.9,31.4,46.9z M19.9,45.5h10.2l-1.8-3.2h-6.5L19.9,45.5z"
		/>
	<path class="st0" d="M35.9,46.9H14.1c-0.4,0-0.7-0.3-0.7-0.7c0-0.4,0.3-0.7,0.7-0.7h21.7c0.4,0,0.7,0.3,0.7,0.7
		C36.6,46.6,36.3,46.9,35.9,46.9z"/>
	<path class="st1" d="M25,31.4c-7.8,0-14.2-6.4-14.2-14.2c0-7.8,6.4-14.2,14.2-14.2c7.8,0,14.2,6.4,14.2,14.2
		C39.2,25.1,32.8,31.4,25,31.4z M25,4.5c-7,0-12.7,5.7-12.7,12.7C12.3,24.3,18,30,25,30c7,0,12.7-5.7,12.7-12.7
		C37.7,10.2,32,4.5,25,4.5z"/>
	<path class="st1" d="M25,31.4c-4.4,0-7.9-6.2-7.9-14.2c0-7.9,3.5-14.2,7.9-14.2c4.4,0,7.9,6.2,7.9,14.2
		C32.9,25.2,29.4,31.4,25,31.4z M25,4.5c-3.5,0-6.4,5.8-6.4,12.7c0,6.9,2.9,12.7,6.4,12.7c3.5,0,6.4-5.8,6.4-12.7
		C31.4,10.4,28.5,4.5,25,4.5z"/>
	<path class="st1" d="M25,25.1c-7.9,0-14.2-3.5-14.2-7.9S17.1,9.4,25,9.4c7.9,0,14.2,3.5,14.2,7.9S32.9,25.1,25,25.1z M25,10.8
		c-6.9,0-12.7,2.9-12.7,6.4s5.8,6.4,12.7,6.4c6.9,0,12.7-2.9,12.7-6.4S31.9,10.8,25,10.8z"/>
	<path class="st1" d="M25,31.4c-0.4,0-0.7-0.3-0.7-0.7V3.8c0-0.4,0.3-0.7,0.7-0.7c0.4,0,0.7,0.3,0.7,0.7v26.9
		C25.7,31.1,25.4,31.4,25,31.4z"/>
	<path class="st1" d="M38.4,18H11.6c-0.4,0-0.7-0.3-0.7-0.7c0-0.4,0.3-0.7,0.7-0.7h26.9c0.4,0,0.7,0.3,0.7,0.7
		C39.2,17.7,38.8,18,38.4,18z"/>
	<path class="st0" d="M42.7,38.7H7.3c-1.8,0-3.3-1.5-3.3-3.3V12.5c0-1.8,1.5-3.3,3.3-3.3h2.4c0.4,0,0.7,0.3,0.7,0.7
		c0,0.4-0.3,0.7-0.7,0.7H7.3c-1,0-1.8,0.8-1.8,1.8v22.9c0,1,0.8,1.8,1.8,1.8h35.4c1,0,1.8-0.8,1.8-1.8V12.5c0-1-0.8-1.8-1.8-1.8
		h-2.4c-0.4,0-0.7-0.3-0.7-0.7c0-0.4,0.3-0.7,0.7-0.7h2.4c1.8,0,3.3,1.5,3.3,3.3v22.9C46,37.2,44.5,38.7,42.7,38.7z"/>
</g>
</svg>
