<?xml version="1.0" encoding="utf-8"?>
<!-- Generator: Adobe Illustrator 25.3.1, SVG Export Plug-In . SVG Version: 6.00 Build 0)  -->
<svg version="1.1" id="ICONS" xmlns="http://www.w3.org/2000/svg" xmlns:xlink="http://www.w3.org/1999/xlink" x="0px" y="0px"
	 viewBox="0 0 50 50" style="enable-background:new 0 0 50 50;" xml:space="preserve">
<style type="text/css">
	.st0{fill:none;stroke:#FFFFFF;stroke-width:1.5;stroke-linecap:round;stroke-linejoin:round;stroke-miterlimit:10;}
	.st1{fill:none;stroke:#FFD200;stroke-width:1.5;stroke-linecap:round;stroke-linejoin:round;stroke-miterlimit:10;}
</style>
<g>
	<path class="st0" d="M43,9h0.8C45,9,46,10,46,11.2v23.5c0,1.2-1,2.2-2.2,2.2H6.2C5,37,4,36,4,34.8V11.2C4,10,5,9,6.2,9H7"/>
	<line class="st0" x1="46" y1="30" x2="5" y2="30"/>
	<path class="st0" d="M18,44l3.4-2.4c0.3-0.2,0.6-0.8,0.6-1.3l0-3.2"/>
	<path class="st0" d="M28,37l0,3.2c0,0.6,0.2,1.1,0.6,1.3L32,44"/>
	<line class="st0" x1="34" y1="44" x2="16" y2="44"/>
	<line class="st1" x1="14" y1="17" x2="22" y2="17"/>
	<line class="st1" x1="14" y1="13" x2="22" y2="13"/>
	<line class="st1" x1="15" y1="21" x2="20" y2="21"/>
	<line class="st1" x1="14" y1="17" x2="22" y2="17"/>
	<polyline class="st0" points="37,6 37,17.4 33,14.3 29,17.4 29,6 	"/>
	<path class="st1" d="M22,26H10V6h12.4C23.8,6,25,7.2,25,8.6V27V8.6C25,7.2,26.2,6,27.6,6H40v20H28"/>
</g>
</svg>
