<svg xmlns="http://www.w3.org/2000/svg" xmlns:xlink="http://www.w3.org/1999/xlink" width="35" height="37" viewBox="0 0 35 37">
  <defs>
    <style>
      .cls-1 {
        fill: #ea6428;
        fill-rule: evenodd;
        filter: url(#filter);
      }
    </style>
    <filter id="filter" x="1312" y="1060" width="35" height="37" filterUnits="userSpaceOnUse">
      <feFlood result="flood" flood-color="#a69292"/>
      <feComposite result="composite" operator="in" in2="SourceGraphic"/>
      <feBlend result="blend" in2="SourceGraphic"/>
    </filter>
  </defs>
  <path id="形狀_50" data-name="形狀 50" class="cls-1" d="M1346.99,1087.75v-19.31a1.773,1.773,0,0,0-1.77-1.77h-3.26a0.86,0.86,0,0,0,0,1.72h3.26a0.065,0.065,0,0,1,.06.05v18.55h-31.57v-18.55a0.065,0.065,0,0,1,.06-0.05h3.27a0.86,0.86,0,0,0,0-1.72h-3.27a1.773,1.773,0,0,0-1.77,1.77v22.21a2.081,2.081,0,0,0,1.95,2h10.98v0.29a11.209,11.209,0,0,1-.05,1.7,2.168,2.168,0,0,1-.07.28l-0.11.06c-0.1.06-.28,0.14-0.49,0.24h-0.86a0.86,0.86,0,0,0,0,1.72h0.61a0.883,0.883,0,0,0,.6,0h9.83a0.866,0.866,0,0,0,.32.06,0.853,0.853,0,0,0,.31-0.06h0.64a0.86,0.86,0,0,0,0-1.72h-0.91c-0.22-.1-0.39-0.18-0.49-0.24l-0.04-.02a0.219,0.219,0,0,1-.05-0.03,2.026,2.026,0,0,1-.07-0.29,10.845,10.845,0,0,1-.05-1.68v-0.31h11.24a1.823,1.823,0,0,0,1.71-1.95v-2.85A0.375,0.375,0,0,0,1346.99,1087.75Zm-20.35,5.16v-0.26h5.7v0.28a10.921,10.921,0,0,0,.09,2.05c0.02,0.09.03,0.16,0.05,0.24h-5.98a1.7,1.7,0,0,0,.05-0.24A11.1,11.1,0,0,0,1326.64,1092.91Zm18.65-4.18v1.97a0.4,0.4,0,0,1-.06.23h-31.28a0.478,0.478,0,0,1-.24-0.28v-1.92h31.58Zm-28.98-17.7h0.73a0.86,0.86,0,0,0,0-1.72h-1.58a0.866,0.866,0,0,0-.86.86v15.04a0.866,0.866,0,0,0,.86.86h3.6a0.148,0.148,0,0,0,.07-0.01h0.02a0.2,0.2,0,0,0,.07.01,0.858,0.858,0,0,0,.85-0.86v-23.49h13.7l-0.04,4.82a0.9,0.9,0,0,0,.25.62,0.845,0.845,0,0,0,.61.25l4.38-.04v17.84a0.858,0.858,0,0,0,.85.86,0.22,0.22,0,0,0,.08-0.01h0.02a0.22,0.22,0,0,0,.08.01h3.5a0.858,0.858,0,0,0,.85-0.86v-15.04a0.858,0.858,0,0,0-.85-0.86h-1.54a0.86,0.86,0,0,0,0,1.72h0.68v13.32h-1.96v-17.4a9.034,9.034,0,0,0-.4-1.02l-5.02-5.61a0.845,0.845,0,0,0-.86-0.26,0.866,0.866,0,0,0-.32-0.06h-14.86a0.866,0.866,0,0,0-.86.86v23.49h-2.05v-13.32Zm19.13-5.35,0.02-2.57,2.28,2.55Zm0.48,3.55h-9.89a0.86,0.86,0,0,0,0,1.72h9.89A0.86,0.86,0,1,0,1335.92,1069.23Zm-14.41.22,1.01,0.65a0.8,0.8,0,0,0,.46.13,0.815,0.815,0,0,0,.66-0.32l1.53-1.91a0.834,0.834,0,0,0,.08-0.12,0.849,0.849,0,0,0,.78.51h6.83a0.86,0.86,0,0,0,0-1.72h-6.83a0.842,0.842,0,0,0-.74.44,0.961,0.961,0,0,0-.25-0.32,0.848,0.848,0,0,0-1.2.13l-1.05,1.31-0.36-.23a0.855,0.855,0,0,0-1.18.26A0.866,0.866,0,0,0,1321.51,1069.45Zm14.41,3.79h-9.89a0.823,0.823,0,0,0-.74.44,0.8,0.8,0,0,0-.25-0.32,0.848,0.848,0,0,0-1.2.13l-1.05,1.31-0.36-.23a0.9,0.9,0,0,0-.64-0.12,0.851,0.851,0,0,0-.54.38,0.868,0.868,0,0,0,.26,1.19l1.01,0.65a0.8,0.8,0,0,0,.46.13,0.844,0.844,0,0,0,.66-0.32l1.53-1.91a0.834,0.834,0,0,0,.08-0.12,0.849,0.849,0,0,0,.78.51h9.89A0.86,0.86,0,1,0,1335.92,1073.24Zm0,2.56h-9.89a0.86,0.86,0,1,0,0,1.72h9.89A0.86,0.86,0,1,0,1335.92,1075.8Zm0,4.01h-9.89a0.833,0.833,0,0,0-.74.43,0.961,0.961,0,0,0-.25-0.32,0.859,0.859,0,0,0-1.2.14l-1.05,1.31-0.36-.23a0.846,0.846,0,0,0-1.18.26,0.868,0.868,0,0,0,.26,1.19l1.01,0.64a0.806,0.806,0,0,0,.46.14,0.844,0.844,0,0,0,.66-0.32l1.53-1.92a0.444,0.444,0,0,0,.08-0.11,0.849,0.849,0,0,0,.78.51h9.89A0.86,0.86,0,1,0,1335.92,1079.81Zm0,2.55h-9.89a0.86,0.86,0,1,0,0,1.72h9.89A0.86,0.86,0,1,0,1335.92,1082.36Z" transform="translate(-1312 -1060)"/>
</svg>
