<svg xmlns="http://www.w3.org/2000/svg" xmlns:xlink="http://www.w3.org/1999/xlink" width="48" height="38" viewBox="0 0 48 38">
  <defs>
    <style>
      .cls-1 {
        fill: #ea6428;
        fill-rule: evenodd;
        filter: url(#filter);
      }
    </style>
    <filter id="filter" x="1306" y="937" width="48" height="38" filterUnits="userSpaceOnUse">
      <feFlood result="flood" flood-color="#a69292"/>
      <feComposite result="composite" operator="in" in2="SourceGraphic"/>
      <feBlend result="blend" in2="SourceGraphic"/>
    </filter>
  </defs>
  <path id="形狀_48" data-name="形狀 48" class="cls-1" d="M1353.56,946.927l-3.95-2.31a1.017,1.017,0,0,0-.27-0.1,0.874,0.874,0,0,0-.79-0.517h-7.61l-0.07-1.55a3.17,3.17,0,0,0-3.14-3.155,3.949,3.949,0,0,0-1.84.382,3.116,3.116,0,0,0-2.67-1.531,3.078,3.078,0,0,0-1.75.544,3.115,3.115,0,0,0-5.64.211,3.2,3.2,0,0,0-4.96,2.733V942.1a4.241,4.241,0,0,0-2.63-.915h-1.15a0.889,0.889,0,0,0-.89.828,1.47,1.47,0,0,0,.01.211V944h-6.32a0.863,0.863,0,0,0-.81.568h-1.82a1.317,1.317,0,0,0-1.26,1.37v3.47a1.318,1.318,0,0,0,1.26,1.373h1.83a0.868,0.868,0,0,0,.8.55h6.32V952.3a0.918,0.918,0,0,0,.21.573l6.54,7.738c0.02,0.023.04,0.044,0.06,0.065a7.032,7.032,0,0,0,2.47,1.536v0.813a0.875,0.875,0,0,0,.8.875h-2.11a0.878,0.878,0,0,0-.88.881v9.34a0.875,0.875,0,1,0,1.75,0V965.66h14.35v8.458a0.875,0.875,0,1,0,1.75,0v-9.34a0.876,0.876,0,0,0-.87-0.881h-2.54a0.883,0.883,0,0,0,.8-0.875v-2.1a7.058,7.058,0,0,0,2.44-5.364v-4.23h7.57a0.868,0.868,0,0,0,.76-0.462,0.912,0.912,0,0,0,.3-0.106l3.95-2.31A0.882,0.882,0,0,0,1353.56,946.927Zm-35.6-3.978h0.28a2.541,2.541,0,0,1,2.05,1.052h-2.33v-1.052Zm-10.22,3.384h1.28v2.685h-1.28v-2.685Zm3.03-.569h10.04v3.8h-3.39a0.8,0.8,0,0,0-.33-0.069,0.843,0.843,0,0,0-.34.069h-5.98v-3.8Zm26.37,14.035a0.886,0.886,0,0,0-.35.705v2.518a0.875,0.875,0,0,0,.8.875h-11.15a0.875,0.875,0,0,0,.8-0.875v-1.468a0.885,0.885,0,0,0-.67-0.856,5.187,5.187,0,0,1-2.31-1.272l-6.3-7.454v-0.64h2.85v0.121a0.879,0.879,0,0,0,.88.882l0.03,0,0.03,0a0.876,0.876,0,0,0,.87-0.882v-9.818a1.476,1.476,0,0,1,1.46-1.494,1.535,1.535,0,0,1,1.49,1.329,0.87,0.87,0,1,0,1.74,0v-1.293a1.39,1.39,0,1,1,2.78,0v1.149a0.87,0.87,0,1,0,1.74,0,1.385,1.385,0,1,1,2.77,0V941.9a0.875,0.875,0,1,0,1.75,0v0c0-.253,0-0.839,1.38-0.839a1.4,1.4,0,0,1,1.39,1.415v0.043l0.09,1.863a0.87,0.87,0,0,0-.16.5,0.889,0.889,0,0,0,.18.531v4.5a0.875,0.875,0,0,0,0,1.063v4.581A5.281,5.281,0,0,1,1337.14,959.8Zm3.84-14.035h6.65c0.02,0.028.03,0.055,0.05,0.081v3.692c-0.01.01-.01,0.02-0.02,0.031h-6.68v-3.8Zm8.44,3.071v-2.289l1.96,1.145Zm-11.93,18.276a0.876,0.876,0,0,0-.87.881v2.059a0.87,0.87,0,1,0,1.74,0v-2.059A0.876,0.876,0,0,0,1337.49,967.111Z" transform="translate(-1306 -937)"/>
</svg>
