<?xml version="1.0" encoding="utf-8"?>
<!-- Generator: Adobe Illustrator 25.3.1, SVG Export Plug-In . SVG Version: 6.00 Build 0)  -->
<svg version="1.1" id="ICONS" xmlns="http://www.w3.org/2000/svg" xmlns:xlink="http://www.w3.org/1999/xlink" x="0px" y="0px"
	 viewBox="0 0 50 50" style="enable-background:new 0 0 50 50;" xml:space="preserve">
<style type="text/css">
	.st0{fill:none;stroke:#FFFFFF;stroke-width:1.5;stroke-linecap:round;stroke-linejoin:round;stroke-miterlimit:10;}
	.st1{fill:none;stroke:#FFD200;stroke-width:1.5;stroke-linecap:round;stroke-linejoin:round;stroke-miterlimit:10;}
</style>
<g>
	<polyline class="st0" points="42,17 46,17 46,44 4,44 4,17 8,17 	"/>
	<polyline class="st0" points="22,39 8,39 8,14 11,14 	"/>
	<polyline class="st0" points="28,39 41,39 41,14 38,14 	"/>
	<line class="st1" x1="25" y1="31" x2="25" y2="40"/>
	<line class="st0" x1="13" y1="32" x2="21" y2="32"/>
	<line class="st0" x1="13" y1="35" x2="18" y2="35"/>
	<line class="st0" x1="30" y1="32" x2="38" y2="32"/>
	<line class="st0" x1="30" y1="35" x2="35" y2="35"/>
	<circle class="st1" cx="25" cy="17" r="11"/>
	<ellipse class="st1" cx="25.5" cy="17" rx="5.5" ry="11"/>
	<line class="st1" x1="25" y1="7" x2="25" y2="27"/>
	<line class="st1" x1="36" y1="17" x2="14" y2="17"/>
	<line class="st1" x1="34" y1="12" x2="16" y2="12"/>
	<line class="st1" x1="34" y1="23" x2="16" y2="23"/>
</g>
</svg>
