<?xml version="1.0" encoding="utf-8"?>
<!-- Generator: Adobe Illustrator 25.4.1, SVG Export Plug-In . SVG Version: 6.00 Build 0)  -->
<svg version="1.1" id="ICONS" xmlns="http://www.w3.org/2000/svg" xmlns:xlink="http://www.w3.org/1999/xlink" x="0px" y="0px"
	 viewBox="0 0 50 50" style="enable-background:new 0 0 50 50;" xml:space="preserve">
<style type="text/css">
	.st0{fill:#FFD200;}
	.st1{fill:#FFFFFF;}
</style>
<g>
	<path class="st0" d="M45.3,34.8H4.7c-0.4,0-0.7-0.3-0.7-0.7s0.3-0.7,0.7-0.7h40.5c0.4,0,0.7,0.3,0.7,0.7
		C46,34.5,45.7,34.8,45.3,34.8z"/>
	<path class="st0" d="M27.7,42.3h-5.3c-0.4,0-0.7-0.3-0.7-0.7V38c0-0.4,0.3-0.7,0.7-0.7h5.3c0.4,0,0.7,0.3,0.7,0.7v3.6
		C28.4,42,28.1,42.3,27.7,42.3z M23.1,40.8H27v-2.1h-3.9V40.8z"/>
	<path class="st0" d="M31.4,46.9H18.6c-0.3,0-0.5-0.1-0.6-0.4c-0.1-0.2-0.1-0.5,0-0.7l2.7-4.6c0.1-0.2,0.4-0.4,0.6-0.4h7.3
		c0.3,0,0.5,0.1,0.6,0.4l2.7,4.6c0.1,0.2,0.1,0.5,0,0.7C31.9,46.8,31.6,46.9,31.4,46.9z M19.9,45.5h10.2l-1.8-3.2h-6.5L19.9,45.5z"
		/>
	<path class="st0" d="M35.9,46.9H14.1c-0.4,0-0.7-0.3-0.7-0.7s0.3-0.7,0.7-0.7h21.7c0.4,0,0.7,0.3,0.7,0.7
		C36.6,46.6,36.3,46.9,35.9,46.9z"/>
	<path class="st0" d="M42.7,38.7H7.3c-1.8,0-3.3-1.5-3.3-3.3V12.5c0-1.8,1.5-3.3,3.3-3.3h2.4c0.4,0,0.7,0.3,0.7,0.7
		s-0.3,0.7-0.7,0.7H7.3c-1,0-1.8,0.8-1.8,1.8v22.9c0,1,0.8,1.8,1.8,1.8h35.4c1,0,1.8-0.8,1.8-1.8V12.5c0-1-0.8-1.8-1.8-1.8h-2.4
		c-0.4,0-0.7-0.3-0.7-0.7s0.3-0.7,0.7-0.7h2.4c1.8,0,3.3,1.5,3.3,3.3v22.9C46,37.2,44.5,38.7,42.7,38.7z"/>
</g>
<g>
	<path class="st1" d="M37.4,14.8v-3.7l0.4-0.2c0.5-0.3,0.5-1.1,0-1.4L25.4,2.8c-0.2-0.1-0.5-0.1-0.7,0L12.3,9.5
		c-0.5,0.3-0.5,1.1,0,1.4l4.5,2.4V15c-0.8,1.4-1.2,3-1.2,4.7c0,5.2,4.2,9.5,9.4,9.5c5.2,0,9.4-4.3,9.4-9.5c0-1.6-0.4-3.3-1.2-4.7
		v-1.7l2.6-1.4v2.9l-0.6,0.6c-0.3,0.3-0.3,0.8,0,1.1c0.3,0.3,0.8,0.3,1.1,0l0.3-0.3l0.3,0.3c0.2,0.2,0.3,0.2,0.5,0.2
		c0.7,0,1-0.8,0.5-1.3L37.4,14.8z M30.3,18.9c-0.1-1.2-0.2-2.4-0.5-3.4c0.9,0.1,1.7,0.3,2.1,0.3c0.5,0.9,0.9,2,1,3.1H30.3z
		 M17.2,18.9c0.1-1.1,0.4-2.1,1-3.1c0.4-0.1,1.2-0.2,2.1-0.3c-0.3,1.1-0.5,2.2-0.5,3.4H17.2z M22,15.3c0.8-0.1,1.6-0.1,2.3-0.2v3.8
		h-3C21.4,17.6,21.6,16.3,22,15.3L22,15.3z M24.3,20.4v7c-0.6-0.3-1.3-1-1.8-2c-0.7-1.4-1.1-3.1-1.2-5L24.3,20.4L24.3,20.4z
		 M25.8,27.4v-7h3c-0.1,1.9-0.5,3.6-1.2,5C27.1,26.4,26.5,27.1,25.8,27.4L25.8,27.4z M25.8,18.9v-3.8c0.8,0,1.6,0.1,2.3,0.2
		c0.4,1.1,0.6,2.3,0.7,3.6H25.8z M31.7,14.2c-1.4-0.2-4.2-0.7-6.7-0.7s-5.2,0.4-6.7,0.7c0-0.1,0-2.1,0-2.6c1.3-0.2,4.2-0.7,6.7-0.7
		s5.4,0.5,6.7,0.7V14.2z M17.2,20.4h2.6c0.1,2.1,0.6,4.5,1.7,6.3C19.1,25.5,17.5,23.2,17.2,20.4z M28.6,26.7
		c1.1-1.8,1.6-4.2,1.7-6.3h2.6C32.6,23.2,31,25.5,28.6,26.7z M33.3,11.5V11c0-0.4-0.3-0.7-0.6-0.8c-0.2,0-4.2-0.8-7.6-0.8
		s-7.4,0.8-7.6,0.8c-0.4,0.1-0.6,0.4-0.6,0.8v0.5l-2.5-1.4L25,4.4l10.7,5.8L33.3,11.5z"/>
</g>
</svg>
