<?xml version="1.0" encoding="utf-8"?>
<!-- Generator: Adobe Illustrator 25.3.1, SVG Export Plug-In . SVG Version: 6.00 Build 0)  -->
<svg version="1.1" id="ICONS" xmlns="http://www.w3.org/2000/svg" xmlns:xlink="http://www.w3.org/1999/xlink" x="0px" y="0px"
	 viewBox="0 0 50 50" style="enable-background:new 0 0 50 50;" xml:space="preserve">
<style type="text/css">
	.st0{fill:none;stroke:#434343;stroke-width:2;stroke-linecap:round;stroke-linejoin:round;}
	.st1{fill:none;stroke:#FFD200;stroke-width:2;stroke-linecap:round;stroke-linejoin:round;}
	.st2{fill:none;stroke:#FFFFFF;stroke-width:2;stroke-linecap:round;stroke-linejoin:round;}
</style>
<g>
	<path class="st0" d="M25,21.9"/>
	<path class="st1" d="M16.6,42.8c0,0,0,1.1,0,2.1c0,2.1-5.2,3.1-5.2,3.1"/>
	<path class="st2" d="M33.4,43.8c0,0.4,0,0.8,0,1.1c0,2.1,5.2,3.1,5.2,3.1"/>
	<path class="st1" d="M24,15.6c7.2,1.7,11.2,1.3,13.4,0.5c0.2,0.8,0.3,1.7,0.3,2.6v9.4c0,6.3-5.2,11.6-12.6,11.6
		s-12.6-5.2-12.6-11.6v-9.5C12.4,18.6,17.7,14.1,24,15.6z"/>
	<path class="st2" d="M18.7,15.6c0,0,0-7.4,4.2-9.5"/>
	<path class="st2" d="M22.9,15.4c0-0.7,0-4,2.1-5.1"/>
	<path class="st2" d="M8.2,28.1V17.5c0-8.6,7-15.6,15.6-15.6h2.5c8.6,0,15.6,7,15.6,15.6v10.9c0,8.6-5.1,16.6-13.6,16.6"/>
	<path class="st1" d="M27.1,47h-4.3c-0.6,0-1-0.4-1-1v-2.2c0-0.6,0.4-1,1-1h4.3c0.6,0,1,0.4,1,1V46C28.1,46.6,27.7,47,27.1,47z"/>
	<path class="st2" d="M8.2,17.6H6.1c-1.2,0-2.1,0.9-2.1,2.1V26c0,1.2,0.9,2.1,2.1,2.1h2.1"/>
	<path class="st2" d="M41.8,17.6h2.1c1.2,0,2.1,0.9,2.1,2.1V26c0,1.2-0.9,2.1-2.1,2.1h-2.1"/>
</g>
</svg>
