<svg xmlns="http://www.w3.org/2000/svg" xmlns:xlink="http://www.w3.org/1999/xlink" width="36" height="36" viewBox="0 0 36 36">
  <defs>
    <style>
      .cls-1 {
        fill: #cd4d00;
        fill-rule: evenodd;
        filter: url(#filter);
      }
    </style>
    <filter id="filter" x="1312" y="819" width="36" height="36" filterUnits="userSpaceOnUse">
      <feFlood result="flood" flood-color="#a69292"/>
      <feComposite result="composite" operator="in" in2="SourceGraphic"/>
      <feBlend result="blend" in2="SourceGraphic"/>
    </filter>
  </defs>
  <path id="形狀_54" data-name="形狀 54" class="cls-1" d="M1325.49,822.538a10.075,10.075,0,0,0-9.36,6.428,0.263,0.263,0,0,0-.04.078l-0.03.088q-0.135.362-.24,0.733l-0.05.179c-0.06.229-.11,0.46-0.16,0.694-0.01.086-.03,0.173-0.04,0.26l-0.03.218-0.06.423c-0.03.316-.05,0.632-0.05,0.949s0.02,0.633.05,0.948a2.767,2.767,0,0,0,.06.405l0.03,0.229c0.01,0.09.03,0.18,0.04,0.269,0.04,0.229.1,0.453,0.16,0.677l0.05,0.2c0.07,0.241.15,0.477,0.24,0.741l0.04,0.095a10.033,10.033,0,0,0,18.75.056c0.01-.021.03-0.051,0.04-0.074,0,0,.02-0.079.02-0.081,0.09-.244.18-0.49,0.25-0.741l0.04-.183c0.06-.227.12-0.455,0.16-0.687,0.02-.088.03-0.178,0.05-0.267l0.03-.234c0.02-.134.04-0.267,0.05-0.4a9.022,9.022,0,0,0,0-1.9c-0.01-.138-0.03-0.274-0.05-0.409l-0.03-.233c-0.02-.088-0.03-0.176-0.05-0.262-0.04-.232-0.1-0.458-0.17-0.75l-0.03-.123c-0.07-.248-0.15-0.491-0.25-0.754,0-.008-0.03-0.075-0.03-0.083A10.112,10.112,0,0,0,1325.49,822.538ZM1334.56,836h0Zm-5.59.809a6,6,0,0,1-2.43,3.427v-3.427h2.43Zm0.67-4.224a14.861,14.861,0,0,1-.16,2.117h-2.94V830.47h2.94A14.875,14.875,0,0,1,1329.64,832.588Zm1.55-4.225a12.269,12.269,0,0,0-.73-1.959c0.07,0.056.14,0.113,0.2,0.171a3.328,3.328,0,0,1,.3.271c0.08,0.079.17,0.159,0.25,0.241s0.18,0.2.27,0.3c0.07,0.086.15,0.173,0.22,0.262,0.08,0.105.16,0.215,0.25,0.344a1.89,1.89,0,0,1,.18.259c0.03,0.037.05,0.074,0.08,0.114h-1.02Zm-0.23,9.968c-0.1.092-.19,0.181-0.29,0.268-0.07.059-.14,0.116-0.21,0.173a12.281,12.281,0,0,0,.73-1.96h1.02a0.7,0.7,0,0,0-.07.114c-0.06.087-.12,0.172-0.2,0.282s-0.16.217-.24,0.321-0.15.177-.22,0.264c-0.09.1-.18,0.2-0.27,0.295S1331.04,838.252,1330.96,838.331Zm-4.42-9.968v-3.426a6,6,0,0,1,2.43,3.426h-2.43Zm6.82,5.275c-0.02.1-.03,0.209-0.05,0.31-0.02.122-.04,0.243-0.07,0.366l-0.02.077-0.02.07-0.06.244h-1.53a16.084,16.084,0,0,0,0-4.235h1.53l0.06,0.243s0.02,0.068.02,0.069l0.02,0.08c0.03,0.122.05,0.244,0.07,0.366,0.02,0.1.03,0.206,0.06,0.378l0.03,0.276q0.03,0.35.03,0.706c0,0.238-.01.472-0.03,0.705l-0.03.275,0.34,0.045h0Zm-15.59-2.922c0.02-.082.05-0.164,0.07-0.246h1.53a16.084,16.084,0,0,0,0,4.235h-1.53l-0.06-.238h0a0.676,0.676,0,0,1-.04-0.126c-0.02-.121-0.05-0.243-0.07-0.391-0.02-.12-0.04-0.241-0.06-0.364l-0.03-.292c-0.02-.232-0.04-0.467-0.04-0.705s0.02-.473.04-0.7l0.03-.295c0.02-.122.04-0.241,0.06-0.385,0.02-.124.05-0.247,0.07-0.371l-0.34-.078Zm4.24-2.353a5.988,5.988,0,0,1,2.42-3.426v3.426h-2.42Zm-0.67,4.225a13.545,13.545,0,0,1,.16-2.118h2.93v4.235h-2.93A13.551,13.551,0,0,1,1321.34,832.588Zm-1.56,4.224a12.4,12.4,0,0,0,.74,1.969,7.819,7.819,0,0,1-1.75-1.969h1.01Zm-1.01-8.449a7.815,7.815,0,0,1,1.75-1.968,11.445,11.445,0,0,0-.73,1.968h-1.02Zm5.66,8.449v3.427a5.991,5.991,0,0,1-2.42-3.427h2.42Zm23.26,12.2-0.74-.739a0.185,0.185,0,0,0-.05-0.062l-7.68-7.677a1.043,1.043,0,0,0-.74-0.308h0a1.062,1.062,0,0,0-.75.308l-1.39,1.4-0.61-.6a13.483,13.483,0,1,0-1.49,1.484l0.6,0.608-1.31,1.315a1.05,1.05,0,0,0,0,1.49l7.68,7.678a0.418,0.418,0,0,0,.06.048l0.74,0.739a1.046,1.046,0,0,0,.75.309,5.247,5.247,0,0,0,5.24-5.241A1.046,1.046,0,0,0,1347.69,849.008Zm-10.77-16.5a11.421,11.421,0,0,1-11.41,11.4h-0.01A11.393,11.393,0,1,1,1336.92,832.513Zm8.73,18.434a3.168,3.168,0,0,1-1.7,1.7Zm-8.63-4.22-1.25-1.252,2.71-2.71,0.68,0.683-1.99,1.987A1.049,1.049,0,0,0,1337.02,846.727Zm1.64,0.2,1.99-1.987,4.02,4.014-2.71,2.711-4.59-4.582A1.074,1.074,0,0,0,1338.66,846.925Z" transform="translate(-1312 -819)"/>
</svg>
